<?xml version="1.0" encoding="utf-8" standalone="no"?>
<!DOCTYPE svg PUBLIC "-//W3C//DTD SVG 1.1//EN"
  "http://www.w3.org/Graphics/SVG/1.1/DTD/svg11.dtd">
<svg height="158.4pt" version="1.1" viewBox="0 0 164.16 158.4" width="164.16pt" xmlns="http://www.w3.org/2000/svg" xmlns:xlink="http://www.w3.org/1999/xlink">
 <metadata>
  <rdf:RDF xmlns:cc="http://creativecommons.org/ns#" xmlns:dc="http://purl.org/dc/elements/1.1/" xmlns:rdf="http://www.w3.org/1999/02/22-rdf-syntax-ns#">
   <cc:Work>
    <dc:type rdf:resource="http://purl.org/dc/dcmitype/StillImage"/>
    <dc:date>2021-09-14T10:41:24.536973</dc:date>
    <dc:format>image/svg+xml</dc:format>
    <dc:creator>
     <cc:Agent>
      <dc:title>Matplotlib v3.4.3, https://matplotlib.org/</dc:title>
     </cc:Agent>
    </dc:creator>
   </cc:Work>
  </rdf:RDF>
 </metadata>
 <defs>
  <style type="text/css">*{stroke-linecap:butt;stroke-linejoin:round;}</style>
 </defs>
 <g id="figure_1">
  <g id="patch_1">
   <path d="M 0 158.4
L 164.16 158.4
L 164.16 0
L 0 0
z
" style="fill:#ffffff;"/>
  </g>
  <g id="axes_1">
   <g id="patch_2">
    <path clip-path="url(#p4d5a5b9d35)" d="M 76.41931 124.457143
L 133.026207 124.457143
L 133.026207 62.228571
L 76.41931 62.228571
z
" style="fill:none;stroke:#000000;stroke-linejoin:miter;"/>
   </g>
   <g id="patch_3">
    <path clip-path="url(#p4d5a5b9d35)" d="M 5.66069 152.742857
L 158.49931 152.742857
L 158.49931 5.657143
L 5.66069 5.657143
z
" style="fill:none;stroke:#000000;stroke-linejoin:miter;"/>
   </g>
   <g id="patch_4">
    <path clip-path="url(#p4d5a5b9d35)" d="M 92.803166 82.890526
L 86.080516 80.269859
L 86.84337 79.078647
L 45.88373 52.880902
L 45.88373 52.880902
L 86.84337 79.078647
L 87.606224 77.887434
z
" style="stroke:#000000;stroke-linejoin:miter;"/>
   </g>
   <g id="patch_5">
    <path clip-path="url(#p4d5a5b9d35)" d="M 101.586438 76.723121
L 98.638296 70.140974
L 100.018278 69.827539
L 93.707355 42.076879
L 93.707355 42.076879
L 100.018278 69.827539
L 101.398259 69.514103
z
" style="stroke:#000000;stroke-linejoin:miter;"/>
   </g>
   <g id="patch_6">
    <path clip-path="url(#p4d5a5b9d35)" d="M 90.845851 93.287928
L 84.184936 96.061571
L 83.907398 94.674749
L 47.841045 101.8835
L 47.841045 101.8835
L 83.907398 94.674749
L 83.62986 93.287928
z
" style="stroke:#000000;stroke-linejoin:miter;"/>
   </g>
   <g id="patch_7">
    <path clip-path="url(#p4d5a5b9d35)" d="M 33.964138 59.4
C 37.717219 59.4 41.317089 57.909819 43.970918 55.257653
C 46.624747 52.605487 48.115862 49.007872 48.115862 45.257143
C 48.115862 41.506413 46.624747 37.908799 43.970918 35.256633
C 41.317089 32.604466 37.717219 31.114286 33.964138 31.114286
C 30.211057 31.114286 26.611187 32.604466 23.957358 35.256633
C 21.303529 37.908799 19.812414 41.506413 19.812414 45.257143
C 19.812414 49.007872 21.303529 52.605487 23.957358 55.257653
C 26.611187 57.909819 30.211057 59.4 33.964138 59.4
z
" style="fill:#b2b2b2;stroke:#000000;stroke-linejoin:miter;"/>
   </g>
   <g id="patch_8">
    <path clip-path="url(#p4d5a5b9d35)" d="M 33.964138 59.4
C 37.717219 59.4 41.317089 57.909819 43.970918 55.257653
C 46.624747 52.605487 48.115862 49.007872 48.115862 45.257143
C 48.115862 41.506413 46.624747 37.908799 43.970918 35.256633
C 41.317089 32.604466 37.717219 31.114286 33.964138 31.114286
C 30.211057 31.114286 26.611187 32.604466 23.957358 35.256633
C 21.303529 37.908799 19.812414 41.506413 19.812414 45.257143
C 19.812414 49.007872 21.303529 52.605487 23.957358 55.257653
C 26.611187 57.909819 30.211057 59.4 33.964138 59.4
z
" style="fill:none;stroke:#000000;stroke-linejoin:miter;"/>
   </g>
   <g id="patch_9">
    <path clip-path="url(#p4d5a5b9d35)" d="M 90.571034 42.428571
C 94.324116 42.428571 97.923985 40.938391 100.577815 38.286224
C 103.231644 35.634058 104.722759 32.036444 104.722759 28.285714
C 104.722759 24.534985 103.231644 20.93737 100.577815 18.285204
C 97.923985 15.633038 94.324116 14.142857 90.571034 14.142857
C 86.817953 14.142857 83.218083 15.633038 80.564254 18.285204
C 77.910425 20.93737 76.41931 24.534985 76.41931 28.285714
C 76.41931 32.036444 77.910425 35.634058 80.564254 38.286224
C 83.218083 40.938391 86.817953 42.428571 90.571034 42.428571
z
" style="fill:none;stroke:#000000;stroke-linejoin:miter;"/>
   </g>
   <g id="patch_10">
    <path clip-path="url(#p4d5a5b9d35)" d="M 33.964138 118.8
C 37.717219 118.8 41.317089 117.309819 43.970918 114.657653
C 46.624747 112.005487 48.115862 108.407872 48.115862 104.657143
C 48.115862 100.906413 46.624747 97.308799 43.970918 94.656633
C 41.317089 92.004466 37.717219 90.514286 33.964138 90.514286
C 30.211057 90.514286 26.611187 92.004466 23.957358 94.656633
C 21.303529 97.308799 19.812414 100.906413 19.812414 104.657143
C 19.812414 108.407872 21.303529 112.005487 23.957358 114.657653
C 26.611187 117.309819 30.211057 118.8 33.964138 118.8
z
" style="fill:#b2b2b2;stroke:#000000;stroke-linejoin:miter;"/>
   </g>
   <g id="patch_11">
    <path clip-path="url(#p4d5a5b9d35)" d="M 33.964138 118.8
C 37.717219 118.8 41.317089 117.309819 43.970918 114.657653
C 46.624747 112.005487 48.115862 108.407872 48.115862 104.657143
C 48.115862 100.906413 46.624747 97.308799 43.970918 94.656633
C 41.317089 92.004466 37.717219 90.514286 33.964138 90.514286
C 30.211057 90.514286 26.611187 92.004466 23.957358 94.656633
C 21.303529 97.308799 19.812414 100.906413 19.812414 104.657143
C 19.812414 108.407872 21.303529 112.005487 23.957358 114.657653
C 26.611187 117.309819 30.211057 118.8 33.964138 118.8
z
" style="fill:none;stroke:#000000;stroke-linejoin:miter;"/>
   </g>
   <g id="patch_12">
    <path clip-path="url(#p4d5a5b9d35)" d="M 104.722759 104.657143
C 108.47584 104.657143 112.07571 103.166962 114.729539 100.514796
C 117.383368 97.86263 118.874483 94.265015 118.874483 90.514286
C 118.874483 86.763556 117.383368 83.165942 114.729539 80.513776
C 112.07571 77.861609 108.47584 76.371429 104.722759 76.371429
C 100.969678 76.371429 97.369808 77.861609 94.715979 80.513776
C 92.062149 83.165942 90.571034 86.763556 90.571034 90.514286
C 90.571034 94.265015 92.062149 97.86263 94.715979 100.514796
C 97.369808 103.166962 100.969678 104.657143 104.722759 104.657143
z
" style="fill:#b2b2b2;stroke:#000000;stroke-linejoin:miter;"/>
   </g>
   <g id="patch_13">
    <path clip-path="url(#p4d5a5b9d35)" d="M 104.722759 104.657143
C 108.47584 104.657143 112.07571 103.166962 114.729539 100.514796
C 117.383368 97.86263 118.874483 94.265015 118.874483 90.514286
C 118.874483 86.763556 117.383368 83.165942 114.729539 80.513776
C 112.07571 77.861609 108.47584 76.371429 104.722759 76.371429
C 100.969678 76.371429 97.369808 77.861609 94.715979 80.513776
C 92.062149 83.165942 90.571034 86.763556 90.571034 90.514286
C 90.571034 94.265015 92.062149 97.86263 94.715979 100.514796
C 97.369808 103.166962 100.969678 104.657143 104.722759 104.657143
z
" style="fill:none;stroke:#000000;stroke-linejoin:miter;"/>
   </g>
   <g id="matplotlib.axis_1"/>
   <g id="matplotlib.axis_2"/>
   <g id="text_1">
    <!-- Genes $G$ -->
    <g transform="translate(81.41931 117.519965)scale(0.1 -0.1)">
     <defs>
      <path d="M 3974 1233
C 3974 1473 3994 1505 4390 1505
L 4390 1670
C 4237 1664 3891 1664 3718 1664
C 3539 1664 3040 1664 2797 1664
L 2797 1505
L 2989 1505
C 3539 1505 3552 1434 3552 1201
L 3552 774
C 3552 63 2720 63 2522 63
C 1862 63 781 511 781 2160
C 781 3808 1843 4250 2464 4250
C 3187 4250 3712 3626 3834 2741
C 3846 2664 3846 2651 3904 2651
C 3974 2651 3974 2664 3974 2779
L 3974 4288
C 3974 4402 3968 4409 3930 4409
C 3904 4409 3898 4402 3853 4326
L 3571 3791
C 3258 4187 2874 4416 2381 4416
C 1286 4416 294 3456 294 2148
C 294 845 1267 -128 2394 -128
C 2912 -128 3418 56 3616 417
C 3725 158 3904 -20 3936 -20
C 3968 -20 3974 -13 3974 100
L 3974 1233
z
" id="CMR17-47" transform="scale(0.015625)"/>
      <path d="M 2438 1472
C 2464 1498 2464 1511 2464 1576
C 2464 2238 2118 2816 1389 2816
C 710 2816 173 2169 173 1383
C 173 551 781 -64 1459 -64
C 2176 -64 2458 607 2458 740
C 2458 784 2419 784 2406 784
C 2362 784 2355 771 2330 696
C 2189 265 1837 51 1504 51
C 1229 51 954 203 781 480
C 582 803 582 1176 582 1472
L 2438 1472
z
M 589 1568
C 634 2505 1126 2714 1382 2714
C 1818 2714 2112 2297 2118 1568
L 589 1568
z
" id="CMR17-65" transform="scale(0.015625)"/>
      <path d="M 2656 1933
C 2656 2259 2592 2790 1837 2790
C 1331 2790 1069 2400 973 2144
L 966 2144
L 966 2790
L 211 2720
L 211 2554
C 589 2554 646 2515 646 2208
L 646 428
C 646 184 621 153 211 153
L 211 -13
C 365 0 646 0 813 0
C 979 0 1267 0 1421 -13
L 1421 153
C 1011 153 986 178 986 428
L 986 1658
C 986 2247 1344 2688 1792 2688
C 2266 2688 2317 2266 2317 1958
L 2317 428
C 2317 184 2291 153 1882 153
L 1882 -13
C 2035 0 2317 0 2483 0
C 2650 0 2938 0 3091 -13
L 3091 153
C 2682 153 2656 178 2656 428
L 2656 1933
z
" id="CMR17-6e" transform="scale(0.015625)"/>
      <path d="M 1978 2697
C 1978 2813 1971 2819 1933 2819
C 1907 2819 1901 2813 1824 2717
C 1805 2691 1747 2626 1728 2601
C 1523 2819 1235 2819 1126 2819
C 416 2819 160 2447 160 2076
C 160 1498 813 1365 998 1325
C 1402 1243 1542 1217 1677 1101
C 1760 1025 1901 884 1901 654
C 1901 384 1747 38 1158 38
C 602 38 403 460 288 1021
C 269 1110 269 1117 218 1117
C 166 1117 160 1110 160 983
L 160 63
C 160 -51 166 -58 205 -58
C 237 -58 243 -51 275 0
C 314 57 410 211 448 276
C 576 103 800 -64 1158 -64
C 1792 -64 2131 283 2131 784
C 2131 1112 1958 1285 1875 1362
C 1683 1561 1459 1606 1190 1657
C 838 1735 390 1825 390 2217
C 390 2383 480 2737 1126 2737
C 1811 2737 1850 2094 1862 1888
C 1869 1856 1901 1849 1920 1849
C 1978 1849 1978 1869 1978 1978
L 1978 2697
z
" id="CMR17-73" transform="scale(0.015625)"/>
      <path d="M 4774 4423
C 4774 4480 4730 4480 4717 4480
C 4704 4480 4678 4480 4627 4416
L 4186 3889
C 4154 3940 4026 4163 3776 4309
C 3501 4480 3226 4480 3130 4480
C 1760 4480 320 3095 320 1595
C 320 546 1050 -128 2010 -128
C 2470 -128 3053 25 3373 427
C 3443 185 3584 12 3629 12
C 3661 12 3667 32 3674 32
C 3680 44 3731 270 3763 385
L 3866 797
C 3917 1009 3942 1099 3987 1291
C 4051 1536 4064 1536 4416 1536
C 4442 1536 4518 1536 4518 1666
C 4518 1734 4454 1734 4435 1734
C 4326 1734 4205 1734 4090 1734
L 3744 1734
C 3475 1734 3194 1734 2931 1734
C 2874 1734 2797 1734 2797 1611
C 2797 1542 2848 1542 2848 1536
L 3008 1536
C 3514 1536 3514 1489 3514 1402
C 3514 1395 3392 751 3270 561
C 3027 204 2522 57 2144 57
C 1651 57 851 312 851 1410
C 851 1836 1005 2808 1626 3526
C 2029 3984 2624 4295 3187 4295
C 3942 4295 4211 3655 4211 3071
C 4211 2970 4186 2831 4186 2742
C 4186 2685 4250 2685 4269 2685
C 4339 2685 4346 2691 4371 2805
L 4774 4423
z
" id="CMMI12-47" transform="scale(0.015625)"/>
     </defs>
     <use transform="scale(0.996264)" xlink:href="#CMR17-47"/>
     <use transform="translate(72.355346 0)scale(0.996264)" xlink:href="#CMR17-65"/>
     <use transform="translate(112.841006 0)scale(0.996264)" xlink:href="#CMR17-6e"/>
     <use transform="translate(163.736376 0)scale(0.996264)" xlink:href="#CMR17-65"/>
     <use transform="translate(204.222037 0)scale(0.996264)" xlink:href="#CMR17-73"/>
     <use transform="translate(270.099341 0)scale(0.996264)" xlink:href="#CMMI12-47"/>
    </g>
   </g>
   <g id="text_2">
    <!-- Cells $N$ -->
    <g transform="translate(10.66069 145.805679)scale(0.1 -0.1)">
     <defs>
      <path d="M 3974 4289
C 3974 4403 3968 4410 3930 4410
C 3904 4410 3898 4403 3853 4327
L 3571 3792
C 3258 4187 2874 4416 2381 4416
C 1286 4416 294 3456 294 2148
C 294 826 1286 -128 2387 -128
C 3366 -128 3974 730 3974 1461
C 3974 1524 3974 1550 3917 1550
C 3866 1550 3866 1531 3859 1474
C 3808 585 3168 38 2477 38
C 1824 38 781 495 781 2147
C 781 3805 1843 4250 2464 4250
C 3187 4250 3712 3628 3834 2745
C 3846 2668 3846 2655 3904 2655
C 3974 2655 3974 2668 3974 2783
L 3974 4289
z
" id="CMR17-43" transform="scale(0.015625)"/>
      <path d="M 979 4396
L 218 4326
L 218 4160
C 595 4160 653 4122 653 3817
L 653 426
C 653 184 627 153 218 153
L 218 -13
C 371 0 653 0 813 0
C 979 0 1261 0 1414 -13
L 1414 153
C 1005 153 979 178 979 426
L 979 4396
z
" id="CMR17-6c" transform="scale(0.015625)"/>
      <path d="M 4736 3698
C 4806 3974 4909 4166 5395 4166
C 5414 4166 5491 4166 5491 4279
C 5491 4352 5434 4352 5408 4352
C 5280 4352 4954 4352 4826 4352
L 4518 4352
C 4429 4352 4314 4352 4224 4352
C 4186 4352 4109 4352 4109 4230
C 4109 4166 4160 4166 4205 4166
C 4589 4166 4614 4019 4614 3903
C 4614 3846 4608 3826 4589 3737
L 3866 850
L 2496 4249
C 2451 4352 2445 4352 2304 4352
L 1523 4352
C 1395 4352 1338 4352 1338 4230
C 1338 4166 1382 4166 1504 4166
C 1536 4166 1914 4166 1914 4115
C 1914 4102 1901 4051 1894 4032
L 1043 635
C 966 320 813 186 390 186
C 358 186 294 186 294 67
C 294 0 358 0 378 0
C 506 0 832 0 960 0
L 1267 0
C 1357 0 1466 0 1555 0
C 1600 0 1670 0 1670 122
C 1670 180 1606 186 1581 186
C 1370 186 1165 224 1165 454
C 1165 505 1178 562 1190 613
L 2054 4032
C 2093 3968 2093 3956 2118 3898
L 3642 115
C 3674 38 3686 0 3744 0
C 3808 0 3814 19 3840 128
L 4736 3698
z
" id="CMMI12-4e" transform="scale(0.015625)"/>
     </defs>
     <use transform="scale(0.996264)" xlink:href="#CMR17-43"/>
     <use transform="translate(66.509881 0)scale(0.996264)" xlink:href="#CMR17-65"/>
     <use transform="translate(106.995541 0)scale(0.996264)" xlink:href="#CMR17-6c"/>
     <use transform="translate(131.866599 0)scale(0.996264)" xlink:href="#CMR17-6c"/>
     <use transform="translate(156.737658 0)scale(0.996264)" xlink:href="#CMR17-73"/>
     <use transform="translate(222.614962 0)scale(0.996264)" xlink:href="#CMMI12-4e"/>
    </g>
   </g>
   <g id="text_3">
    <!-- $c_n$ -->
    <g transform="translate(29.346011 47.747803)scale(0.1 -0.1)">
     <defs>
      <path d="M 2502 2431
C 2381 2431 2323 2431 2234 2355
C 2195 2323 2125 2227 2125 2125
C 2125 1997 2221 1920 2342 1920
C 2496 1920 2669 2044 2669 2292
C 2669 2588 2374 2816 1933 2816
C 1094 2816 256 1903 256 996
C 256 441 602 -64 1254 -64
C 2125 -64 2675 622 2675 706
C 2675 744 2637 776 2611 776
C 2592 776 2586 770 2528 713
C 2118 162 1510 64 1267 64
C 826 64 685 446 685 764
C 685 988 794 1605 1024 2039
C 1190 2338 1536 2682 1939 2682
C 2022 2682 2374 2682 2502 2431
z
" id="CMMI12-63" transform="scale(0.015625)"/>
      <path d="M 1318 1871
C 1331 1910 1491 2229 1728 2433
C 1894 2586 2112 2689 2362 2689
C 2618 2689 2707 2497 2707 2242
C 2707 1878 2445 1150 2317 805
C 2259 651 2227 568 2227 453
C 2227 166 2426 -64 2733 -64
C 3328 -64 3552 875 3552 913
C 3552 945 3526 971 3488 971
C 3430 971 3424 952 3392 843
C 3245 319 3002 64 2752 64
C 2688 64 2586 64 2586 269
C 2586 429 2656 621 2694 710
C 2822 1063 3091 1780 3091 2145
C 3091 2528 2867 2816 2381 2816
C 1811 2816 1510 2415 1395 2255
C 1376 2618 1114 2816 832 2816
C 627 2816 486 2695 378 2478
C 262 2248 173 1865 173 1839
C 173 1814 198 1782 243 1782
C 294 1782 301 1788 339 1935
C 442 2325 557 2689 813 2689
C 960 2689 1011 2586 1011 2395
C 1011 2254 947 2005 902 1807
L 723 1118
C 698 996 627 709 595 594
C 550 428 480 128 480 96
C 480 6 550 -64 646 -64
C 723 -64 813 -26 864 70
C 877 102 934 326 966 453
L 1107 1028
L 1318 1871
z
" id="CMMI12-6e" transform="scale(0.015625)"/>
     </defs>
     <use transform="scale(0.996264)" xlink:href="#CMMI12-63"/>
     <use transform="translate(41.983234 -14.943915)scale(0.697382)" xlink:href="#CMMI12-6e"/>
    </g>
   </g>
   <g id="text_4">
    <!-- $\gamma_n$ -->
    <g transform="translate(85.529622 30.776374)scale(0.1 -0.1)">
     <defs>
      <path d="M 2419 760
C 2406 1071 2394 1561 2150 2133
C 2022 2452 1805 2788 1338 2788
C 550 2788 122 1790 122 1625
C 122 1567 166 1567 186 1567
C 243 1567 243 1580 275 1663
C 410 2057 819 2368 1261 2368
C 2150 2368 2278 1383 2278 754
C 2278 352 2234 220 2195 92
C 2074 -302 1862 -1090 1862 -1268
C 1862 -1319 1882 -1376 1933 -1376
C 2029 -1376 2086 -1166 2157 -912
C 2310 -353 2349 -73 2381 181
C 2400 334 2765 1384 3270 2382
C 3315 2483 3405 2655 3405 2674
C 3405 2680 3398 2725 3341 2725
C 3328 2725 3296 2725 3283 2699
C 3270 2687 3046 2254 2854 1822
C 2758 1606 2630 1320 2419 760
z
" id="CMMI12-d" transform="scale(0.015625)"/>
     </defs>
     <use transform="scale(0.996264)" xlink:href="#CMMI12-d"/>
     <use transform="translate(50.599133 -14.943915)scale(0.697382)" xlink:href="#CMMI12-6e"/>
    </g>
   </g>
   <g id="text_5">
    <!-- $l_n$ -->
    <g transform="translate(30.015384 107.147803)scale(0.1 -0.1)">
     <defs>
      <path d="M 1626 4257
C 1632 4282 1645 4320 1645 4352
C 1645 4416 1581 4416 1568 4416
C 1562 4416 1331 4393 1216 4377
C 1107 4377 1011 4358 896 4358
C 742 4345 698 4339 698 4224
C 698 4160 762 4160 826 4160
C 1152 4160 1152 4102 1152 4039
C 1152 4014 1152 4001 1120 3887
L 326 731
C 307 661 294 610 294 509
C 294 191 531 -64 858 -64
C 1069 -64 1210 76 1312 274
C 1421 483 1510 884 1510 909
C 1510 941 1485 967 1446 967
C 1389 967 1382 935 1357 840
C 1242 401 1126 64 870 64
C 678 64 678 267 678 357
C 678 382 678 515 723 694
L 1626 4257
z
" id="CMMI12-6c" transform="scale(0.015625)"/>
     </defs>
     <use transform="scale(0.996264)" xlink:href="#CMMI12-6c"/>
     <use transform="translate(29.057447 -14.943915)scale(0.697382)" xlink:href="#CMMI12-6e"/>
    </g>
   </g>
   <g id="text_6">
    <!-- $x_{ng}$ -->
    <g transform="translate(97.470011 92.091729)scale(0.1 -0.1)">
     <defs>
      <path d="M 3034 2606
C 2829 2567 2752 2414 2752 2293
C 2752 2139 2874 2088 2963 2088
C 3155 2088 3290 2254 3290 2427
C 3290 2695 2982 2816 2714 2816
C 2323 2816 2106 2433 2048 2312
C 1901 2816 1504 2816 1389 2816
C 736 2816 390 1980 390 1839
C 390 1814 416 1782 461 1782
C 512 1782 525 1820 538 1846
C 755 2555 1184 2689 1370 2689
C 1658 2689 1715 2420 1715 2267
C 1715 2127 1677 1980 1600 1673
L 1382 798
C 1286 415 1101 64 762 64
C 730 64 570 64 435 147
C 666 192 717 383 717 460
C 717 588 621 664 499 664
C 346 664 179 530 179 326
C 179 57 480 -64 755 -64
C 1062 -64 1280 179 1414 441
C 1517 64 1837 -64 2074 -64
C 2726 -64 3072 773 3072 913
C 3072 945 3046 971 3008 971
C 2950 971 2944 939 2925 888
C 2752 326 2381 64 2093 64
C 1869 64 1747 230 1747 492
C 1747 632 1773 734 1875 1156
L 2099 2024
C 2195 2408 2413 2689 2707 2689
C 2720 2689 2899 2689 3034 2606
z
" id="CMMI12-78" transform="scale(0.015625)"/>
      <path d="M 2163 811
C 2138 709 2125 683 2042 588
C 1779 249 1510 128 1312 128
C 1101 128 902 294 902 734
C 902 1073 1094 1788 1235 2076
C 1421 2433 1709 2689 1978 2689
C 2400 2689 2483 2165 2483 2127
L 2464 2037
L 2163 811
z
M 2560 2395
C 2477 2580 2298 2816 1978 2816
C 1280 2816 486 1941 486 990
C 486 326 890 0 1299 0
C 1638 0 1939 268 2054 396
L 1914 -171
C 1824 -516 1786 -674 1555 -894
C 1293 -1152 1050 -1152 909 -1152
C 717 -1152 557 -1139 397 -1089
C 602 -1033 653 -858 653 -789
C 653 -689 576 -588 435 -588
C 282 -588 115 -714 115 -922
C 115 -1180 378 -1280 922 -1280
C 1747 -1280 2176 -753 2259 -410
L 2970 2435
C 2989 2511 2989 2524 2989 2536
C 2989 2625 2918 2695 2822 2695
C 2669 2695 2579 2567 2560 2395
z
" id="CMMI12-67" transform="scale(0.015625)"/>
     </defs>
     <use transform="scale(0.996264)" xlink:href="#CMMI12-78"/>
     <use transform="translate(55.43406 -14.943915)scale(0.697382)" xlink:href="#CMMI12-6e"/>
     <use transform="translate(96.194903 -14.943915)scale(0.697382)" xlink:href="#CMMI12-67"/>
    </g>
   </g>
  </g>
 </g>
 <defs>
  <clipPath id="p4d5a5b9d35">
   <rect height="158.4" width="164.16" x="0" y="0"/>
  </clipPath>
 </defs>
</svg>
