<?xml version="1.0" encoding="utf-8" standalone="no"?>
<!DOCTYPE svg PUBLIC "-//W3C//DTD SVG 1.1//EN"
  "http://www.w3.org/Graphics/SVG/1.1/DTD/svg11.dtd">
<svg height="158.4pt" version="1.1" viewBox="0 0 198 158.4" width="198pt" xmlns="http://www.w3.org/2000/svg" xmlns:xlink="http://www.w3.org/1999/xlink">
 <metadata>
  <rdf:RDF xmlns:cc="http://creativecommons.org/ns#" xmlns:dc="http://purl.org/dc/elements/1.1/" xmlns:rdf="http://www.w3.org/1999/02/22-rdf-syntax-ns#">
   <cc:Work>
    <dc:type rdf:resource="http://purl.org/dc/dcmitype/StillImage"/>
    <dc:date>2021-09-14T10:53:30.463809</dc:date>
    <dc:format>image/svg+xml</dc:format>
    <dc:creator>
     <cc:Agent>
      <dc:title>Matplotlib v3.4.3, https://matplotlib.org/</dc:title>
     </cc:Agent>
    </dc:creator>
   </cc:Work>
  </rdf:RDF>
 </metadata>
 <defs>
  <style type="text/css">*{stroke-linecap:butt;stroke-linejoin:round;}</style>
 </defs>
 <g id="figure_1">
  <g id="patch_1">
   <path d="M 0 158.4
L 198 158.4
L 198 0
L 0 0
z
" style="fill:#ffffff;"/>
  </g>
  <g id="axes_1">
   <g id="patch_2">
    <path clip-path="url(#p829eaf880b)" d="M 76.371429 124.457143
L 192.342857 124.457143
L 192.342857 62.228571
L 76.371429 62.228571
z
" style="fill:none;stroke:#000000;stroke-linejoin:miter;"/>
   </g>
   <g id="patch_3">
    <path clip-path="url(#p829eaf880b)" d="M 5.657143 152.742857
L 138.6 152.742857
L 138.6 5.657143
L 5.657143 5.657143
z
" style="fill:none;stroke:#000000;stroke-linejoin:miter;"/>
   </g>
   <g id="patch_4">
    <path clip-path="url(#p829eaf880b)" d="M 90.78893 93.287928
L 84.132188 96.061571
L 83.854824 94.674749
L 47.81107 101.8835
L 47.81107 101.8835
L 83.854824 94.674749
L 83.57746 93.287928
z
" style="stroke:#000000;stroke-linejoin:miter;"/>
   </g>
   <g id="patch_5">
    <path clip-path="url(#p829eaf880b)" d="M 92.745019 82.890526
L 86.026581 80.269859
L 86.788957 79.078647
L 45.854981 52.880902
L 45.854981 52.880902
L 86.788957 79.078647
L 87.551333 77.887434
z
" style="stroke:#000000;stroke-linejoin:miter;"/>
   </g>
   <g id="patch_6">
    <path clip-path="url(#p829eaf880b)" d="M 101.522787 76.723121
L 98.576493 70.140974
L 99.955609 69.827539
L 93.648641 42.076879
L 93.648641 42.076879
L 99.955609 69.827539
L 101.334726 69.514103
z
" style="stroke:#000000;stroke-linejoin:miter;"/>
   </g>
   <g id="patch_7">
    <path clip-path="url(#p829eaf880b)" d="M 118.8 90.514286
L 125.871429 89.1
L 125.871429 90.514286
L 149.914286 90.514286
L 149.914286 90.514286
L 125.871429 90.514286
L 125.871429 91.928571
z
" style="stroke:#000000;stroke-linejoin:miter;"/>
   </g>
   <g id="patch_8">
    <path clip-path="url(#p829eaf880b)" d="M 33.942857 118.8
C 37.693587 118.8 41.291201 117.309819 43.943367 114.657653
C 46.595534 112.005487 48.085714 108.407872 48.085714 104.657143
C 48.085714 100.906413 46.595534 97.308799 43.943367 94.656633
C 41.291201 92.004466 37.693587 90.514286 33.942857 90.514286
C 30.192128 90.514286 26.594513 92.004466 23.942347 94.656633
C 21.290181 97.308799 19.8 100.906413 19.8 104.657143
C 19.8 108.407872 21.290181 112.005487 23.942347 114.657653
C 26.594513 117.309819 30.192128 118.8 33.942857 118.8
z
" style="fill:#b2b2b2;stroke:#000000;stroke-linejoin:miter;"/>
   </g>
   <g id="patch_9">
    <path clip-path="url(#p829eaf880b)" d="M 33.942857 118.8
C 37.693587 118.8 41.291201 117.309819 43.943367 114.657653
C 46.595534 112.005487 48.085714 108.407872 48.085714 104.657143
C 48.085714 100.906413 46.595534 97.308799 43.943367 94.656633
C 41.291201 92.004466 37.693587 90.514286 33.942857 90.514286
C 30.192128 90.514286 26.594513 92.004466 23.942347 94.656633
C 21.290181 97.308799 19.8 100.906413 19.8 104.657143
C 19.8 108.407872 21.290181 112.005487 23.942347 114.657653
C 26.594513 117.309819 30.192128 118.8 33.942857 118.8
z
" style="fill:none;stroke:#000000;stroke-linejoin:miter;"/>
   </g>
   <g id="patch_10">
    <path clip-path="url(#p829eaf880b)" d="M 90.514286 42.428571
C 94.265015 42.428571 97.86263 40.938391 100.514796 38.286224
C 103.166962 35.634058 104.657143 32.036444 104.657143 28.285714
C 104.657143 24.534985 103.166962 20.93737 100.514796 18.285204
C 97.86263 15.633038 94.265015 14.142857 90.514286 14.142857
C 86.763556 14.142857 83.165942 15.633038 80.513776 18.285204
C 77.861609 20.93737 76.371429 24.534985 76.371429 28.285714
C 76.371429 32.036444 77.861609 35.634058 80.513776 38.286224
C 83.165942 40.938391 86.763556 42.428571 90.514286 42.428571
z
" style="fill:none;stroke:#000000;stroke-linejoin:miter;"/>
   </g>
   <g id="patch_11">
    <path clip-path="url(#p829eaf880b)" d="M 33.942857 59.4
C 37.693587 59.4 41.291201 57.909819 43.943367 55.257653
C 46.595534 52.605487 48.085714 49.007872 48.085714 45.257143
C 48.085714 41.506413 46.595534 37.908799 43.943367 35.256633
C 41.291201 32.604466 37.693587 31.114286 33.942857 31.114286
C 30.192128 31.114286 26.594513 32.604466 23.942347 35.256633
C 21.290181 37.908799 19.8 41.506413 19.8 45.257143
C 19.8 49.007872 21.290181 52.605487 23.942347 55.257653
C 26.594513 57.909819 30.192128 59.4 33.942857 59.4
z
" style="fill:none;stroke:#000000;stroke-linejoin:miter;"/>
   </g>
   <g id="patch_12">
    <path clip-path="url(#p829eaf880b)" d="M 164.057143 104.657143
C 167.807872 104.657143 171.405487 103.166962 174.057653 100.514796
C 176.709819 97.86263 178.2 94.265015 178.2 90.514286
C 178.2 86.763556 176.709819 83.165942 174.057653 80.513776
C 171.405487 77.861609 167.807872 76.371429 164.057143 76.371429
C 160.306413 76.371429 156.708799 77.861609 154.056633 80.513776
C 151.404466 83.165942 149.914286 86.763556 149.914286 90.514286
C 149.914286 94.265015 151.404466 97.86263 154.056633 100.514796
C 156.708799 103.166962 160.306413 104.657143 164.057143 104.657143
z
" style="fill:none;stroke:#000000;stroke-linejoin:miter;"/>
   </g>
   <g id="patch_13">
    <path clip-path="url(#p829eaf880b)" d="M 104.657143 104.657143
C 108.407872 104.657143 112.005487 103.166962 114.657653 100.514796
C 117.309819 97.86263 118.8 94.265015 118.8 90.514286
C 118.8 86.763556 117.309819 83.165942 114.657653 80.513776
C 112.005487 77.861609 108.407872 76.371429 104.657143 76.371429
C 100.906413 76.371429 97.308799 77.861609 94.656633 80.513776
C 92.004466 83.165942 90.514286 86.763556 90.514286 90.514286
C 90.514286 94.265015 92.004466 97.86263 94.656633 100.514796
C 97.308799 103.166962 100.906413 104.657143 104.657143 104.657143
z
" style="fill:#b2b2b2;stroke:#000000;stroke-linejoin:miter;"/>
   </g>
   <g id="patch_14">
    <path clip-path="url(#p829eaf880b)" d="M 104.657143 104.657143
C 108.407872 104.657143 112.005487 103.166962 114.657653 100.514796
C 117.309819 97.86263 118.8 94.265015 118.8 90.514286
C 118.8 86.763556 117.309819 83.165942 114.657653 80.513776
C 112.005487 77.861609 108.407872 76.371429 104.657143 76.371429
C 100.906413 76.371429 97.308799 77.861609 94.656633 80.513776
C 92.004466 83.165942 90.514286 86.763556 90.514286 90.514286
C 90.514286 94.265015 92.004466 97.86263 94.656633 100.514796
C 97.308799 103.166962 100.906413 104.657143 104.657143 104.657143
z
" style="fill:none;stroke:#000000;stroke-linejoin:miter;"/>
   </g>
   <g id="matplotlib.axis_1"/>
   <g id="matplotlib.axis_2"/>
   <g id="text_1">
    <!-- Genes $G$ -->
    <g transform="translate(81.371429 117.519965)scale(0.1 -0.1)">
     <defs>
      <path d="M 3974 1233
C 3974 1473 3994 1505 4390 1505
L 4390 1670
C 4237 1664 3891 1664 3718 1664
C 3539 1664 3040 1664 2797 1664
L 2797 1505
L 2989 1505
C 3539 1505 3552 1434 3552 1201
L 3552 774
C 3552 63 2720 63 2522 63
C 1862 63 781 511 781 2160
C 781 3808 1843 4250 2464 4250
C 3187 4250 3712 3626 3834 2741
C 3846 2664 3846 2651 3904 2651
C 3974 2651 3974 2664 3974 2779
L 3974 4288
C 3974 4402 3968 4409 3930 4409
C 3904 4409 3898 4402 3853 4326
L 3571 3791
C 3258 4187 2874 4416 2381 4416
C 1286 4416 294 3456 294 2148
C 294 845 1267 -128 2394 -128
C 2912 -128 3418 56 3616 417
C 3725 158 3904 -20 3936 -20
C 3968 -20 3974 -13 3974 100
L 3974 1233
z
" id="CMR17-47" transform="scale(0.015625)"/>
      <path d="M 2438 1472
C 2464 1498 2464 1511 2464 1576
C 2464 2238 2118 2816 1389 2816
C 710 2816 173 2169 173 1383
C 173 551 781 -64 1459 -64
C 2176 -64 2458 607 2458 740
C 2458 784 2419 784 2406 784
C 2362 784 2355 771 2330 696
C 2189 265 1837 51 1504 51
C 1229 51 954 203 781 480
C 582 803 582 1176 582 1472
L 2438 1472
z
M 589 1568
C 634 2505 1126 2714 1382 2714
C 1818 2714 2112 2297 2118 1568
L 589 1568
z
" id="CMR17-65" transform="scale(0.015625)"/>
      <path d="M 2656 1933
C 2656 2259 2592 2790 1837 2790
C 1331 2790 1069 2400 973 2144
L 966 2144
L 966 2790
L 211 2720
L 211 2554
C 589 2554 646 2515 646 2208
L 646 428
C 646 184 621 153 211 153
L 211 -13
C 365 0 646 0 813 0
C 979 0 1267 0 1421 -13
L 1421 153
C 1011 153 986 178 986 428
L 986 1658
C 986 2247 1344 2688 1792 2688
C 2266 2688 2317 2266 2317 1958
L 2317 428
C 2317 184 2291 153 1882 153
L 1882 -13
C 2035 0 2317 0 2483 0
C 2650 0 2938 0 3091 -13
L 3091 153
C 2682 153 2656 178 2656 428
L 2656 1933
z
" id="CMR17-6e" transform="scale(0.015625)"/>
      <path d="M 1978 2697
C 1978 2813 1971 2819 1933 2819
C 1907 2819 1901 2813 1824 2717
C 1805 2691 1747 2626 1728 2601
C 1523 2819 1235 2819 1126 2819
C 416 2819 160 2447 160 2076
C 160 1498 813 1365 998 1325
C 1402 1243 1542 1217 1677 1101
C 1760 1025 1901 884 1901 654
C 1901 384 1747 38 1158 38
C 602 38 403 460 288 1021
C 269 1110 269 1117 218 1117
C 166 1117 160 1110 160 983
L 160 63
C 160 -51 166 -58 205 -58
C 237 -58 243 -51 275 0
C 314 57 410 211 448 276
C 576 103 800 -64 1158 -64
C 1792 -64 2131 283 2131 784
C 2131 1112 1958 1285 1875 1362
C 1683 1561 1459 1606 1190 1657
C 838 1735 390 1825 390 2217
C 390 2383 480 2737 1126 2737
C 1811 2737 1850 2094 1862 1888
C 1869 1856 1901 1849 1920 1849
C 1978 1849 1978 1869 1978 1978
L 1978 2697
z
" id="CMR17-73" transform="scale(0.015625)"/>
      <path d="M 4774 4423
C 4774 4480 4730 4480 4717 4480
C 4704 4480 4678 4480 4627 4416
L 4186 3889
C 4154 3940 4026 4163 3776 4309
C 3501 4480 3226 4480 3130 4480
C 1760 4480 320 3095 320 1595
C 320 546 1050 -128 2010 -128
C 2470 -128 3053 25 3373 427
C 3443 185 3584 12 3629 12
C 3661 12 3667 32 3674 32
C 3680 44 3731 270 3763 385
L 3866 797
C 3917 1009 3942 1099 3987 1291
C 4051 1536 4064 1536 4416 1536
C 4442 1536 4518 1536 4518 1666
C 4518 1734 4454 1734 4435 1734
C 4326 1734 4205 1734 4090 1734
L 3744 1734
C 3475 1734 3194 1734 2931 1734
C 2874 1734 2797 1734 2797 1611
C 2797 1542 2848 1542 2848 1536
L 3008 1536
C 3514 1536 3514 1489 3514 1402
C 3514 1395 3392 751 3270 561
C 3027 204 2522 57 2144 57
C 1651 57 851 312 851 1410
C 851 1836 1005 2808 1626 3526
C 2029 3984 2624 4295 3187 4295
C 3942 4295 4211 3655 4211 3071
C 4211 2970 4186 2831 4186 2742
C 4186 2685 4250 2685 4269 2685
C 4339 2685 4346 2691 4371 2805
L 4774 4423
z
" id="CMMI12-47" transform="scale(0.015625)"/>
     </defs>
     <use transform="scale(0.996264)" xlink:href="#CMR17-47"/>
     <use transform="translate(72.355346 0)scale(0.996264)" xlink:href="#CMR17-65"/>
     <use transform="translate(112.841006 0)scale(0.996264)" xlink:href="#CMR17-6e"/>
     <use transform="translate(163.736376 0)scale(0.996264)" xlink:href="#CMR17-65"/>
     <use transform="translate(204.222037 0)scale(0.996264)" xlink:href="#CMR17-73"/>
     <use transform="translate(270.099341 0)scale(0.996264)" xlink:href="#CMMI12-47"/>
    </g>
   </g>
   <g id="text_2">
    <!-- Spots $S$ -->
    <g transform="translate(10.657143 145.805679)scale(0.1 -0.1)">
     <defs>
      <path d="M 2803 4290
C 2803 4404 2797 4411 2758 4411
C 2720 4411 2707 4385 2682 4328
L 2490 3907
C 2246 4257 1875 4416 1472 4416
C 819 4416 294 3901 294 3253
C 294 3056 339 2776 557 2510
C 794 2218 1018 2167 1530 2033
C 1722 1982 2042 1899 2106 1874
C 2470 1722 2662 1341 2662 985
C 2662 527 2336 38 1779 38
C 1094 38 454 419 410 1311
C 403 1413 397 1419 352 1419
C 301 1419 294 1413 294 1285
L 294 -1
C 294 -115 301 -122 339 -122
C 384 -122 397 -90 486 108
C 493 127 493 140 614 381
C 934 -39 1472 -128 1779 -128
C 2477 -128 2970 451 2970 1124
C 2970 1454 2848 1708 2778 1823
C 2509 2230 2221 2306 1914 2382
C 1869 2402 1856 2402 1498 2490
C 1152 2579 1005 2624 845 2796
C 666 2992 602 3196 602 3399
C 602 3812 934 4263 1478 4263
C 2157 4263 2579 3786 2675 2993
C 2694 2878 2701 2872 2746 2872
C 2803 2872 2803 2891 2803 2999
L 2803 4290
z
" id="CMR17-53" transform="scale(0.015625)"/>
      <path d="M 1408 -1063
C 998 -1063 973 -1037 973 -789
L 973 402
C 1158 134 1427 -38 1766 -38
C 2406 -38 3053 523 3053 1388
C 3053 2191 2496 2802 1837 2802
C 1453 2802 1139 2592 960 2338
L 960 2802
L 198 2732
L 198 2567
C 576 2567 634 2528 634 2223
L 634 -789
C 634 -1031 608 -1063 198 -1063
L 198 -1228
C 352 -1216 634 -1216 800 -1216
C 966 -1216 1254 -1216 1408 -1228
L 1408 -1063
z
M 973 2012
C 973 2102 973 2235 1222 2471
C 1254 2497 1472 2688 1792 2688
C 2259 2688 2643 2108 2643 1382
C 2643 656 2234 64 1728 64
C 1498 64 1248 172 1056 472
C 973 612 973 650 973 752
L 973 2012
z
" id="CMR17-70" transform="scale(0.015625)"/>
      <path d="M 2758 1356
C 2758 2176 2163 2816 1466 2816
C 768 2816 173 2176 173 1356
C 173 551 768 -64 1466 -64
C 2163 -64 2758 551 2758 1356
z
M 1466 51
C 1165 51 909 230 762 480
C 602 767 582 1126 582 1408
C 582 1677 595 2010 762 2298
C 890 2509 1139 2714 1466 2714
C 1754 2714 1997 2554 2150 2330
C 2349 2029 2349 1607 2349 1408
C 2349 1158 2336 775 2163 467
C 1984 173 1709 51 1466 51
z
" id="CMR17-6f" transform="scale(0.015625)"/>
      <path d="M 966 2560
L 1862 2560
L 1862 2725
L 966 2725
L 966 3904
L 851 3904
C 838 3245 614 2668 70 2668
L 70 2560
L 627 2560
L 627 771
C 627 650 627 -64 1370 -64
C 1747 -64 1965 306 1965 777
L 1965 1140
L 1850 1140
L 1850 783
C 1850 344 1677 51 1408 51
C 1222 51 966 178 966 758
L 966 2560
z
" id="CMR17-74" transform="scale(0.015625)"/>
      <path d="M 4064 4423
C 4064 4480 4019 4480 4006 4480
C 3981 4480 3974 4474 3898 4378
C 3859 4333 3597 4001 3590 3995
C 3379 4410 2957 4480 2688 4480
C 1875 4480 1139 3743 1139 3025
C 1139 2549 1427 2269 1741 2161
C 1811 2135 2189 2033 2381 1989
C 2707 1900 2790 1875 2925 1735
C 2950 1703 3078 1557 3078 1258
C 3078 667 2528 57 1888 57
C 1363 57 781 280 781 991
C 781 1112 806 1265 826 1328
C 826 1348 832 1378 832 1391
C 832 1417 819 1449 768 1449
C 710 1449 704 1436 678 1328
L 352 24
C 352 18 326 -64 326 -71
C 326 -128 378 -128 390 -128
C 416 -128 422 -122 499 -26
L 794 356
C 947 126 1280 -128 1875 -128
C 2701 -128 3456 666 3456 1460
C 3456 1728 3392 1963 3149 2197
C 3014 2331 2899 2363 2310 2516
C 1882 2630 1824 2649 1709 2751
C 1600 2858 1517 3011 1517 3227
C 1517 3761 2061 4308 2669 4308
C 3296 4308 3590 3926 3590 3323
C 3590 3158 3558 2986 3558 2961
C 3558 2903 3610 2903 3629 2903
C 3686 2903 3693 2922 3718 3024
L 4064 4423
z
" id="CMMI12-53" transform="scale(0.015625)"/>
     </defs>
     <use transform="scale(0.996264)" xlink:href="#CMR17-53"/>
     <use transform="translate(50.89537 0)scale(0.996264)" xlink:href="#CMR17-70"/>
     <use transform="translate(104.393178 0)scale(0.996264)" xlink:href="#CMR17-6f"/>
     <use transform="translate(150.083655 0)scale(0.996264)" xlink:href="#CMR17-74"/>
     <use transform="translate(185.364423 0)scale(0.996264)" xlink:href="#CMR17-73"/>
     <use transform="translate(251.241727 0)scale(0.996264)" xlink:href="#CMMI12-53"/>
    </g>
   </g>
   <g id="text_3">
    <!-- $l_s$ -->
    <g transform="translate(30.576422 107.147803)scale(0.1 -0.1)">
     <defs>
      <path d="M 1626 4257
C 1632 4282 1645 4320 1645 4352
C 1645 4416 1581 4416 1568 4416
C 1562 4416 1331 4393 1216 4377
C 1107 4377 1011 4358 896 4358
C 742 4345 698 4339 698 4224
C 698 4160 762 4160 826 4160
C 1152 4160 1152 4102 1152 4039
C 1152 4014 1152 4001 1120 3887
L 326 731
C 307 661 294 610 294 509
C 294 191 531 -64 858 -64
C 1069 -64 1210 76 1312 274
C 1421 483 1510 884 1510 909
C 1510 941 1485 967 1446 967
C 1389 967 1382 935 1357 840
C 1242 401 1126 64 870 64
C 678 64 678 267 678 357
C 678 382 678 515 723 694
L 1626 4257
z
" id="CMMI12-6c" transform="scale(0.015625)"/>
      <path d="M 1459 1280
C 1568 1261 1741 1223 1779 1216
C 1862 1192 2150 1090 2150 783
C 2150 586 1971 70 1229 70
C 1094 70 614 70 486 436
C 742 404 870 603 870 745
C 870 880 781 950 653 950
C 512 950 326 841 326 552
C 326 173 710 -64 1222 -64
C 2195 -64 2483 651 2483 984
C 2483 1079 2483 1258 2278 1462
C 2118 1616 1965 1648 1619 1718
C 1446 1756 1171 1814 1171 2101
C 1171 2229 1286 2689 1894 2689
C 2163 2689 2426 2589 2490 2368
C 2208 2368 2195 2125 2195 2119
C 2195 1984 2317 1946 2374 1946
C 2464 1946 2643 2015 2643 2281
C 2643 2545 2400 2816 1901 2816
C 1062 2816 838 2160 838 1899
C 838 1414 1312 1312 1459 1280
z
" id="CMMI12-73" transform="scale(0.015625)"/>
     </defs>
     <use transform="scale(0.996264)" xlink:href="#CMMI12-6c"/>
     <use transform="translate(29.057447 -14.943915)scale(0.697382)" xlink:href="#CMMI12-73"/>
    </g>
   </g>
   <g id="text_4">
    <!-- $\beta_{sc}$ -->
    <g transform="translate(84.036419 30.776374)scale(0.1 -0.1)">
     <defs>
      <path d="M 3622 3701
C 3622 4081 3296 4480 2714 4480
C 1888 4480 1363 3477 1197 2816
L 186 -1172
C 173 -1223 211 -1236 243 -1236
C 288 -1236 320 -1230 326 -1198
L 774 586
C 838 229 1190 -64 1568 -64
C 2483 -64 3347 650 3347 1599
C 3347 1841 3290 2083 3155 2287
C 3078 2408 2982 2497 2880 2574
C 3341 2815 3622 3200 3622 3701
z
M 2509 2580
C 2406 2542 2304 2529 2182 2529
C 2093 2529 2010 2523 1894 2561
C 1958 2606 2054 2618 2189 2618
C 2304 2618 2419 2606 2509 2580
z
M 3290 3758
C 3290 3410 3117 2903 2701 2669
C 2579 2718 2413 2752 2272 2752
C 2138 2752 1754 2752 1754 2555
C 1754 2389 2106 2389 2214 2389
C 2381 2389 2528 2432 2682 2484
C 2886 2318 2976 2101 2976 1783
C 2976 1413 2874 1115 2752 841
C 2541 369 2042 64 1600 64
C 1133 64 890 432 890 864
C 890 922 890 1005 915 1099
L 1331 2771
C 1542 3603 2080 4353 2701 4353
C 3162 4353 3290 4036 3290 3758
z
" id="CMMI12-c" transform="scale(0.015625)"/>
      <path d="M 2502 2431
C 2381 2431 2323 2431 2234 2355
C 2195 2323 2125 2227 2125 2125
C 2125 1997 2221 1920 2342 1920
C 2496 1920 2669 2044 2669 2292
C 2669 2588 2374 2816 1933 2816
C 1094 2816 256 1903 256 996
C 256 441 602 -64 1254 -64
C 2125 -64 2675 622 2675 706
C 2675 744 2637 776 2611 776
C 2592 776 2586 770 2528 713
C 2118 162 1510 64 1267 64
C 826 64 685 446 685 764
C 685 988 794 1605 1024 2039
C 1190 2338 1536 2682 1939 2682
C 2022 2682 2374 2682 2502 2431
z
" id="CMMI12-63" transform="scale(0.015625)"/>
     </defs>
     <use transform="scale(0.996264)" xlink:href="#CMMI12-c"/>
     <use transform="translate(55.070737 -14.943915)scale(0.697382)" xlink:href="#CMMI12-73"/>
     <use transform="translate(87.235626 -14.943915)scale(0.697382)" xlink:href="#CMMI12-63"/>
    </g>
   </g>
   <g id="text_5">
    <!-- $\gamma_s^c$ -->
    <g transform="translate(29.306944 47.334672)scale(0.1 -0.1)">
     <defs>
      <path d="M 2419 760
C 2406 1071 2394 1561 2150 2133
C 2022 2452 1805 2788 1338 2788
C 550 2788 122 1790 122 1625
C 122 1567 166 1567 186 1567
C 243 1567 243 1580 275 1663
C 410 2057 819 2368 1261 2368
C 2150 2368 2278 1383 2278 754
C 2278 352 2234 220 2195 92
C 2074 -302 1862 -1090 1862 -1268
C 1862 -1319 1882 -1376 1933 -1376
C 2029 -1376 2086 -1166 2157 -912
C 2310 -353 2349 -73 2381 181
C 2400 334 2765 1384 3270 2382
C 3315 2483 3405 2655 3405 2674
C 3405 2680 3398 2725 3341 2725
C 3328 2725 3296 2725 3283 2699
C 3270 2687 3046 2254 2854 1822
C 2758 1606 2630 1320 2419 760
z
" id="CMMI12-d" transform="scale(0.015625)"/>
     </defs>
     <use transform="scale(0.996264)" xlink:href="#CMMI12-d"/>
     <use transform="translate(56.018568 36.153639)scale(0.697382)" xlink:href="#CMMI12-63"/>
     <use transform="translate(50.599133 -24.62935)scale(0.697382)" xlink:href="#CMMI12-73"/>
    </g>
   </g>
   <g id="text_6">
    <!-- $\eta_g$ -->
    <g transform="translate(159.640409 92.091729)scale(0.1 -0.1)">
     <defs>
      <path d="M 3040 1768
C 3072 1895 3091 1973 3091 2145
C 3091 2528 2867 2815 2381 2815
C 1811 2815 1510 2413 1395 2254
C 1376 2618 1114 2815 832 2815
C 646 2815 499 2726 378 2483
C 262 2254 173 1864 173 1839
C 173 1813 198 1781 243 1781
C 294 1781 301 1788 339 1934
C 435 2311 557 2688 813 2688
C 960 2688 1011 2586 1011 2394
C 1011 2254 947 2005 902 1807
L 723 1118
C 698 996 627 709 595 593
C 550 428 480 127 480 96
C 480 6 550 -64 646 -64
C 723 -64 813 -25 864 70
C 877 102 934 326 966 453
L 1107 1028
L 1318 1871
C 1331 1909 1491 2228 1728 2432
C 1894 2586 2112 2688 2362 2688
C 2618 2688 2707 2496 2707 2241
C 2707 2055 2682 1953 2650 1831
L 1907 -1107
C 1901 -1139 1888 -1177 1888 -1216
C 1888 -1312 1965 -1376 2061 -1376
C 2118 -1376 2253 -1350 2304 -1158
L 3040 1768
z
" id="CMMI12-11" transform="scale(0.015625)"/>
      <path d="M 2163 811
C 2138 709 2125 683 2042 588
C 1779 249 1510 128 1312 128
C 1101 128 902 294 902 734
C 902 1073 1094 1788 1235 2076
C 1421 2433 1709 2689 1978 2689
C 2400 2689 2483 2165 2483 2127
L 2464 2037
L 2163 811
z
M 2560 2395
C 2477 2580 2298 2816 1978 2816
C 1280 2816 486 1941 486 990
C 486 326 890 0 1299 0
C 1638 0 1939 268 2054 396
L 1914 -171
C 1824 -516 1786 -674 1555 -894
C 1293 -1152 1050 -1152 909 -1152
C 717 -1152 557 -1139 397 -1089
C 602 -1033 653 -858 653 -789
C 653 -689 576 -588 435 -588
C 282 -588 115 -714 115 -922
C 115 -1180 378 -1280 922 -1280
C 1747 -1280 2176 -753 2259 -410
L 2970 2435
C 2989 2511 2989 2524 2989 2536
C 2989 2625 2918 2695 2822 2695
C 2669 2695 2579 2567 2560 2395
z
" id="CMMI12-67" transform="scale(0.015625)"/>
     </defs>
     <use transform="scale(0.996264)" xlink:href="#CMMI12-11"/>
     <use transform="translate(48.129223 -14.943915)scale(0.697382)" xlink:href="#CMMI12-67"/>
    </g>
   </g>
   <g id="text_7">
    <!-- $x_{sg}$ -->
    <g transform="translate(97.986715 92.091729)scale(0.1 -0.1)">
     <defs>
      <path d="M 3034 2606
C 2829 2567 2752 2414 2752 2293
C 2752 2139 2874 2088 2963 2088
C 3155 2088 3290 2254 3290 2427
C 3290 2695 2982 2816 2714 2816
C 2323 2816 2106 2433 2048 2312
C 1901 2816 1504 2816 1389 2816
C 736 2816 390 1980 390 1839
C 390 1814 416 1782 461 1782
C 512 1782 525 1820 538 1846
C 755 2555 1184 2689 1370 2689
C 1658 2689 1715 2420 1715 2267
C 1715 2127 1677 1980 1600 1673
L 1382 798
C 1286 415 1101 64 762 64
C 730 64 570 64 435 147
C 666 192 717 383 717 460
C 717 588 621 664 499 664
C 346 664 179 530 179 326
C 179 57 480 -64 755 -64
C 1062 -64 1280 179 1414 441
C 1517 64 1837 -64 2074 -64
C 2726 -64 3072 773 3072 913
C 3072 945 3046 971 3008 971
C 2950 971 2944 939 2925 888
C 2752 326 2381 64 2093 64
C 1869 64 1747 230 1747 492
C 1747 632 1773 734 1875 1156
L 2099 2024
C 2195 2408 2413 2689 2707 2689
C 2720 2689 2899 2689 3034 2606
z
" id="CMMI12-78" transform="scale(0.015625)"/>
     </defs>
     <use transform="scale(0.996264)" xlink:href="#CMMI12-78"/>
     <use transform="translate(55.43406 -14.943915)scale(0.697382)" xlink:href="#CMMI12-73"/>
     <use transform="translate(87.598948 -14.943915)scale(0.697382)" xlink:href="#CMMI12-67"/>
    </g>
   </g>
  </g>
 </g>
 <defs>
  <clipPath id="p829eaf880b">
   <rect height="158.4" width="198" x="0" y="0"/>
  </clipPath>
 </defs>
</svg>
