<?xml version="1.0" encoding="utf-8" standalone="no"?>
<!DOCTYPE svg PUBLIC "-//W3C//DTD SVG 1.1//EN"
  "http://www.w3.org/Graphics/SVG/1.1/DTD/svg11.dtd">
<svg height="158.4pt" version="1.1" viewBox="0 0 164.16 158.4" width="164.16pt" xmlns="http://www.w3.org/2000/svg" xmlns:xlink="http://www.w3.org/1999/xlink">
 <metadata>
  <rdf:RDF xmlns:cc="http://creativecommons.org/ns#" xmlns:dc="http://purl.org/dc/elements/1.1/" xmlns:rdf="http://www.w3.org/1999/02/22-rdf-syntax-ns#">
   <cc:Work>
    <dc:type rdf:resource="http://purl.org/dc/dcmitype/StillImage"/>
    <dc:date>2021-09-27T13:50:30.889809</dc:date>
    <dc:format>image/svg+xml</dc:format>
    <dc:creator>
     <cc:Agent>
      <dc:title>Matplotlib v3.4.3, https://matplotlib.org/</dc:title>
     </cc:Agent>
    </dc:creator>
   </cc:Work>
  </rdf:RDF>
 </metadata>
 <defs>
  <style type="text/css">*{stroke-linecap:butt;stroke-linejoin:round;}</style>
 </defs>
 <g id="figure_1">
  <g id="patch_1">
   <path d="M 0 158.4
L 164.16 158.4
L 164.16 0
L 0 0
z
" style="fill:#ffffff;"/>
  </g>
  <g id="axes_1">
   <g id="patch_2">
    <path clip-path="url(#p136007df74)" d="M 50.946207 138.6
L 147.177931 138.6
L 147.177931 76.371429
L 50.946207 76.371429
z
" style="fill:none;stroke:#000000;stroke-linejoin:miter;"/>
   </g>
   <g id="patch_3">
    <path clip-path="url(#p136007df74)" d="M 5.66069 152.742857
L 158.49931 152.742857
L 158.49931 5.657143
L 5.66069 5.657143
z
" style="fill:none;stroke:#000000;stroke-linejoin:miter;"/>
   </g>
   <g id="patch_4">
    <path clip-path="url(#p136007df74)" d="M 112.703653 96.897573
L 106.01145 94.200199
L 106.787893 93.017788
L 45.795657 53.016713
L 45.795657 53.016713
L 106.787893 93.017788
L 107.564337 91.835378
z
" style="stroke:#000000;stroke-linejoin:miter;"/>
   </g>
   <g id="patch_5">
    <path clip-path="url(#p136007df74)" d="M 118.787613 91.733237
L 114.620632 85.845679
L 115.913833 85.271284
L 96.318594 41.20962
L 96.318594 41.20962
L 115.913833 85.271284
L 117.207034 84.696888
z
" style="stroke:#000000;stroke-linejoin:miter;"/>
   </g>
   <g id="patch_6">
    <path clip-path="url(#p136007df74)" d="M 110.383448 104.657143
L 103.307586 106.071429
L 103.307586 104.657143
L 90.571034 104.657143
L 90.571034 104.657143
L 103.307586 104.657143
L 103.307586 103.242857
z
" style="stroke:#000000;stroke-linejoin:miter;"/>
   </g>
   <g id="patch_7">
    <path clip-path="url(#p136007df74)" d="M 33.964138 59.4
C 37.717219 59.4 41.317089 57.909819 43.970918 55.257653
C 46.624747 52.605487 48.115862 49.007872 48.115862 45.257143
C 48.115862 41.506413 46.624747 37.908799 43.970918 35.256633
C 41.317089 32.604466 37.717219 31.114286 33.964138 31.114286
C 30.211057 31.114286 26.611187 32.604466 23.957358 35.256633
C 21.303529 37.908799 19.812414 41.506413 19.812414 45.257143
C 19.812414 49.007872 21.303529 52.605487 23.957358 55.257653
C 26.611187 57.909819 30.211057 59.4 33.964138 59.4
z
" style="fill:none;stroke:#000000;stroke-linejoin:miter;"/>
   </g>
   <g id="patch_8">
    <path clip-path="url(#p136007df74)" d="M 90.571034 42.428571
C 94.324116 42.428571 97.923985 40.938391 100.577815 38.286224
C 103.231644 35.634058 104.722759 32.036444 104.722759 28.285714
C 104.722759 24.534985 103.231644 20.93737 100.577815 18.285204
C 97.923985 15.633038 94.324116 14.142857 90.571034 14.142857
C 86.817953 14.142857 83.218083 15.633038 80.564254 18.285204
C 77.910425 20.93737 76.41931 24.534985 76.41931 28.285714
C 76.41931 32.036444 77.910425 35.634058 80.564254 38.286224
C 83.218083 40.938391 86.817953 42.428571 90.571034 42.428571
z
" style="fill:none;stroke:#000000;stroke-linejoin:miter;"/>
   </g>
   <g id="patch_9">
    <path clip-path="url(#p136007df74)" d="M 76.41931 118.8
C 80.172391 118.8 83.772261 117.309819 86.42609 114.657653
C 89.07992 112.005487 90.571034 108.407872 90.571034 104.657143
C 90.571034 100.906413 89.07992 97.308799 86.42609 94.656633
C 83.772261 92.004466 80.172391 90.514286 76.41931 90.514286
C 72.666229 90.514286 69.066359 92.004466 66.41253 94.656633
C 63.758701 97.308799 62.267586 100.906413 62.267586 104.657143
C 62.267586 108.407872 63.758701 112.005487 66.41253 114.657653
C 69.066359 117.309819 72.666229 118.8 76.41931 118.8
z
" style="fill:#b2b2b2;stroke:#000000;stroke-linejoin:miter;"/>
   </g>
   <g id="patch_10">
    <path clip-path="url(#p136007df74)" d="M 76.41931 118.8
C 80.172391 118.8 83.772261 117.309819 86.42609 114.657653
C 89.07992 112.005487 90.571034 108.407872 90.571034 104.657143
C 90.571034 100.906413 89.07992 97.308799 86.42609 94.656633
C 83.772261 92.004466 80.172391 90.514286 76.41931 90.514286
C 72.666229 90.514286 69.066359 92.004466 66.41253 94.656633
C 63.758701 97.308799 62.267586 100.906413 62.267586 104.657143
C 62.267586 108.407872 63.758701 112.005487 66.41253 114.657653
C 69.066359 117.309819 72.666229 118.8 76.41931 118.8
z
" style="fill:none;stroke:#000000;stroke-linejoin:miter;"/>
   </g>
   <g id="patch_11">
    <path clip-path="url(#p136007df74)" d="M 124.535172 118.8
C 128.288254 118.8 131.888123 117.309819 134.541953 114.657653
C 137.195782 112.005487 138.686897 108.407872 138.686897 104.657143
C 138.686897 100.906413 137.195782 97.308799 134.541953 94.656633
C 131.888123 92.004466 128.288254 90.514286 124.535172 90.514286
C 120.782091 90.514286 117.182221 92.004466 114.528392 94.656633
C 111.874563 97.308799 110.383448 100.906413 110.383448 104.657143
C 110.383448 108.407872 111.874563 112.005487 114.528392 114.657653
C 117.182221 117.309819 120.782091 118.8 124.535172 118.8
z
" style="fill:#b2b2b2;stroke:#000000;stroke-linejoin:miter;"/>
   </g>
   <g id="patch_12">
    <path clip-path="url(#p136007df74)" d="M 124.535172 118.8
C 128.288254 118.8 131.888123 117.309819 134.541953 114.657653
C 137.195782 112.005487 138.686897 108.407872 138.686897 104.657143
C 138.686897 100.906413 137.195782 97.308799 134.541953 94.656633
C 131.888123 92.004466 128.288254 90.514286 124.535172 90.514286
C 120.782091 90.514286 117.182221 92.004466 114.528392 94.656633
C 111.874563 97.308799 110.383448 100.906413 110.383448 104.657143
C 110.383448 108.407872 111.874563 112.005487 114.528392 114.657653
C 117.182221 117.309819 120.782091 118.8 124.535172 118.8
z
" style="fill:none;stroke:#000000;stroke-linejoin:miter;"/>
   </g>
   <g id="matplotlib.axis_1"/>
   <g id="matplotlib.axis_2"/>
   <g id="text_1">
    <!-- Cells $C$ -->
    <g transform="translate(55.946207 131.662822)scale(0.1 -0.1)">
     <defs>
      <path d="M 3974 4289
C 3974 4403 3968 4410 3930 4410
C 3904 4410 3898 4403 3853 4327
L 3571 3792
C 3258 4187 2874 4416 2381 4416
C 1286 4416 294 3456 294 2148
C 294 826 1286 -128 2387 -128
C 3366 -128 3974 730 3974 1461
C 3974 1524 3974 1550 3917 1550
C 3866 1550 3866 1531 3859 1474
C 3808 585 3168 38 2477 38
C 1824 38 781 495 781 2147
C 781 3805 1843 4250 2464 4250
C 3187 4250 3712 3628 3834 2745
C 3846 2668 3846 2655 3904 2655
C 3974 2655 3974 2668 3974 2783
L 3974 4289
z
" id="CMR17-43" transform="scale(0.015625)"/>
      <path d="M 2438 1472
C 2464 1498 2464 1511 2464 1576
C 2464 2238 2118 2816 1389 2816
C 710 2816 173 2169 173 1383
C 173 551 781 -64 1459 -64
C 2176 -64 2458 607 2458 740
C 2458 784 2419 784 2406 784
C 2362 784 2355 771 2330 696
C 2189 265 1837 51 1504 51
C 1229 51 954 203 781 480
C 582 803 582 1176 582 1472
L 2438 1472
z
M 589 1568
C 634 2505 1126 2714 1382 2714
C 1818 2714 2112 2297 2118 1568
L 589 1568
z
" id="CMR17-65" transform="scale(0.015625)"/>
      <path d="M 979 4396
L 218 4326
L 218 4160
C 595 4160 653 4122 653 3817
L 653 426
C 653 184 627 153 218 153
L 218 -13
C 371 0 653 0 813 0
C 979 0 1261 0 1414 -13
L 1414 153
C 1005 153 979 178 979 426
L 979 4396
z
" id="CMR17-6c" transform="scale(0.015625)"/>
      <path d="M 1978 2697
C 1978 2813 1971 2819 1933 2819
C 1907 2819 1901 2813 1824 2717
C 1805 2691 1747 2626 1728 2601
C 1523 2819 1235 2819 1126 2819
C 416 2819 160 2447 160 2076
C 160 1498 813 1365 998 1325
C 1402 1243 1542 1217 1677 1101
C 1760 1025 1901 884 1901 654
C 1901 384 1747 38 1158 38
C 602 38 403 460 288 1021
C 269 1110 269 1117 218 1117
C 166 1117 160 1110 160 983
L 160 63
C 160 -51 166 -58 205 -58
C 237 -58 243 -51 275 0
C 314 57 410 211 448 276
C 576 103 800 -64 1158 -64
C 1792 -64 2131 283 2131 784
C 2131 1112 1958 1285 1875 1362
C 1683 1561 1459 1606 1190 1657
C 838 1735 390 1825 390 2217
C 390 2383 480 2737 1126 2737
C 1811 2737 1850 2094 1862 1888
C 1869 1856 1901 1849 1920 1849
C 1978 1849 1978 1869 1978 1978
L 1978 2697
z
" id="CMR17-73" transform="scale(0.015625)"/>
      <path d="M 4781 4423
C 4781 4480 4736 4480 4723 4480
C 4710 4480 4685 4480 4634 4416
L 4192 3882
C 3968 4264 3616 4480 3136 4480
C 1754 4480 320 3088 320 1595
C 320 533 1069 -128 2003 -128
C 2515 -128 2963 88 3334 400
C 3891 863 4058 1481 4058 1531
C 4058 1588 4006 1588 3987 1588
C 3930 1588 3923 1550 3910 1524
C 3616 534 2752 57 2112 57
C 1434 57 845 489 845 1391
C 845 1595 909 2700 1632 3532
C 1984 3939 2586 4295 3194 4295
C 3898 4295 4211 3717 4211 3068
C 4211 2903 4192 2764 4192 2738
C 4192 2681 4256 2681 4275 2681
C 4346 2681 4352 2687 4378 2801
L 4781 4423
z
" id="CMMI12-43" transform="scale(0.015625)"/>
     </defs>
     <use transform="scale(0.996264)" xlink:href="#CMR17-43"/>
     <use transform="translate(66.509881 0)scale(0.996264)" xlink:href="#CMR17-65"/>
     <use transform="translate(106.995541 0)scale(0.996264)" xlink:href="#CMR17-6c"/>
     <use transform="translate(131.866599 0)scale(0.996264)" xlink:href="#CMR17-6c"/>
     <use transform="translate(156.737658 0)scale(0.996264)" xlink:href="#CMR17-73"/>
     <use transform="translate(222.614962 0)scale(0.996264)" xlink:href="#CMMI12-43"/>
    </g>
   </g>
   <g id="text_2">
    <!-- Genes $G$ -->
    <g transform="translate(10.66069 145.805679)scale(0.1 -0.1)">
     <defs>
      <path d="M 3974 1233
C 3974 1473 3994 1505 4390 1505
L 4390 1670
C 4237 1664 3891 1664 3718 1664
C 3539 1664 3040 1664 2797 1664
L 2797 1505
L 2989 1505
C 3539 1505 3552 1434 3552 1201
L 3552 774
C 3552 63 2720 63 2522 63
C 1862 63 781 511 781 2160
C 781 3808 1843 4250 2464 4250
C 3187 4250 3712 3626 3834 2741
C 3846 2664 3846 2651 3904 2651
C 3974 2651 3974 2664 3974 2779
L 3974 4288
C 3974 4402 3968 4409 3930 4409
C 3904 4409 3898 4402 3853 4326
L 3571 3791
C 3258 4187 2874 4416 2381 4416
C 1286 4416 294 3456 294 2148
C 294 845 1267 -128 2394 -128
C 2912 -128 3418 56 3616 417
C 3725 158 3904 -20 3936 -20
C 3968 -20 3974 -13 3974 100
L 3974 1233
z
" id="CMR17-47" transform="scale(0.015625)"/>
      <path d="M 2656 1933
C 2656 2259 2592 2790 1837 2790
C 1331 2790 1069 2400 973 2144
L 966 2144
L 966 2790
L 211 2720
L 211 2554
C 589 2554 646 2515 646 2208
L 646 428
C 646 184 621 153 211 153
L 211 -13
C 365 0 646 0 813 0
C 979 0 1267 0 1421 -13
L 1421 153
C 1011 153 986 178 986 428
L 986 1658
C 986 2247 1344 2688 1792 2688
C 2266 2688 2317 2266 2317 1958
L 2317 428
C 2317 184 2291 153 1882 153
L 1882 -13
C 2035 0 2317 0 2483 0
C 2650 0 2938 0 3091 -13
L 3091 153
C 2682 153 2656 178 2656 428
L 2656 1933
z
" id="CMR17-6e" transform="scale(0.015625)"/>
      <path d="M 4774 4423
C 4774 4480 4730 4480 4717 4480
C 4704 4480 4678 4480 4627 4416
L 4186 3889
C 4154 3940 4026 4163 3776 4309
C 3501 4480 3226 4480 3130 4480
C 1760 4480 320 3095 320 1595
C 320 546 1050 -128 2010 -128
C 2470 -128 3053 25 3373 427
C 3443 185 3584 12 3629 12
C 3661 12 3667 32 3674 32
C 3680 44 3731 270 3763 385
L 3866 797
C 3917 1009 3942 1099 3987 1291
C 4051 1536 4064 1536 4416 1536
C 4442 1536 4518 1536 4518 1666
C 4518 1734 4454 1734 4435 1734
C 4326 1734 4205 1734 4090 1734
L 3744 1734
C 3475 1734 3194 1734 2931 1734
C 2874 1734 2797 1734 2797 1611
C 2797 1542 2848 1542 2848 1536
L 3008 1536
C 3514 1536 3514 1489 3514 1402
C 3514 1395 3392 751 3270 561
C 3027 204 2522 57 2144 57
C 1651 57 851 312 851 1410
C 851 1836 1005 2808 1626 3526
C 2029 3984 2624 4295 3187 4295
C 3942 4295 4211 3655 4211 3071
C 4211 2970 4186 2831 4186 2742
C 4186 2685 4250 2685 4269 2685
C 4339 2685 4346 2691 4371 2805
L 4774 4423
z
" id="CMMI12-47" transform="scale(0.015625)"/>
     </defs>
     <use transform="scale(0.996264)" xlink:href="#CMR17-47"/>
     <use transform="translate(72.355346 0)scale(0.996264)" xlink:href="#CMR17-65"/>
     <use transform="translate(112.841006 0)scale(0.996264)" xlink:href="#CMR17-6e"/>
     <use transform="translate(163.736376 0)scale(0.996264)" xlink:href="#CMR17-65"/>
     <use transform="translate(204.222037 0)scale(0.996264)" xlink:href="#CMR17-73"/>
     <use transform="translate(270.099341 0)scale(0.996264)" xlink:href="#CMMI12-47"/>
    </g>
   </g>
   <g id="text_3">
    <!-- $p_g$ -->
    <g transform="translate(29.514553 46.834586)scale(0.1 -0.1)">
     <defs>
      <path d="M 275 -789
C 230 -980 205 -1031 -58 -1031
C -134 -1031 -198 -1031 -198 -1152
C -198 -1165 -192 -1216 -122 -1216
C -38 -1216 51 -1216 134 -1216
L 410 -1216
C 544 -1216 870 -1216 1005 -1216
C 1043 -1216 1120 -1216 1120 -1101
C 1120 -1031 1075 -1031 966 -1031
C 672 -1031 653 -987 653 -937
C 653 -861 941 219 979 364
C 1050 185 1222 -64 1555 -64
C 2278 -64 3059 875 3059 1814
C 3059 2401 2726 2816 2246 2816
C 1837 2816 1491 2420 1421 2331
C 1370 2650 1120 2816 864 2816
C 678 2816 531 2727 410 2484
C 294 2254 205 1865 205 1839
C 205 1814 230 1782 275 1782
C 326 1782 333 1788 371 1935
C 467 2312 589 2689 845 2689
C 992 2689 1043 2587 1043 2397
C 1043 2245 1024 2181 998 2067
L 275 -789
z
M 1382 1993
C 1427 2171 1606 2357 1709 2446
C 1779 2510 1990 2689 2234 2689
C 2515 2689 2643 2408 2643 2076
C 2643 1769 2464 1047 2304 715
C 2144 370 1850 64 1555 64
C 1120 64 1050 613 1050 639
C 1050 658 1062 709 1069 741
L 1382 1993
z
" id="CMMI12-70" transform="scale(0.015625)"/>
      <path d="M 2163 811
C 2138 709 2125 683 2042 588
C 1779 249 1510 128 1312 128
C 1101 128 902 294 902 734
C 902 1073 1094 1788 1235 2076
C 1421 2433 1709 2689 1978 2689
C 2400 2689 2483 2165 2483 2127
L 2464 2037
L 2163 811
z
M 2560 2395
C 2477 2580 2298 2816 1978 2816
C 1280 2816 486 1941 486 990
C 486 326 890 0 1299 0
C 1638 0 1939 268 2054 396
L 1914 -171
C 1824 -516 1786 -674 1555 -894
C 1293 -1152 1050 -1152 909 -1152
C 717 -1152 557 -1139 397 -1089
C 602 -1033 653 -858 653 -789
C 653 -689 576 -588 435 -588
C 282 -588 115 -714 115 -922
C 115 -1180 378 -1280 922 -1280
C 1747 -1280 2176 -753 2259 -410
L 2970 2435
C 2989 2511 2989 2524 2989 2536
C 2989 2625 2918 2695 2822 2695
C 2669 2695 2579 2567 2560 2395
z
" id="CMMI12-67" transform="scale(0.015625)"/>
     </defs>
     <use transform="scale(0.996264)" xlink:href="#CMMI12-70"/>
     <use transform="translate(48.959514 -14.943915)scale(0.697382)" xlink:href="#CMMI12-67"/>
    </g>
   </g>
   <g id="text_4">
    <!-- $r_{gz}$ -->
    <g transform="translate(84.352016 29.863158)scale(0.1 -0.1)">
     <defs>
      <path d="M 2490 2612
C 2291 2574 2189 2433 2189 2293
C 2189 2139 2310 2088 2400 2088
C 2579 2088 2726 2242 2726 2433
C 2726 2638 2528 2816 2208 2816
C 1952 2816 1658 2701 1389 2312
C 1344 2650 1088 2816 832 2816
C 582 2816 454 2625 378 2484
C 269 2254 173 1871 173 1839
C 173 1814 198 1782 243 1782
C 294 1782 301 1788 339 1935
C 435 2318 557 2689 813 2689
C 966 2689 1011 2580 1011 2395
C 1011 2254 947 2005 902 1807
L 723 1118
C 698 996 627 709 595 594
C 550 428 480 128 480 96
C 480 6 550 -64 646 -64
C 717 -64 838 -19 877 109
C 896 160 1133 1124 1171 1271
C 1203 1411 1242 1546 1274 1686
C 1299 1775 1325 1878 1344 1961
C 1363 2018 1536 2331 1696 2472
C 1773 2542 1939 2689 2202 2689
C 2304 2689 2406 2670 2490 2612
z
" id="CMMI12-72" transform="scale(0.015625)"/>
      <path d="M 813 486
C 1088 803 1312 1004 1632 1296
C 2016 1632 2182 1793 2272 1891
C 2720 2338 2944 2713 2944 2764
C 2944 2816 2893 2816 2880 2816
C 2835 2816 2822 2793 2790 2750
C 2630 2494 2477 2367 2310 2367
C 2176 2367 2106 2421 1984 2565
C 1850 2715 1741 2816 1555 2816
C 1088 2816 806 2257 806 2128
C 806 2108 813 2068 870 2068
C 922 2068 928 2091 947 2133
C 1056 2372 1363 2414 1485 2414
C 1619 2414 1747 2376 1882 2327
C 2125 2240 2227 2240 2291 2240
C 2336 2240 2362 2240 2394 2246
C 2182 1994 1837 1683 1549 1418
L 902 816
C 512 415 275 33 275 -12
C 275 -51 307 -64 346 -64
C 384 -64 390 -57 435 14
C 538 163 742 384 979 384
C 1114 384 1178 342 1306 193
C 1427 61 1536 -64 1741 -64
C 2368 -64 2726 732 2726 876
C 2726 903 2720 942 2656 942
C 2605 942 2598 917 2579 855
C 2438 488 2061 338 1811 338
C 1677 338 1549 376 1414 425
C 1158 512 1088 512 1005 512
C 941 512 870 512 813 486
z
" id="CMMI12-7a" transform="scale(0.015625)"/>
     </defs>
     <use transform="scale(0.996264)" xlink:href="#CMMI12-72"/>
     <use transform="translate(43.960894 -14.943915)scale(0.697382)" xlink:href="#CMMI12-67"/>
     <use transform="translate(79.160576 -14.943915)scale(0.697382)" xlink:href="#CMMI12-7a"/>
    </g>
   </g>
   <g id="text_5">
    <!-- $s_c$ -->
    <g transform="translate(72.304119 107.147803)scale(0.1 -0.1)">
     <defs>
      <path d="M 1459 1280
C 1568 1261 1741 1223 1779 1216
C 1862 1192 2150 1090 2150 783
C 2150 586 1971 70 1229 70
C 1094 70 614 70 486 436
C 742 404 870 603 870 745
C 870 880 781 950 653 950
C 512 950 326 841 326 552
C 326 173 710 -64 1222 -64
C 2195 -64 2483 651 2483 984
C 2483 1079 2483 1258 2278 1462
C 2118 1616 1965 1648 1619 1718
C 1446 1756 1171 1814 1171 2101
C 1171 2229 1286 2689 1894 2689
C 2163 2689 2426 2589 2490 2368
C 2208 2368 2195 2125 2195 2119
C 2195 1984 2317 1946 2374 1946
C 2464 1946 2643 2015 2643 2281
C 2643 2545 2400 2816 1901 2816
C 1062 2816 838 2160 838 1899
C 838 1414 1312 1312 1459 1280
z
" id="CMMI12-73" transform="scale(0.015625)"/>
      <path d="M 2502 2431
C 2381 2431 2323 2431 2234 2355
C 2195 2323 2125 2227 2125 2125
C 2125 1997 2221 1920 2342 1920
C 2496 1920 2669 2044 2669 2292
C 2669 2588 2374 2816 1933 2816
C 1094 2816 256 1903 256 996
C 256 441 602 -64 1254 -64
C 2125 -64 2675 622 2675 706
C 2675 744 2637 776 2611 776
C 2592 776 2586 770 2528 713
C 2118 162 1510 64 1267 64
C 826 64 685 446 685 764
C 685 988 794 1605 1024 2039
C 1190 2338 1536 2682 1939 2682
C 2022 2682 2374 2682 2502 2431
z
" id="CMMI12-63" transform="scale(0.015625)"/>
     </defs>
     <use transform="scale(0.996264)" xlink:href="#CMMI12-73"/>
     <use transform="translate(45.950048 -14.943915)scale(0.697382)" xlink:href="#CMMI12-63"/>
    </g>
   </g>
   <g id="text_6">
    <!-- $y_{gc}$ -->
    <g transform="translate(118.244257 106.234586)scale(0.1 -0.1)">
     <defs>
      <path d="M 1683 -700
C 1510 -939 1261 -1152 947 -1152
C 870 -1152 563 -1152 467 -889
C 486 -895 518 -895 531 -895
C 723 -895 851 -729 851 -582
C 851 -435 730 -384 634 -384
C 531 -384 307 -458 307 -759
C 307 -1071 582 -1286 947 -1286
C 1587 -1286 2234 -700 2413 6
L 3040 2485
C 3046 2517 3059 2556 3059 2594
C 3059 2689 2982 2753 2886 2753
C 2829 2753 2694 2727 2643 2535
L 2170 658
C 2138 543 2138 530 2086 460
C 1958 281 1747 64 1440 64
C 1082 64 1050 415 1050 588
C 1050 952 1222 1443 1395 1903
C 1466 2088 1504 2178 1504 2305
C 1504 2574 1312 2816 998 2816
C 410 2816 173 1890 173 1839
C 173 1814 198 1782 243 1782
C 301 1782 307 1807 333 1897
C 486 2433 730 2689 979 2689
C 1037 2689 1146 2689 1146 2478
C 1146 2312 1075 2127 979 1884
C 666 1047 666 837 666 683
C 666 77 1101 -64 1421 -64
C 1606 -64 1837 -6 2061 230
L 2067 224
C 1971 -147 1907 -392 1683 -700
z
" id="CMMI12-79" transform="scale(0.015625)"/>
     </defs>
     <use transform="scale(0.996264)" xlink:href="#CMMI12-79"/>
     <use transform="translate(47.564188 -14.943915)scale(0.697382)" xlink:href="#CMMI12-67"/>
     <use transform="translate(82.763869 -14.943915)scale(0.697382)" xlink:href="#CMMI12-63"/>
    </g>
   </g>
  </g>
 </g>
 <defs>
  <clipPath id="p136007df74">
   <rect height="158.4" width="164.16" x="0" y="0"/>
  </clipPath>
 </defs>
</svg>
