<?xml version="1.0" encoding="utf-8" standalone="no"?>
<!DOCTYPE svg PUBLIC "-//W3C//DTD SVG 1.1//EN"
  "http://www.w3.org/Graphics/SVG/1.1/DTD/svg11.dtd">
<!-- Created with matplotlib (https://matplotlib.org/) -->
<svg height="215.28pt" version="1.1" viewBox="0 0 192.24 215.28" width="192.24pt" xmlns="http://www.w3.org/2000/svg" xmlns:xlink="http://www.w3.org/1999/xlink">
 <metadata>
  <rdf:RDF xmlns:cc="http://creativecommons.org/ns#" xmlns:dc="http://purl.org/dc/elements/1.1/" xmlns:rdf="http://www.w3.org/1999/02/22-rdf-syntax-ns#">
   <cc:Work>
    <dc:type rdf:resource="http://purl.org/dc/dcmitype/StillImage"/>
    <dc:date>2021-05-17T15:07:35.396407</dc:date>
    <dc:format>image/svg+xml</dc:format>
    <dc:creator>
     <cc:Agent>
      <dc:title>Matplotlib v3.3.3, https://matplotlib.org/</dc:title>
     </cc:Agent>
    </dc:creator>
   </cc:Work>
  </rdf:RDF>
 </metadata>
 <defs>
  <style type="text/css">*{stroke-linecap:butt;stroke-linejoin:round;}</style>
 </defs>
 <g id="figure_1">
  <g id="patch_1">
   <path d="M 0 215.28
L 192.24 215.28
L 192.24 0
L 0 0
z
" style="fill:#ffffff;"/>
  </g>
  <g id="axes_1">
   <g id="patch_2">
    <path clip-path="url(#p2d78210fb8)" d="M 118.736471 181.288421
L 175.277647 181.288421
L 175.277647 62.317895
L 118.736471 62.317895
z
" style="fill:none;stroke:#000000;stroke-linejoin:miter;"/>
   </g>
   <g id="patch_3">
    <path clip-path="url(#p2d78210fb8)" d="M 33.924706 181.288421
L 90.465882 181.288421
L 90.465882 118.970526
L 33.924706 118.970526
z
" style="fill:none;stroke:#000000;stroke-linejoin:miter;"/>
   </g>
   <g id="patch_4">
    <path clip-path="url(#p2d78210fb8)" d="M 5.654118 209.614737
L 186.585882 209.614737
L 186.585882 5.665263
L 5.654118 5.665263
z
" style="fill:none;stroke:#000000;stroke-linejoin:miter;"/>
   </g>
   <g id="patch_5">
    <path clip-path="url(#p2d78210fb8)" d="M 147.007059 133.133684
L 145.593529 126.052105
L 147.007059 126.052105
L 147.007059 104.807368
L 147.007059 104.807368
L 147.007059 126.052105
L 148.420588 126.052105
z
" style="stroke:#000000;stroke-linejoin:miter;"/>
   </g>
   <g id="patch_6">
    <path clip-path="url(#p2d78210fb8)" d="M 136.340488 138.003279
L 130.079674 134.425258
L 131.007202 133.356498
L 92.651277 99.937773
L 92.651277 99.937773
L 131.007202 133.356498
L 131.93473 132.287738
z
" style="stroke:#000000;stroke-linejoin:miter;"/>
   </g>
   <g id="patch_7">
    <path clip-path="url(#p2d78210fb8)" d="M 66.864895 133.928827
L 67.865523 126.776939
L 69.199695 127.24482
L 77.315105 104.012225
L 77.315105 104.012225
L 69.199695 127.24482
L 70.533866 127.7127
z
" style="stroke:#000000;stroke-linejoin:miter;"/>
   </g>
   <g id="patch_8">
    <path clip-path="url(#p2d78210fb8)" d="M 55.873798 134.628929
L 51.448751 128.928367
L 52.713051 128.294972
L 40.246202 103.312124
L 40.246202 103.312124
L 52.713051 128.294972
L 53.97735 127.661576
z
" style="stroke:#000000;stroke-linejoin:miter;"/>
   </g>
   <g id="patch_9">
    <path clip-path="url(#p2d78210fb8)" d="M 40.246202 77.976297
L 42.14265 71.008945
L 43.406949 71.64234
L 55.873798 46.659492
L 55.873798 46.659492
L 43.406949 71.64234
L 44.671249 72.275736
z
" style="stroke:#000000;stroke-linejoin:miter;"/>
   </g>
   <g id="patch_10">
    <path clip-path="url(#p2d78210fb8)" d="M 135.245783 82.787904
L 128.58106 80.038197
L 129.365145 78.859751
L 73.95657 41.847885
L 73.95657 41.847885
L 129.365145 78.859751
L 130.14923 77.681305
z
" style="stroke:#000000;stroke-linejoin:miter;"/>
   </g>
   <g id="patch_11">
    <path clip-path="url(#p2d78210fb8)" d="M 62.195294 133.133684
L 60.781765 126.052105
L 62.195294 126.052105
L 62.195294 48.154737
L 62.195294 48.154737
L 62.195294 126.052105
L 63.608824 126.052105
z
" style="stroke:#000000;stroke-linejoin:miter;"/>
   </g>
   <g id="patch_12">
    <path clip-path="url(#p2d78210fb8)" d="M 138.525882 135.966316
L 133.154471 131.150842
L 134.285294 130.301053
L 70.676471 45.322105
L 70.676471 45.322105
L 134.285294 130.301053
L 135.416118 129.451263
z
" style="stroke:#000000;stroke-linejoin:miter;"/>
   </g>
   <g id="patch_13">
    <path clip-path="url(#p2d78210fb8)" d="M 33.924706 104.807368
C 37.67343 104.807368 41.26912 103.315049 43.919868 100.659076
C 46.570616 98.003102 48.06 94.400324 48.06 90.644211
C 48.06 86.888097 46.570616 83.285319 43.919868 80.629346
C 41.26912 77.973372 37.67343 76.481053 33.924706 76.481053
C 30.175982 76.481053 26.580292 77.973372 23.929544 80.629346
C 21.278796 83.285319 19.789412 86.888097 19.789412 90.644211
C 19.789412 94.400324 21.278796 98.003102 23.929544 100.659076
C 26.580292 103.315049 30.175982 104.807368 33.924706 104.807368
z
" style="fill:none;stroke:#000000;stroke-linejoin:miter;"/>
   </g>
   <g id="patch_14">
    <path clip-path="url(#p2d78210fb8)" d="M 81.984706 104.807368
C 85.73343 104.807368 89.32912 103.315049 91.979868 100.659076
C 94.630616 98.003102 96.12 94.400324 96.12 90.644211
C 96.12 86.888097 94.630616 83.285319 91.979868 80.629346
C 89.32912 77.973372 85.73343 76.481053 81.984706 76.481053
C 78.235982 76.481053 74.640292 77.973372 71.989544 80.629346
C 69.338796 83.285319 67.849412 86.888097 67.849412 90.644211
C 67.849412 94.400324 69.338796 98.003102 71.989544 100.659076
C 74.640292 103.315049 78.235982 104.807368 81.984706 104.807368
z
" style="fill:none;stroke:#000000;stroke-linejoin:miter;"/>
   </g>
   <g id="patch_15">
    <path clip-path="url(#p2d78210fb8)" d="M 147.007059 104.807368
C 150.755783 104.807368 154.351473 103.315049 157.002221 100.659076
C 159.652969 98.003102 161.142353 94.400324 161.142353 90.644211
C 161.142353 86.888097 159.652969 83.285319 157.002221 80.629346
C 154.351473 77.973372 150.755783 76.481053 147.007059 76.481053
C 143.258335 76.481053 139.662645 77.973372 137.011896 80.629346
C 134.361148 83.285319 132.871765 86.888097 132.871765 90.644211
C 132.871765 94.400324 134.361148 98.003102 137.011896 100.659076
C 139.662645 103.315049 143.258335 104.807368 147.007059 104.807368
z
" style="fill:none;stroke:#000000;stroke-linejoin:miter;"/>
   </g>
   <g id="patch_16">
    <path clip-path="url(#p2d78210fb8)" d="M 62.195294 48.154737
C 65.944018 48.154737 69.539708 46.662417 72.190456 44.006444
C 74.841204 41.350471 76.330588 37.747692 76.330588 33.991579
C 76.330588 30.235466 74.841204 26.632687 72.190456 23.976714
C 69.539708 21.320741 65.944018 19.828421 62.195294 19.828421
C 58.44657 19.828421 54.85088 21.320741 52.200132 23.976714
C 49.549384 26.632687 48.06 30.235466 48.06 33.991579
C 48.06 37.747692 49.549384 41.350471 52.200132 44.006444
C 54.85088 46.662417 58.44657 48.154737 62.195294 48.154737
z
" style="fill:#b2b2b2;stroke:#000000;stroke-linejoin:miter;"/>
   </g>
   <g id="patch_17">
    <path clip-path="url(#p2d78210fb8)" d="M 62.195294 48.154737
C 65.944018 48.154737 69.539708 46.662417 72.190456 44.006444
C 74.841204 41.350471 76.330588 37.747692 76.330588 33.991579
C 76.330588 30.235466 74.841204 26.632687 72.190456 23.976714
C 69.539708 21.320741 65.944018 19.828421 62.195294 19.828421
C 58.44657 19.828421 54.85088 21.320741 52.200132 23.976714
C 49.549384 26.632687 48.06 30.235466 48.06 33.991579
C 48.06 37.747692 49.549384 41.350471 52.200132 44.006444
C 54.85088 46.662417 58.44657 48.154737 62.195294 48.154737
z
" style="fill:none;stroke:#000000;stroke-linejoin:miter;"/>
   </g>
   <g id="patch_18">
    <path clip-path="url(#p2d78210fb8)" d="M 147.007059 161.46
C 150.755783 161.46 154.351473 159.96768 157.002221 157.311707
C 159.652969 154.655734 161.142353 151.052955 161.142353 147.296842
C 161.142353 143.540729 159.652969 139.93795 157.002221 137.281977
C 154.351473 134.626004 150.755783 133.133684 147.007059 133.133684
C 143.258335 133.133684 139.662645 134.626004 137.011896 137.281977
C 134.361148 139.93795 132.871765 143.540729 132.871765 147.296842
C 132.871765 151.052955 134.361148 154.655734 137.011896 157.311707
C 139.662645 159.96768 143.258335 161.46 147.007059 161.46
z
" style="fill:#b2b2b2;stroke:#000000;stroke-linejoin:miter;"/>
   </g>
   <g id="patch_19">
    <path clip-path="url(#p2d78210fb8)" d="M 147.007059 161.46
C 150.755783 161.46 154.351473 159.96768 157.002221 157.311707
C 159.652969 154.655734 161.142353 151.052955 161.142353 147.296842
C 161.142353 143.540729 159.652969 139.93795 157.002221 137.281977
C 154.351473 134.626004 150.755783 133.133684 147.007059 133.133684
C 143.258335 133.133684 139.662645 134.626004 137.011896 137.281977
C 134.361148 139.93795 132.871765 143.540729 132.871765 147.296842
C 132.871765 151.052955 134.361148 154.655734 137.011896 157.311707
C 139.662645 159.96768 143.258335 161.46 147.007059 161.46
z
" style="fill:none;stroke:#000000;stroke-linejoin:miter;"/>
   </g>
   <g id="patch_20">
    <path clip-path="url(#p2d78210fb8)" d="M 62.195294 161.46
C 65.944018 161.46 69.539708 159.96768 72.190456 157.311707
C 74.841204 154.655734 76.330588 151.052955 76.330588 147.296842
C 76.330588 143.540729 74.841204 139.93795 72.190456 137.281977
C 69.539708 134.626004 65.944018 133.133684 62.195294 133.133684
C 58.44657 133.133684 54.85088 134.626004 52.200132 137.281977
C 49.549384 139.93795 48.06 143.540729 48.06 147.296842
C 48.06 151.052955 49.549384 154.655734 52.200132 157.311707
C 54.85088 159.96768 58.44657 161.46 62.195294 161.46
z
" style="fill:#b2b2b2;stroke:#000000;stroke-linejoin:miter;"/>
   </g>
   <g id="patch_21">
    <path clip-path="url(#p2d78210fb8)" d="M 62.195294 161.46
C 65.944018 161.46 69.539708 159.96768 72.190456 157.311707
C 74.841204 154.655734 76.330588 151.052955 76.330588 147.296842
C 76.330588 143.540729 74.841204 139.93795 72.190456 137.281977
C 69.539708 134.626004 65.944018 133.133684 62.195294 133.133684
C 58.44657 133.133684 54.85088 134.626004 52.200132 137.281977
C 49.549384 139.93795 48.06 143.540729 48.06 147.296842
C 48.06 151.052955 49.549384 154.655734 52.200132 157.311707
C 54.85088 159.96768 58.44657 161.46 62.195294 161.46
z
" style="fill:none;stroke:#000000;stroke-linejoin:miter;"/>
   </g>
   <g id="matplotlib.axis_1"/>
   <g id="matplotlib.axis_2"/>
   <g id="text_1">
    <!-- Proteins $T$ -->
    <g transform="translate(123.736471 174.351243)scale(0.1 -0.1)">
     <defs>
      <path d="M 19.796875 31.90625
L 35.796875 31.90625
C 48.703125 31.90625 58.09375 40.28125 58.09375 49.75
C 58.09375 59.234375 48.90625 68 35.796875 68
L 5.203125 68
L 5.203125 65.40625
C 12.09375 65.40625 13.203125 65.40625 13.203125 60.921875
L 13.203125 6.96875
C 13.203125 2.5 12.09375 2.5 5.203125 2.5
L 5.203125 0
C 8.09375 0 13.40625 0 16.5 0
C 19.59375 0 24.90625 0 27.796875 0
L 27.796875 2.5
C 20.90625 2.5 19.796875 2.5 19.796875 6.96875
z
M 19.59375 34
L 19.59375 61.53125
C 19.59375 64.921875 19.796875 65.40625 23.796875 65.40625
L 33.90625 65.40625
C 46.796875 65.40625 50.5 58.03125 50.5 49.75
C 50.5 40.6875 46.09375 34 33.90625 34
z
" id="CMR17-80"/>
      <path d="M 15 23.390625
C 15 33 19.09375 42 26.59375 42
C 27.296875 42 28 41.90625 28.703125 41.59375
C 28.703125 41.59375 26.5 40.890625 26.5 38.3125
C 26.5 35.90625 28.40625 34.90625 29.90625 34.90625
C 31.09375 34.90625 33.296875 35.609375 33.296875 38.40625
C 33.296875 41.609375 30.09375 43.59375 26.703125 43.59375
C 19.09375 43.59375 15.796875 36.203125 14.796875 32.703125
L 14.703125 32.703125
L 14.703125 43.59375
L 3.09375 42.5
L 3.09375 39.90625
C 9 39.90625 9.90625 39.296875 9.90625 34.5
L 9.90625 6.6875
C 9.90625 2.875 9.5 2.390625 3.09375 2.390625
L 3.09375 -0.203125
C 5.5 0 10.09375 0 12.703125 0
C 15.59375 0 20.703125 0 23.40625 -0.203125
L 23.40625 2.390625
C 16.203125 2.390625 15 2.390625 15 6.875
z
" id="CMR17-114"/>
      <path d="M 43.09375 21.1875
C 43.09375 34 33.796875 44 22.90625 44
C 12 44 2.703125 34 2.703125 21.1875
C 2.703125 8.609375 12 -1 22.90625 -1
C 33.796875 -1 43.09375 8.609375 43.09375 21.1875
z
M 22.90625 0.796875
C 18.203125 0.796875 14.203125 3.59375 11.90625 7.5
C 9.40625 11.984375 9.09375 17.59375 9.09375 22
C 9.09375 26.203125 9.296875 31.40625 11.90625 35.90625
C 13.90625 39.203125 17.796875 42.40625 22.90625 42.40625
C 27.40625 42.40625 31.203125 39.90625 33.59375 36.40625
C 36.703125 31.703125 36.703125 25.109375 36.703125 22
C 36.703125 18.09375 36.5 12.109375 33.796875 7.296875
C 31 2.703125 26.703125 0.796875 22.90625 0.796875
z
" id="CMR17-111"/>
      <path d="M 15.09375 40
L 29.09375 40
L 29.09375 42.578125
L 15.09375 42.578125
L 15.09375 61
L 13.296875 61
C 13.09375 50.703125 9.59375 41.6875 1.09375 41.6875
L 1.09375 40
L 9.796875 40
L 9.796875 12.046875
C 9.796875 10.15625 9.796875 -1 21.40625 -1
C 27.296875 -1 30.703125 4.78125 30.703125 12.140625
L 30.703125 17.8125
L 28.90625 17.8125
L 28.90625 12.234375
C 28.90625 5.375 26.203125 0.796875 22 0.796875
C 19.09375 0.796875 15.09375 2.78125 15.09375 11.84375
z
" id="CMR17-116"/>
      <path d="M 38.09375 23
C 38.5 23.40625 38.5 23.609375 38.5 24.625
C 38.5 34.96875 33.09375 44 21.703125 44
C 11.09375 44 2.703125 33.890625 2.703125 21.609375
C 2.703125 8.609375 12.203125 -1 22.796875 -1
C 34 -1 38.40625 9.484375 38.40625 11.5625
C 38.40625 12.25 37.796875 12.25 37.59375 12.25
C 36.90625 12.25 36.796875 12.046875 36.40625 10.875
C 34.203125 4.140625 28.703125 0.796875 23.5 0.796875
C 19.203125 0.796875 14.90625 3.171875 12.203125 7.5
C 9.09375 12.546875 9.09375 18.375 9.09375 23
z
M 9.203125 24.5
C 9.90625 39.140625 17.59375 42.40625 21.59375 42.40625
C 28.40625 42.40625 33 35.890625 33.09375 24.5
z
" id="CMR17-101"/>
      <path d="M 15.5 61.078125
C 15.5 63.265625 13.703125 65.15625 11.40625 65.15625
C 9.203125 65.15625 7.296875 63.375 7.296875 61.078125
C 7.296875 58.890625 9.09375 57 11.40625 57
C 13.59375 57 15.5 58.796875 15.5 61.078125
z
M 3.796875 42.28125
L 3.796875 39.703125
C 9.40625 39.703125 10.203125 39.09375 10.203125 34.328125
L 10.203125 6.671875
C 10.203125 2.875 9.796875 2.390625 3.40625 2.390625
L 3.40625 -0.203125
C 5.796875 0 10.09375 0 12.59375 0
C 15 0 19.09375 0 21.40625 -0.203125
L 21.40625 2.390625
C 15.5 2.390625 15.296875 2.984375 15.296875 6.5625
L 15.296875 43.375
z
" id="CMR17-105"/>
      <path d="M 41.5 30.203125
C 41.5 35.296875 40.5 43.59375 28.703125 43.59375
C 20.796875 43.59375 16.703125 37.5 15.203125 33.5
L 15.09375 33.5
L 15.09375 43.59375
L 3.296875 42.5
L 3.296875 39.90625
C 9.203125 39.90625 10.09375 39.296875 10.09375 34.5
L 10.09375 6.6875
C 10.09375 2.875 9.703125 2.390625 3.296875 2.390625
L 3.296875 -0.203125
C 5.703125 0 10.09375 0 12.703125 0
C 15.296875 0 19.796875 0 22.203125 -0.203125
L 22.203125 2.390625
C 15.796875 2.390625 15.40625 2.78125 15.40625 6.6875
L 15.40625 25.90625
C 15.40625 35.109375 21 42 28 42
C 35.40625 42 36.203125 35.40625 36.203125 30.59375
L 36.203125 6.6875
C 36.203125 2.875 35.796875 2.390625 29.40625 2.390625
L 29.40625 -0.203125
C 31.796875 0 36.203125 0 38.796875 0
C 41.40625 0 45.90625 0 48.296875 -0.203125
L 48.296875 2.390625
C 41.90625 2.390625 41.5 2.78125 41.5 6.6875
z
" id="CMR17-110"/>
      <path d="M 30.90625 42.140625
C 30.90625 43.953125 30.796875 44.046875 30.203125 44.046875
C 29.796875 44.046875 29.703125 43.953125 28.5 42.453125
C 28.203125 42.046875 27.296875 41.03125 27 40.640625
C 23.796875 44.046875 19.296875 44.046875 17.59375 44.046875
C 6.5 44.046875 2.5 38.234375 2.5 32.4375
C 2.5 23.40625 12.703125 21.328125 15.59375 20.703125
C 21.90625 19.421875 24.09375 19.015625 26.203125 17.203125
C 27.5 16.015625 29.703125 13.8125 29.703125 10.21875
C 29.703125 6 27.296875 0.59375 18.09375 0.59375
C 9.40625 0.59375 6.296875 7.1875 4.5 15.953125
C 4.203125 17.34375 4.203125 17.453125 3.40625 17.453125
C 2.59375 17.453125 2.5 17.34375 2.5 15.359375
L 2.5 0.984375
C 2.5 -0.796875 2.59375 -0.90625 3.203125 -0.90625
C 3.703125 -0.90625 3.796875 -0.796875 4.296875 0
C 4.90625 0.890625 6.40625 3.296875 7 4.3125
C 9 1.609375 12.5 -1 18.09375 -1
C 28 -1 33.296875 4.421875 33.296875 12.25
C 33.296875 17.375 30.59375 20.078125 29.296875 21.28125
C 26.296875 24.390625 22.796875 25.09375 18.59375 25.890625
C 13.09375 27.109375 6.09375 28.515625 6.09375 34.640625
C 6.09375 37.234375 7.5 42.765625 17.59375 42.765625
C 28.296875 42.765625 28.90625 32.71875 29.09375 29.5
C 29.203125 29 29.703125 28.890625 30 28.890625
C 30.90625 28.890625 30.90625 29.203125 30.90625 30.90625
z
" id="CMR17-115"/>
      <path d="M 41.703125 61.09375
C 42.296875 63.5 42.5 64.390625 44 64.796875
C 44.796875 65 48.09375 65 50.203125 65
C 60.203125 65 64.90625 64.59375 64.90625 56.78125
C 64.90625 55.265625 64.5 51.484375 63.90625 47.765625
L 63.796875 46.5625
C 63.796875 46.15625 64.203125 45.5625 64.796875 45.5625
C 65.796875 45.5625 65.796875 46.0625 66.09375 47.65625
L 69 65.375
C 69.203125 66.296875 69.203125 66.5 69.203125 66.796875
C 69.203125 67.890625 68.59375 67.890625 66.59375 67.890625
L 11.90625 67.890625
C 9.59375 67.890625 9.5 67.796875 8.90625 66
L 2.796875 47.96875
C 2.703125 47.75 2.40625 46.65625 2.40625 46.5625
C 2.40625 46.0625 2.796875 45.5625 3.40625 45.5625
C 4.203125 45.5625 4.40625 45.953125 4.796875 47.25
C 9 59.390625 11.09375 65 24.40625 65
L 31.09375 65
C 33.5 65 34.5 65 34.5 63.890625
C 34.5 63.578125 34.5 63.390625 34 61.578125
L 20.59375 7.796875
C 19.59375 3.890625 19.40625 2.890625 8.796875 2.890625
C 6.296875 2.890625 5.59375 2.890625 5.59375 1
C 5.59375 0 6.703125 0 7.203125 0
C 9.703125 0 12.296875 0 14.796875 0
L 30.40625 0
C 32.90625 0 35.59375 0 38.09375 0
C 39.203125 0 40.203125 0 40.203125 1.890625
C 40.203125 2.890625 39.5 2.890625 36.90625 2.890625
C 27.90625 2.890625 27.90625 3.796875 27.90625 5.296875
C 27.90625 5.40625 27.90625 6.109375 28.296875 7.71875
z
" id="CMMI12-84"/>
     </defs>
     <use transform="scale(0.996264)" xlink:href="#CMR17-80"/>
     <use transform="translate(62.586301 0)scale(0.996264)" xlink:href="#CMR17-114"/>
     <use transform="translate(97.867068 0)scale(0.996264)" xlink:href="#CMR17-111"/>
     <use transform="translate(143.557545 0)scale(0.996264)" xlink:href="#CMR17-116"/>
     <use transform="translate(178.838313 0)scale(0.996264)" xlink:href="#CMR17-101"/>
     <use transform="translate(219.323974 0)scale(0.996264)" xlink:href="#CMR17-105"/>
     <use transform="translate(244.195032 0)scale(0.996264)" xlink:href="#CMR17-110"/>
     <use transform="translate(295.090402 0)scale(0.996264)" xlink:href="#CMR17-115"/>
     <use transform="translate(360.967706 0)scale(0.996264)" xlink:href="#CMMI12-84"/>
    </g>
   </g>
   <g id="text_2">
    <!-- Genes $G$ -->
    <g transform="translate(38.924706 174.351243)scale(0.1 -0.1)">
     <defs>
      <path d="M 62.09375 19.265625
C 62.09375 23.015625 62.40625 23.515625 68.59375 23.515625
L 68.59375 26.09375
C 66.203125 26 60.796875 26 58.09375 26
C 55.296875 26 47.5 26 43.703125 26
L 43.703125 23.515625
L 46.703125 23.515625
C 55.296875 23.515625 55.5 22.40625 55.5 18.765625
L 55.5 12.09375
C 55.5 0.984375 42.5 0.984375 39.40625 0.984375
C 29.09375 0.984375 12.203125 7.984375 12.203125 33.75
C 12.203125 59.5 28.796875 66.40625 38.5 66.40625
C 49.796875 66.40625 58 56.65625 59.90625 42.828125
C 60.09375 41.625 60.09375 41.421875 61 41.421875
C 62.09375 41.421875 62.09375 41.625 62.09375 43.421875
L 62.09375 67
C 62.09375 68.78125 62 68.890625 61.40625 68.890625
C 61 68.890625 60.90625 68.78125 60.203125 67.59375
L 55.796875 59.234375
C 50.90625 65.421875 44.90625 69 37.203125 69
C 20.09375 69 4.59375 54 4.59375 33.5625
C 4.59375 13.203125 19.796875 -2 37.40625 -2
C 45.5 -2 53.40625 0.875 56.5 6.515625
C 58.203125 2.46875 61 -0.3125 61.5 -0.3125
C 62 -0.3125 62.09375 -0.203125 62.09375 1.5625
z
" id="CMR17-71"/>
      <path d="M 74.59375 69.109375
C 74.59375 70 73.90625 70 73.703125 70
C 73.5 70 73.09375 70 72.296875 69
L 65.40625 60.765625
C 64.90625 61.5625 62.90625 65.046875 59 67.328125
C 54.703125 70 50.40625 70 48.90625 70
C 27.5 70 5 48.359375 5 24.921875
C 5 8.53125 16.40625 -2 31.40625 -2
C 38.59375 -2 47.703125 0.390625 52.703125 6.671875
C 53.796875 2.890625 56 0.1875 56.703125 0.1875
C 57.203125 0.1875 57.296875 0.5 57.40625 0.5
C 57.5 0.6875 58.296875 4.21875 58.796875 6.015625
L 60.40625 12.453125
C 61.203125 15.765625 61.59375 17.171875 62.296875 20.171875
C 63.296875 24 63.5 24 69 24
C 69.40625 24 70.59375 24 70.59375 26.03125
C 70.59375 27.09375 69.59375 27.09375 69.296875 27.09375
C 67.59375 27.09375 65.703125 27.09375 63.90625 27.09375
L 58.5 27.09375
C 54.296875 27.09375 49.90625 27.09375 45.796875 27.09375
C 44.90625 27.09375 43.703125 27.09375 43.703125 25.171875
C 43.703125 24.09375 44.5 24.09375 44.5 24
L 47 24
C 54.90625 24 54.90625 23.265625 54.90625 21.90625
C 54.90625 21.796875 53 11.734375 51.09375 8.765625
C 47.296875 3.1875 39.40625 0.890625 33.5 0.890625
C 25.796875 0.890625 13.296875 4.875 13.296875 22.03125
C 13.296875 28.6875 15.703125 43.875 25.40625 55.09375
C 31.703125 62.25 41 67.109375 49.796875 67.109375
C 61.59375 67.109375 65.796875 57.109375 65.796875 47.984375
C 65.796875 46.40625 65.40625 44.234375 65.40625 42.84375
C 65.40625 41.953125 66.40625 41.953125 66.703125 41.953125
C 67.796875 41.953125 67.90625 42.046875 68.296875 43.828125
z
" id="CMMI12-71"/>
     </defs>
     <use transform="scale(0.996264)" xlink:href="#CMR17-71"/>
     <use transform="translate(72.355346 0)scale(0.996264)" xlink:href="#CMR17-101"/>
     <use transform="translate(112.841006 0)scale(0.996264)" xlink:href="#CMR17-110"/>
     <use transform="translate(163.736376 0)scale(0.996264)" xlink:href="#CMR17-101"/>
     <use transform="translate(204.222037 0)scale(0.996264)" xlink:href="#CMR17-115"/>
     <use transform="translate(270.099341 0)scale(0.996264)" xlink:href="#CMMI12-71"/>
    </g>
   </g>
   <g id="text_3">
    <!-- Cells $N$ -->
    <g transform="translate(10.654118 202.677559)scale(0.1 -0.1)">
     <defs>
      <path d="M 62.09375 67.015625
C 62.09375 68.796875 62 68.90625 61.40625 68.90625
C 61 68.90625 60.90625 68.796875 60.203125 67.609375
L 55.796875 59.25
C 50.90625 65.421875 44.90625 69 37.203125 69
C 20.09375 69 4.59375 54 4.59375 33.5625
C 4.59375 12.90625 20.09375 -2 37.296875 -2
C 52.59375 -2 62.09375 11.40625 62.09375 22.828125
C 62.09375 23.8125 62.09375 24.21875 61.203125 24.21875
C 60.40625 24.21875 60.40625 23.921875 60.296875 23.03125
C 59.5 9.140625 49.5 0.59375 38.703125 0.59375
C 28.5 0.59375 12.203125 7.734375 12.203125 33.546875
C 12.203125 59.453125 28.796875 66.40625 38.5 66.40625
C 49.796875 66.40625 58 56.6875 59.90625 42.890625
C 60.09375 41.6875 60.09375 41.484375 61 41.484375
C 62.09375 41.484375 62.09375 41.6875 62.09375 43.484375
z
" id="CMR17-67"/>
      <path d="M 15.296875 68.6875
L 3.40625 67.59375
L 3.40625 65
C 9.296875 65 10.203125 64.40625 10.203125 59.640625
L 10.203125 6.65625
C 10.203125 2.875 9.796875 2.390625 3.40625 2.390625
L 3.40625 -0.203125
C 5.796875 0 10.203125 0 12.703125 0
C 15.296875 0 19.703125 0 22.09375 -0.203125
L 22.09375 2.390625
C 15.703125 2.390625 15.296875 2.78125 15.296875 6.65625
z
" id="CMR17-108"/>
      <path d="M 74 57.78125
C 75.09375 62.09375 76.703125 65.09375 84.296875 65.09375
C 84.59375 65.09375 85.796875 65.09375 85.796875 66.859375
C 85.796875 68 84.90625 68 84.5 68
C 82.5 68 77.40625 68 75.40625 68
L 70.59375 68
C 69.203125 68 67.40625 68 66 68
C 65.40625 68 64.203125 68 64.203125 66.09375
C 64.203125 65.09375 65 65.09375 65.703125 65.09375
C 71.703125 65.09375 72.09375 62.796875 72.09375 60.984375
C 72.09375 60.09375 72 59.78125 71.703125 58.390625
L 60.40625 13.28125
L 39 66.390625
C 38.296875 68 38.203125 68 36 68
L 23.796875 68
C 21.796875 68 20.90625 68 20.90625 66.09375
C 20.90625 65.09375 21.59375 65.09375 23.5 65.09375
C 24 65.09375 29.90625 65.09375 29.90625 64.296875
C 29.90625 64.09375 29.703125 63.296875 29.59375 63
L 16.296875 9.921875
C 15.09375 5 12.703125 2.90625 6.09375 2.90625
C 5.59375 2.90625 4.59375 2.90625 4.59375 1.046875
C 4.59375 0 5.59375 0 5.90625 0
C 7.90625 0 13 0 15 0
L 19.796875 0
C 21.203125 0 22.90625 0 24.296875 0
C 25 0 26.09375 0 26.09375 1.90625
C 26.09375 2.8125 25.09375 2.90625 24.703125 2.90625
C 21.40625 2.90625 18.203125 3.5 18.203125 7.09375
C 18.203125 7.890625 18.40625 8.78125 18.59375 9.578125
L 32.09375 63
C 32.703125 62 32.703125 61.8125 33.09375 60.90625
L 56.90625 1.796875
C 57.40625 0.59375 57.59375 0 58.5 0
C 59.5 0 59.59375 0.296875 60 2
z
" id="CMMI12-78"/>
     </defs>
     <use transform="scale(0.996264)" xlink:href="#CMR17-67"/>
     <use transform="translate(66.509881 0)scale(0.996264)" xlink:href="#CMR17-101"/>
     <use transform="translate(106.995541 0)scale(0.996264)" xlink:href="#CMR17-108"/>
     <use transform="translate(131.866599 0)scale(0.996264)" xlink:href="#CMR17-108"/>
     <use transform="translate(156.737658 0)scale(0.996264)" xlink:href="#CMR17-115"/>
     <use transform="translate(222.614962 0)scale(0.996264)" xlink:href="#CMMI12-78"/>
    </g>
   </g>
   <g id="text_4">
    <!-- $l_n$ -->
    <g transform="translate(29.975952 93.134871)scale(0.1 -0.1)">
     <defs>
      <path d="M 25.40625 66.515625
C 25.5 66.90625 25.703125 67.5 25.703125 68
C 25.703125 69 24.703125 69 24.5 69
C 24.40625 69 20.796875 68.640625 19 68.390625
C 17.296875 68.390625 15.796875 68.09375 14 68.09375
C 11.59375 67.890625 10.90625 67.796875 10.90625 66
C 10.90625 65 11.90625 65 12.90625 65
C 18 65 18 64.09375 18 63.109375
C 18 62.71875 18 62.515625 17.5 60.734375
L 5.09375 11.421875
C 4.796875 10.328125 4.59375 9.53125 4.59375 7.953125
C 4.59375 2.984375 8.296875 -1 13.40625 -1
C 16.703125 -1 18.90625 1.1875 20.5 4.28125
C 22.203125 7.546875 23.59375 13.8125 23.59375 14.203125
C 23.59375 14.703125 23.203125 15.109375 22.59375 15.109375
C 21.703125 15.109375 21.59375 14.609375 21.203125 13.125
C 19.40625 6.265625 17.59375 1 13.59375 1
C 10.59375 1 10.59375 4.171875 10.59375 5.578125
C 10.59375 5.96875 10.59375 8.046875 11.296875 10.84375
z
" id="CMMI12-108"/>
      <path d="M 20.59375 29.234375
C 20.796875 29.84375 23.296875 34.828125 27 38.015625
C 29.59375 40.40625 33 42.015625 36.90625 42.015625
C 40.90625 42.015625 42.296875 39.015625 42.296875 35.03125
C 42.296875 29.34375 38.203125 17.96875 36.203125 12.578125
C 35.296875 10.171875 34.796875 8.875 34.796875 7.078125
C 34.796875 2.59375 37.90625 -1 42.703125 -1
C 52 -1 55.5 13.671875 55.5 14.265625
C 55.5 14.765625 55.09375 15.171875 54.5 15.171875
C 53.59375 15.171875 53.5 14.875 53 13.171875
C 50.703125 4.984375 46.90625 1 43 1
C 42 1 40.40625 1 40.40625 4.203125
C 40.40625 6.703125 41.5 9.703125 42.09375 11.09375
C 44.09375 16.609375 48.296875 27.8125 48.296875 33.515625
C 48.296875 39.5 44.796875 44 37.203125 44
C 28.296875 44 23.59375 37.734375 21.796875 35.234375
C 21.5 40.90625 17.40625 44 13 44
C 9.796875 44 7.59375 42.109375 5.90625 38.71875
C 4.09375 35.125 2.703125 29.140625 2.703125 28.734375
C 2.703125 28.34375 3.09375 27.84375 3.796875 27.84375
C 4.59375 27.84375 4.703125 27.9375 5.296875 30.234375
C 6.90625 36.328125 8.703125 42.015625 12.703125 42.015625
C 15 42.015625 15.796875 40.40625 15.796875 37.421875
C 15.796875 35.21875 14.796875 31.328125 14.09375 28.234375
L 11.296875 17.46875
C 10.90625 15.5625 9.796875 11.078125 9.296875 9.28125
C 8.59375 6.6875 7.5 2 7.5 1.5
C 7.5 0.09375 8.59375 -1 10.09375 -1
C 11.296875 -1 12.703125 -0.40625 13.5 1.09375
C 13.703125 1.59375 14.59375 5.09375 15.09375 7.078125
L 17.296875 16.0625
z
" id="CMMI12-110"/>
     </defs>
     <use transform="scale(0.996264)" xlink:href="#CMMI12-108"/>
     <use transform="translate(29.057447 -14.943915)scale(0.697382)" xlink:href="#CMMI12-110"/>
    </g>
   </g>
   <g id="text_5">
    <!-- $z_n$ -->
    <g transform="translate(77.205714 93.134871)scale(0.1 -0.1)">
     <defs>
      <path d="M 12.703125 7.59375
C 17 12.546875 20.5 15.6875 25.5 20.25
C 31.5 25.5 34.09375 28.015625 35.5 29.546875
C 42.5 36.53125 46 42.390625 46 43.1875
C 46 44 45.203125 44 45 44
C 44.296875 44 44.09375 43.640625 43.59375 42.96875
C 41.09375 38.96875 38.703125 36.984375 36.09375 36.984375
C 34 36.984375 32.90625 37.828125 31 40.078125
C 28.90625 42.421875 27.203125 44 24.296875 44
C 17 44 12.59375 35.265625 12.59375 33.25
C 12.59375 32.9375 12.703125 32.3125 13.59375 32.3125
C 14.40625 32.3125 14.5 32.671875 14.796875 33.328125
C 16.5 37.0625 21.296875 37.71875 23.203125 37.71875
C 25.296875 37.71875 27.296875 37.125 29.40625 36.359375
C 33.203125 35 34.796875 35 35.796875 35
C 36.5 35 36.90625 35 37.40625 35.09375
C 34.09375 31.15625 28.703125 26.296875 24.203125 22.15625
L 14.09375 12.75
C 8 6.484375 4.296875 0.515625 4.296875 -0.1875
C 4.296875 -0.796875 4.796875 -1 5.40625 -1
C 6 -1 6.09375 -0.890625 6.796875 0.21875
C 8.40625 2.546875 11.59375 6 15.296875 6
C 17.40625 6 18.40625 5.34375 20.40625 3.015625
C 22.296875 0.953125 24 -1 27.203125 -1
C 37 -1 42.59375 11.4375 42.59375 13.6875
C 42.59375 14.109375 42.5 14.71875 41.5 14.71875
C 40.703125 14.71875 40.59375 14.328125 40.296875 13.359375
C 38.09375 7.625 32.203125 5.28125 28.296875 5.28125
C 26.203125 5.28125 24.203125 5.875 22.09375 6.640625
C 18.09375 8 17 8 15.703125 8
C 14.703125 8 13.59375 8 12.703125 7.59375
z
" id="CMMI12-122"/>
     </defs>
     <use transform="scale(0.996264)" xlink:href="#CMMI12-122"/>
     <use transform="translate(45.315753 -14.943915)scale(0.697382)" xlink:href="#CMMI12-110"/>
    </g>
   </g>
   <g id="text_6">
    <!-- $\beta_{nt}$ -->
    <g transform="translate(140.222291 93.134871)scale(0.1 -0.1)">
     <defs>
      <path d="M 56.59375 57.828125
C 56.59375 63.765625 51.5 70 42.40625 70
C 29.5 70 21.296875 54.328125 18.703125 44
L 2.90625 -18.3125
C 2.703125 -19.109375 3.296875 -19.3125 3.796875 -19.3125
C 4.5 -19.3125 5 -19.21875 5.09375 -18.71875
L 12.09375 9.15625
C 13.09375 3.578125 18.59375 -1 24.5 -1
C 38.796875 -1 52.296875 10.15625 52.296875 24.984375
C 52.296875 28.765625 51.40625 32.546875 49.296875 35.734375
C 48.09375 37.625 46.59375 39.015625 45 40.21875
C 52.203125 43.984375 56.59375 50 56.59375 57.828125
z
M 39.203125 40.3125
C 37.59375 39.71875 36 39.515625 34.09375 39.515625
C 32.703125 39.515625 31.40625 39.421875 29.59375 40.015625
C 30.59375 40.71875 32.09375 40.90625 34.203125 40.90625
C 36 40.90625 37.796875 40.71875 39.203125 40.3125
z
M 51.40625 58.71875
C 51.40625 53.28125 48.703125 45.359375 42.203125 41.703125
C 40.296875 42.46875 37.703125 43 35.5 43
C 33.40625 43 27.40625 43 27.40625 39.921875
C 27.40625 37.328125 32.90625 37.328125 34.59375 37.328125
C 37.203125 37.328125 39.5 38 41.90625 38.8125
C 45.09375 36.21875 46.5 32.828125 46.5 27.859375
C 46.5 22.078125 44.90625 17.421875 43 13.140625
C 39.703125 5.765625 31.90625 1 25 1
C 17.703125 1 13.90625 6.75 13.90625 13.5
C 13.90625 14.40625 13.90625 15.703125 14.296875 17.171875
L 20.796875 43.296875
C 24.09375 56.296875 32.5 68.015625 42.203125 68.015625
C 49.40625 68.015625 51.40625 63.0625 51.40625 58.71875
z
" id="CMMI12-12"/>
      <path d="M 20.09375 40.09375
L 29.296875 40.09375
C 31.203125 40.09375 32.203125 40.09375 32.203125 41.890625
C 32.203125 43 31.59375 43 29.59375 43
L 20.796875 43
L 24.5 57.6875
C 24.90625 59.078125 24.90625 59.28125 24.90625 60
C 24.90625 61.609375 23.59375 62.5 22.296875 62.5
C 21.5 62.5 19.203125 62.203125 18.40625 58.984375
L 14.5 43
L 5.09375 43
C 3.09375 43 2.203125 43 2.203125 41.09375
C 2.203125 40.09375 2.90625 40.09375 4.796875 40.09375
L 13.703125 40.09375
L 7.09375 13.765625
C 6.296875 10.28125 6 9.28125 6 7.984375
C 6 3.296875 9.296875 -1 14.90625 -1
C 25 -1 30.40625 13.5625 30.40625 14.25
C 30.40625 14.859375 30 15.15625 29.40625 15.15625
C 29.203125 15.15625 28.796875 15.15625 28.59375 14.75
C 28.5 14.65625 28.40625 14.546875 27.703125 12.953125
C 25.59375 7.984375 21 1 15.203125 1
C 12.203125 1 12 3.5 12 5.6875
C 12 5.78125 12 7.6875 12.296875 8.875
z
" id="CMMI12-116"/>
     </defs>
     <use transform="scale(0.996264)" xlink:href="#CMMI12-12"/>
     <use transform="translate(55.070737 -14.943915)scale(0.697382)" xlink:href="#CMMI12-110"/>
     <use transform="translate(95.83158 -14.943915)scale(0.697382)" xlink:href="#CMMI12-116"/>
    </g>
   </g>
   <g id="text_7">
    <!-- $s_n$ -->
    <g transform="translate(57.39787 36.482239)scale(0.1 -0.1)">
     <defs>
      <path d="M 22.796875 20
C 24.5 19.703125 27.203125 19.109375 27.796875 19
C 29.09375 18.625 33.59375 17.03125 33.59375 12.234375
C 33.59375 9.15625 30.796875 1.09375 19.203125 1.09375
C 17.09375 1.09375 9.59375 1.09375 7.59375 6.8125
C 11.59375 6.3125 13.59375 9.421875 13.59375 11.640625
C 13.59375 13.75 12.203125 14.84375 10.203125 14.84375
C 8 14.84375 5.09375 13.140625 5.09375 8.625
C 5.09375 2.703125 11.09375 -1 19.09375 -1
C 34.296875 -1 38.796875 10.171875 38.796875 15.375
C 38.796875 16.859375 38.796875 19.65625 35.59375 22.84375
C 33.09375 25.25 30.703125 25.75 25.296875 26.84375
C 22.59375 27.4375 18.296875 28.34375 18.296875 32.828125
C 18.296875 34.828125 20.09375 42.015625 29.59375 42.015625
C 33.796875 42.015625 37.90625 40.453125 38.90625 37
C 34.5 37 34.296875 33.203125 34.296875 33.109375
C 34.296875 31 36.203125 30.40625 37.09375 30.40625
C 38.5 30.40625 41.296875 31.484375 41.296875 35.640625
C 41.296875 39.765625 37.5 44 29.703125 44
C 16.59375 44 13.09375 33.75 13.09375 29.671875
C 13.09375 22.09375 20.5 20.5 22.796875 20
z
" id="CMMI12-115"/>
     </defs>
     <use transform="scale(0.996264)" xlink:href="#CMMI12-115"/>
     <use transform="translate(45.950048 -14.943915)scale(0.697382)" xlink:href="#CMMI12-110"/>
    </g>
   </g>
   <g id="text_8">
    <!-- $y_{nt}$ -->
    <g transform="translate(140.5976 149.787502)scale(0.1 -0.1)">
     <defs>
      <path d="M 26.296875 -10.9375
C 23.59375 -14.671875 19.703125 -18 14.796875 -18
C 13.59375 -18 8.796875 -18 7.296875 -13.890625
C 7.59375 -13.984375 8.09375 -13.984375 8.296875 -13.984375
C 11.296875 -13.984375 13.296875 -11.390625 13.296875 -9.09375
C 13.296875 -6.796875 11.40625 -6 9.90625 -6
C 8.296875 -6 4.796875 -7.15625 4.796875 -11.859375
C 4.796875 -16.734375 9.09375 -20.09375 14.796875 -20.09375
C 24.796875 -20.09375 34.90625 -10.9375 37.703125 0.09375
L 47.5 38.828125
C 47.59375 39.328125 47.796875 39.9375 47.796875 40.53125
C 47.796875 42.015625 46.59375 43.015625 45.09375 43.015625
C 44.203125 43.015625 42.09375 42.609375 41.296875 39.609375
L 33.90625 10.28125
C 33.40625 8.484375 33.40625 8.28125 32.59375 7.1875
C 30.59375 4.390625 27.296875 1 22.5 1
C 16.90625 1 16.40625 6.484375 16.40625 9.1875
C 16.40625 14.875 19.09375 22.546875 21.796875 29.734375
C 22.90625 32.625 23.5 34.03125 23.5 36.015625
C 23.5 40.21875 20.5 44 15.59375 44
C 6.40625 44 2.703125 29.53125 2.703125 28.734375
C 2.703125 28.34375 3.09375 27.84375 3.796875 27.84375
C 4.703125 27.84375 4.796875 28.234375 5.203125 29.640625
C 7.59375 38.015625 11.40625 42.015625 15.296875 42.015625
C 16.203125 42.015625 17.90625 42.015625 17.90625 38.71875
C 17.90625 36.125 16.796875 33.234375 15.296875 29.4375
C 10.40625 16.359375 10.40625 13.078125 10.40625 10.671875
C 10.40625 1.203125 17.203125 -1 22.203125 -1
C 25.09375 -1 28.703125 -0.09375 32.203125 3.59375
L 32.296875 3.5
C 30.796875 -2.296875 29.796875 -6.125 26.296875 -10.9375
z
" id="CMMI12-121"/>
     </defs>
     <use transform="scale(0.996264)" xlink:href="#CMMI12-121"/>
     <use transform="translate(47.564188 -14.943915)scale(0.697382)" xlink:href="#CMMI12-110"/>
     <use transform="translate(88.325031 -14.943915)scale(0.697382)" xlink:href="#CMMI12-116"/>
    </g>
   </g>
   <g id="text_9">
    <!-- $x_{ng}$ -->
    <g transform="translate(54.942547 148.874285)scale(0.1 -0.1)">
     <defs>
      <path d="M 47.40625 40.71875
C 44.203125 40.109375 43 37.71875 43 35.828125
C 43 33.421875 44.90625 32.625 46.296875 32.625
C 49.296875 32.625 51.40625 35.21875 51.40625 37.921875
C 51.40625 42.109375 46.59375 44 42.40625 44
C 36.296875 44 32.90625 38.015625 32 36.125
C 29.703125 44 23.5 44 21.703125 44
C 11.5 44 6.09375 30.9375 6.09375 28.734375
C 6.09375 28.34375 6.5 27.84375 7.203125 27.84375
C 8 27.84375 8.203125 28.4375 8.40625 28.84375
C 11.796875 39.921875 18.5 42.015625 21.40625 42.015625
C 25.90625 42.015625 26.796875 37.8125 26.796875 35.421875
C 26.796875 33.234375 26.203125 30.9375 25 26.140625
L 21.59375 12.46875
C 20.09375 6.484375 17.203125 1 11.90625 1
C 11.40625 1 8.90625 1 6.796875 2.296875
C 10.40625 3 11.203125 5.984375 11.203125 7.1875
C 11.203125 9.1875 9.703125 10.375 7.796875 10.375
C 5.40625 10.375 2.796875 8.28125 2.796875 5.09375
C 2.796875 0.890625 7.5 -1 11.796875 -1
C 16.59375 -1 20 2.796875 22.09375 6.890625
C 23.703125 1 28.703125 -1 32.40625 -1
C 42.59375 -1 48 12.078125 48 14.265625
C 48 14.765625 47.59375 15.171875 47 15.171875
C 46.09375 15.171875 46 14.671875 45.703125 13.875
C 43 5.09375 37.203125 1 32.703125 1
C 29.203125 1 27.296875 3.59375 27.296875 7.6875
C 27.296875 9.875 27.703125 11.46875 29.296875 18.0625
L 32.796875 31.625
C 34.296875 37.625 37.703125 42.015625 42.296875 42.015625
C 42.5 42.015625 45.296875 42.015625 47.40625 40.71875
z
" id="CMMI12-120"/>
      <path d="M 33.796875 12.671875
C 33.40625 11.078125 33.203125 10.671875 31.90625 9.1875
C 27.796875 3.890625 23.59375 2 20.5 2
C 17.203125 2 14.09375 4.59375 14.09375 11.46875
C 14.09375 16.765625 17.09375 27.9375 19.296875 32.4375
C 22.203125 38.015625 26.703125 42.015625 30.90625 42.015625
C 37.5 42.015625 38.796875 33.828125 38.796875 33.234375
L 38.5 31.828125
z
M 40 37.421875
C 38.703125 40.3125 35.90625 44 30.90625 44
C 20 44 7.59375 30.328125 7.59375 15.46875
C 7.59375 5.09375 13.90625 0 20.296875 0
C 25.59375 0 30.296875 4.1875 32.09375 6.1875
L 29.90625 -2.671875
C 28.5 -8.0625 27.90625 -10.53125 24.296875 -13.96875
C 20.203125 -18 16.40625 -18 14.203125 -18
C 11.203125 -18 8.703125 -17.796875 6.203125 -17.015625
C 9.40625 -16.140625 10.203125 -13.40625 10.203125 -12.328125
C 10.203125 -10.765625 9 -9.1875 6.796875 -9.1875
C 4.40625 -9.1875 1.796875 -11.15625 1.796875 -14.40625
C 1.796875 -18.4375 5.90625 -20 14.40625 -20
C 27.296875 -20 34 -11.765625 35.296875 -6.40625
L 46.40625 38.046875
C 46.703125 39.234375 46.703125 39.4375 46.703125 39.625
C 46.703125 41.015625 45.59375 42.109375 44.09375 42.109375
C 41.703125 42.109375 40.296875 40.109375 40 37.421875
z
" id="CMMI12-103"/>
     </defs>
     <use transform="scale(0.996264)" xlink:href="#CMMI12-120"/>
     <use transform="translate(55.43406 -14.943915)scale(0.697382)" xlink:href="#CMMI12-110"/>
     <use transform="translate(96.194903 -14.943915)scale(0.697382)" xlink:href="#CMMI12-103"/>
    </g>
   </g>
  </g>
 </g>
 <defs>
  <clipPath id="p2d78210fb8">
   <rect height="215.28" width="192.24" x="0" y="0"/>
  </clipPath>
 </defs>
</svg>
