<?xml version="1.0" encoding="UTF-8" standalone="no"?>
<!-- Created with Inkscape (http://www.inkscape.org/) -->

<svg
   xmlns:dc="http://purl.org/dc/elements/1.1/"
   xmlns:cc="http://creativecommons.org/ns#"
   xmlns:rdf="http://www.w3.org/1999/02/22-rdf-syntax-ns#"
   xmlns:svg="http://www.w3.org/2000/svg"
   xmlns="http://www.w3.org/2000/svg"
   xmlns:sodipodi="http://sodipodi.sourceforge.net/DTD/sodipodi-0.dtd"
   xmlns:inkscape="http://www.inkscape.org/namespaces/inkscape"
   width="457.29633"
   height="442.16544"
   id="svg2"
   version="1.1"
   inkscape:version="0.91 r13725"
   sodipodi:docname="vi_projection.svg">
  <sodipodi:namedview
     id="base"
     pagecolor="#ffffff"
     bordercolor="#666666"
     borderopacity="1.0"
     inkscape:pageopacity="0.0"
     inkscape:pageshadow="2"
     inkscape:zoom="1.4"
     inkscape:cx="78.930067"
     inkscape:cy="253.93032"
     inkscape:document-units="px"
     inkscape:current-layer="layer1"
     showgrid="false"
     inkscape:window-width="2116"
     inkscape:window-height="1198"
     inkscape:window-x="442"
     inkscape:window-y="0"
     inkscape:window-maximized="0"
     fit-margin-top="0"
     fit-margin-left="0"
     fit-margin-right="0"
     fit-margin-bottom="0" />
  <defs
     id="defs4">
    <marker
       inkscape:stockid="Arrow1Lend"
       orient="auto"
       refY="0"
       refX="0"
       id="Arrow1Lend"
       style="overflow:visible">
      <path
         inkscape:connector-curvature="0"
         id="path3799"
         d="M 0,0 5,-5 -12.5,0 5,5 0,0 z"
         style="fill-rule:evenodd;stroke:#000000;stroke-width:1pt"
         transform="matrix(-0.8,0,0,-0.8,-10,0)" />
    </marker>
    <marker
       inkscape:stockid="Arrow1Lstart"
       orient="auto"
       refY="0"
       refX="0"
       id="Arrow1Lstart"
       style="overflow:visible">
      <path
         inkscape:connector-curvature="0"
         id="path3796"
         d="M 0,0 5,-5 -12.5,0 5,5 0,0 z"
         style="fill-rule:evenodd;stroke:#000000;stroke-width:1pt"
         transform="matrix(0.8,0,0,0.8,10,0)" />
    </marker>
  </defs>
  <metadata
     id="metadata7">
    <rdf:RDF>
      <cc:Work
         rdf:about="">
        <dc:format>image/svg+xml</dc:format>
        <dc:type
           rdf:resource="http://purl.org/dc/dcmitype/StillImage" />
        <dc:title></dc:title>
      </cc:Work>
    </rdf:RDF>
  </metadata>
  <g
     transform="translate(-130.31027,-71.855892)"
     inkscape:label="Layer 1"
     inkscape:groupmode="layer"
     id="layer1">
    <path
       sodipodi:type="arc"
       style="fill:#cccccc;stroke:#666666;stroke-width:1.5;stroke-linecap:butt;stroke-miterlimit:4;stroke-dasharray:none"
       id="path3004"
       sodipodi:cx="315.71429"
       sodipodi:cy="306.64789"
       sodipodi:rx="107.14286"
       sodipodi:ry="142.33762"
       d="M 422.85715,306.64789 A 107.14286,142.33762 0 0 1 315.71429,448.9855 107.14286,142.33762 0 0 1 208.57143,306.64789 107.14286,142.33762 0 0 1 315.71429,164.31027 107.14286,142.33762 0 0 1 422.85715,306.64789 Z"
       transform="matrix(0.86393565,0,0,0.95462142,57.604663,35.582752)" />
    <path
       sodipodi:type="arc"
       style="fill:#000000;fill-rule:evenodd;stroke:#000000;stroke-width:1.5;stroke-linecap:butt;stroke-miterlimit:4;stroke-dasharray:none"
       id="path3008"
       sodipodi:cx="551.42859"
       sodipodi:cy="157.36218"
       sodipodi:rx="5.7142859"
       sodipodi:ry="5"
       d="m 557.14287,157.36218 a 5.7142859,5 0 0 1 -5.71428,5 5.7142859,5 0 0 1 -5.71429,-5 5.7142859,5 0 0 1 5.71429,-5 5.7142859,5 0 0 1 5.71428,5 z"
       transform="translate(-68.516341,-34.588848)" />
    <path
       style="fill:none;stroke:#000000;stroke-width:2.5;stroke-linecap:butt;stroke-linejoin:miter;stroke-miterlimit:4;stroke-opacity:1;stroke-dasharray:none;marker-start:none;marker-mid:none;marker-end:none"
       d="m 131.56027,334.67834 423.34158,0"
       id="path3020"
       inkscape:connector-curvature="0" />
    <path
       style="fill:none;stroke:#000000;stroke-width:2.5;stroke-linecap:butt;stroke-linejoin:miter;stroke-miterlimit:4;stroke-opacity:1;stroke-dasharray:none;marker-start:none;marker-mid:none;marker-end:none"
       d="m 272.70414,75.307973 0,437.463347"
       id="path3022"
       inkscape:connector-curvature="0" />
    <g
       transform="matrix(0.7,0,0,0.7,176.58084,211.83347)"
       id="g4619">
      <g
         style="font-style:normal;font-variant:normal;font-weight:normal;font-stretch:normal;letter-spacing:normal;word-spacing:normal;text-anchor:start;fill:none;stroke:#000000;stroke-linecap:butt;stroke-linejoin:miter;stroke-miterlimit:10.43299961;stroke-dasharray:none;stroke-dashoffset:0;stroke-opacity:1"
         id="content"
         transform="matrix(1.0629921,0,0,-1.0629921,-186.02362,789.27165)"
         xml:space="preserve"
         stroke-miterlimit="10.433"
         font-style="normal"
         font-variant="normal"
         font-weight="normal"
         font-stretch="normal"
         font-size-adjust="none"
         letter-spacing="normal"
         word-spacing="normal"><path
           style="fill:#000000;stroke-width:0"
           inkscape:connector-curvature="0"
           d="m 494.72359,443.70176 0.576,0.232 0.576,0.264 0.568,0.28 0.568,0.32 0.56,0.336 0.552,0.36 0.544,0.384 0.544,0.408 0.52,0.432 0.52,0.448 0.504,0.472 0.488,0.488 0.48,0.512 0.456,0.528 0.448,0.544 0.432,0.56 0.408,0.576 0.392,0.584 0.368,0.608 0.352,0.616 0.328,0.632 0.304,0.64 0.28,0.656 0.256,0.664 0.232,0.672 0.2,0.68 0.168,0.696 0.144,0.696 0.12,0.704 0.08,0.712 0.048,0.712 0.016,0.72 c 0,6.424 -4.224,10.72 -10.168,10.72 l -0.24,-1 c 3.984,0 6.896,-3.096 6.896,-8.448 0,-3.984 -2.032,-13.312 -8.72,-17.048 -0.2,1.384 -0.6,4.296 -3.512,4.296 l 0,-0.872 c 1.672,0 2.432,-0.96 2.432,-3.384 0,-0.6 -0.048,-0.64 -0.448,-0.8 -1.024,-0.44 -2.224,-0.712 -3.336,-0.712 l 0,0 c -0.56,0 -1.84,0 -1.84,1.712 0,1.584 1.512,3.184 3.192,3.184 l 0,0.872 c -2.112,0 -4.064,-2 -4.064,-4.056 0,-0.8 0.24,-1.24 0.24,-1.28 l 0,0 c -3.112,1.224 -4.464,4.336 -4.464,7.928 0,2.752 1.032,8.408 4.064,12.712 2.912,4.072 6.656,5.896 9.56,5.896 l 0.24,1 c -8.6,0 -17.376,-9.048 -17.376,-18.336 0,-6.608 4.464,-10.632 10.208,-10.632 0.992,0 2.352,0.16 3.904,0.6 -0.168,-2.48 -0.168,-2.552 -0.168,-3.08 0,-1.272 0,-4.384 3.32,-4.384 4.736,0 6.648,7.296 6.648,7.736 0,0.272 -0.28,0.4 -0.44,0.4 -0.312,0 -0.4,-0.2 -0.472,-0.44 -0.952,-2.832 -3.264,-3.824 -4.664,-3.824 -1.84,0 -2.44,1.072 -2.824,4.104 z"
           id="path4622" /></g>    </g>
    <g
       transform="matrix(0.56,0,0,0.56,198.03274,49.787287)"
       id="g4774">
      <g
         style="font-style:normal;font-variant:normal;font-weight:normal;font-stretch:normal;letter-spacing:normal;word-spacing:normal;text-anchor:start;fill:none;stroke:#000000;stroke-linecap:butt;stroke-linejoin:miter;stroke-miterlimit:10.43299961;stroke-dasharray:none;stroke-dashoffset:0;stroke-opacity:1"
         word-spacing="normal"
         letter-spacing="normal"
         font-size-adjust="none"
         font-stretch="normal"
         font-weight="normal"
         font-variant="normal"
         font-style="normal"
         stroke-miterlimit="10.433"
         xml:space="preserve"
         transform="matrix(1.0629921,0,0,-1.0629921,-186.02362,789.27165)"
         id="g4776"><path
           style="fill:#000000;stroke-width:0"
           inkscape:connector-curvature="0"
           id="path4778"
           d="m 478.04,427.67 -0.01,0.02 0,0.02 0,0.02 0,0.02 -0.01,0.02 0,0.02 -0.01,0.02 0,0.02 -0.01,0.02 -0.01,0.02 -0.01,0.02 -0.01,0.03 -0.01,0.02 -0.01,0.02 -0.02,0.02 -0.01,0.01 -0.02,0.02 -0.01,0.02 -0.02,0.02 -0.02,0.01 -0.02,0.02 -0.02,0.01 -0.02,0.02 -0.03,0.01 -0.02,0.01 -0.03,0.01 -0.02,0.01 -0.03,0 -0.03,0.01 -0.03,0 -0.03,0.01 -0.02,0 -0.01,0 c -0.55,0 -2.54,-1.99 -3.38,-3.44 -1.11,2.69 -3.05,3.48 -4.64,3.48 l 0,-1.09 c 3.23,0 3.94,-4.03 3.94,-4.37 0,-0.32 -2.74,-11.22 -2.89,-11.43 -0.75,-1.39 -3.53,-4.57 -6.33,-4.57 l 0,0 c -2.99,0 -3.19,3.84 -3.19,4.68 0,2.39 1.44,7.82 2.3,9.91 1.53,3.69 4.12,5.78 6.17,5.78 l 0,1.09 c -5.88,0 -12,-7.37 -12,-14.59 0,-4.87 2.94,-7.97 6.56,-7.97 2.16,0 4.1,1.19 5.89,2.99 -0.45,-1.74 -2.09,-8.47 -2.25,-8.93 -0.39,-1.39 -0.79,-1.59 -3.58,-1.64 -0.65,0 -1.15,0 -1.15,-1 0,-0.04 0,-0.54 0.65,-0.54 1.6,0 3.33,0.15 4.99,0.15 1.69,0 3.48,-0.15 5.12,-0.15 0.25,0 0.89,0 0.89,1 0,0.54 -0.48,0.54 -1.28,0.54 -2.4,0 -2.4,0.36 -2.4,0.8 0,0.36 0.11,0.66 0.2,1.09 z" /><path
           style="fill:#000000;stroke-width:0"
           inkscape:connector-curvature="0"
           id="path4780"
           d="m 497.82,434.2 0.02,0.01 0.03,0.02 0.03,0.01 0.03,0.01 0.02,0.01 0.03,0.02 0.02,0.01 0.02,0.01 0.02,0.01 0.03,0.02 0.02,0.01 0.02,0.01 0.01,0.01 0.02,0.01 0.02,0.01 0.02,0.02 0.01,0.01 0.02,0.01 0.01,0.01 0.02,0.01 0.02,0.02 0.03,0.02 0.02,0.02 0.02,0.02 0.02,0.02 0.01,0.02 0.02,0.02 0.01,0.02 0.01,0.02 0.01,0.02 0.01,0.02 0,0.01 0.01,0.02 0,0.02 0,0.01 0.01,0.02 0,0.01 0,0.02 0,0.03 0,0.02 c 0,0.32 -0.31,0.46 -0.48,0.46 -0.17,0 -5.97,-1.11 -6.91,-1.33 l -0.8,6.45 c -0.07,0.49 -0.14,0.91 -0.56,0.91 -0.34,0 -0.48,-0.31 -0.56,-0.88 l -0.77,-6.48 -6.4,1.26 c -0.42,0.07 -0.49,0.07 -0.52,0.07 -0.17,0 -0.5,-0.14 -0.5,-0.46 0,-0.14 0.08,-0.23 0.19,-0.37 0.14,-0.11 5.64,-2.66 6.41,-3 l -3.18,-5.78 c -0.25,-0.42 -0.25,-0.5 -0.25,-0.56 0,-0.25 0.22,-0.49 0.46,-0.49 0.31,0 1.04,0.83 2.4,2.36 0.88,0.98 1.82,1.92 2.72,2.86 1.7,-1.73 4.19,-4.48 4.61,-4.88 0.27,-0.28 0.31,-0.34 0.52,-0.34 0.25,0 0.45,0.24 0.45,0.49 0,0.14 -0.42,0.9 -0.66,1.35 l -2.76,4.96 z" /></g>    </g>
    <g
       id="g5214"
       transform="matrix(0.56,0,0,0.56,269.62188,-4.6005814)">
      <g
         word-spacing="normal"
         letter-spacing="normal"
         font-size-adjust="none"
         font-stretch="normal"
         font-weight="normal"
         font-variant="normal"
         font-style="normal"
         stroke-miterlimit="10.433"
         xml:space="preserve"
         transform="matrix(1.0629921,0,0,-1.0629921,-186.02362,789.27165)"
         id="g5216"
         style="font-style:normal;font-variant:normal;font-weight:normal;font-stretch:normal;letter-spacing:normal;word-spacing:normal;text-anchor:start;fill:none;stroke:#000000;stroke-linecap:butt;stroke-linejoin:miter;stroke-miterlimit:10.43299961;stroke-dasharray:none;stroke-dashoffset:0;stroke-opacity:1"><path
           id="path5218"
           d="m 475.44,427.07 8.97,8.63 c 0.41,0.39 3.05,2.94 7.08,2.98 l 0,1.55 c -1.3,-0.16 -2.89,-0.16 -4.24,-0.16 -1.79,0 -4.62,0 -6.32,0.16 l 0,-1.55 c 2,-0.04 2.29,-1.2 2.29,-1.64 0,-0.79 -0.5,-1.29 -0.9,-1.64 l -15.6,-14.9 0,15.84 c 0,1.8 0.11,2.34 3.94,2.34 l 1.2,0 0,1.55 c -1.75,-0.16 -5.43,-0.16 -7.32,-0.16 -1.9,0 -5.63,0 -7.38,0.16 l 0,-1.55 1.2,0 c 3.83,0 3.94,-0.54 3.94,-2.34 l 0,-26.25 c 0,-1.8 -0.11,-2.34 -3.94,-2.34 l -1.2,0 0,-1.55 c 1.75,0.16 5.44,0.16 7.33,0.16 1.89,0 5.62,0 7.37,-0.16 l 0,1.55 -1.2,0 c -3.83,0 -3.94,0.54 -3.94,2.34 l 0,8.72 5.78,5.47 9.02,-13.35 c 0.31,-0.45 0.75,-1.09 0.75,-1.68 0,-1.5 -1.94,-1.5 -2.94,-1.5 l 0,-1.55 c 1.75,0.16 5.24,0.16 7.13,0.16 1.75,0 3.64,-0.07 5.73,-0.16 l 0,1.55 c -2.69,0 -3.73,0.2 -5.23,2.39 z"
           inkscape:connector-curvature="0"
           style="fill:#000000;stroke-width:0" /><path
           id="path5220"
           d="m 523.28,419.06 -1.25,0 c -0.55,-5.1 -1.25,-11.31 -10.02,-11.31 l -4.08,0 c -2.34,0 -2.45,0.34 -2.45,1.98 l 0,26.56 c 0,1.69 0,2.39 4.73,2.39 l 1.66,0 0,1.55 c -1.8,-0.16 -6.33,-0.16 -8.37,-0.16 -1.94,0 -5.83,0 -7.58,0.16 l 0,-1.55 1.2,0 c 3.83,0 3.94,-0.54 3.94,-2.34 l 0,-26.25 c 0,-1.8 -0.11,-2.34 -3.94,-2.34 l -1.2,0 0,-1.55 25.95,0 z"
           inkscape:connector-curvature="0"
           style="fill:#000000;stroke-width:0" /><path
           id="path5222"
           d="m 541.96,394.25 0,0.02 0,0.03 0,0.01 0,0.02 -0.01,0.01 0,0.02 -0.01,0.01 0,0.02 -0.01,0.02 -0.01,0.02 -0.02,0.02 -0.01,0.03 -0.02,0.02 -0.01,0.03 -0.03,0.03 -0.02,0.03 -0.03,0.03 -0.03,0.04 -0.01,0.02 -0.02,0.02 -0.01,0.02 -0.02,0.02 -0.02,0.02 -0.02,0.03 -0.02,0.02 -0.03,0.02 -0.02,0.03 -0.02,0.02 -0.03,0.03 -0.02,0.03 -0.03,0.03 -0.03,0.03 -0.02,0.03 -0.03,0.03 -0.04,0.03 -0.03,0.03 -0.03,0.04 -0.03,0.03 -0.04,0.04 -0.04,0.03 -0.03,0.04 -0.04,0.04 c -6.22,6.28 -7.82,15.69 -7.82,23.31 0,8.67 1.9,17.35 8.02,23.56 0.64,0.61 0.64,0.71 0.64,0.86 0,0.35 -0.19,0.49 -0.48,0.49 -0.5,0 -4.99,-3.38 -7.93,-9.7 -2.54,-5.49 -3.14,-11.02 -3.14,-15.21 0,-3.89 0.55,-9.9 3.29,-15.54 2.98,-6.13 7.28,-9.36 7.78,-9.36 0.29,0 0.48,0.14 0.48,0.5 z"
           inkscape:connector-curvature="0"
           style="fill:#000000;stroke-width:0" /><path
           id="path5224"
           d="m 567.31,427.67 0,0.02 0,0.02 0,0.02 -0.01,0.02 0,0.02 -0.01,0.02 0,0.02 -0.01,0.02 -0.01,0.02 0,0.02 -0.01,0.02 -0.01,0.03 -0.02,0.02 -0.01,0.02 -0.01,0.02 -0.02,0.01 -0.01,0.02 -0.02,0.02 -0.02,0.02 -0.02,0.01 -0.01,0.02 -0.03,0.01 -0.02,0.02 -0.02,0.01 -0.03,0.01 -0.02,0.01 -0.03,0.01 -0.03,0 -0.03,0.01 -0.03,0 -0.03,0.01 -0.01,0 -0.02,0 c -0.55,0 -2.53,-1.99 -3.38,-3.44 -1.11,2.69 -3.04,3.48 -4.64,3.48 l 0,-1.09 c 3.24,0 3.94,-4.03 3.94,-4.37 0,-0.32 -2.73,-11.22 -2.89,-11.43 -0.75,-1.39 -3.53,-4.57 -6.33,-4.57 l 0,0 c -2.98,0 -3.19,3.84 -3.19,4.68 0,2.39 1.44,7.82 2.3,9.91 1.53,3.69 4.13,5.78 6.17,5.78 l 0,1.09 c -5.87,0 -12,-7.37 -12,-14.59 0,-4.87 2.94,-7.97 6.56,-7.97 2.16,0 4.1,1.19 5.9,2.99 -0.46,-1.74 -2.1,-8.47 -2.25,-8.93 -0.4,-1.39 -0.8,-1.59 -3.58,-1.64 -0.66,0 -1.16,0 -1.16,-1 0,-0.04 0,-0.54 0.66,-0.54 1.59,0 3.33,0.15 4.98,0.15 1.69,0 3.49,-0.15 5.13,-0.15 0.25,0 0.89,0 0.89,1 0,0.54 -0.49,0.54 -1.28,0.54 -2.41,0 -2.41,0.36 -2.41,0.8 0,0.36 0.11,0.66 0.2,1.09 z"
           inkscape:connector-curvature="0"
           style="fill:#000000;stroke-width:0" /><path
           id="path5226"
           d="m 587.1,434.2 0.03,0.01 0.02,0.02 0.03,0.01 0.03,0.01 0.02,0.01 0.03,0.02 0.02,0.01 0.02,0.01 0.03,0.01 0.02,0.02 0.02,0.01 0.02,0.01 0.02,0.01 0.01,0.01 0.02,0.01 0.02,0.02 0.02,0.01 0.01,0.01 0.02,0.01 0.01,0.01 0.03,0.02 0.02,0.02 0.02,0.02 0.02,0.02 0.02,0.02 0.01,0.02 0.02,0.02 0.01,0.02 0.01,0.02 0.01,0.02 0.01,0.02 0,0.01 0.01,0.02 0,0.02 0.01,0.01 0,0.02 0,0.01 0,0.02 0,0.03 0,0.02 c 0,0.32 -0.31,0.46 -0.48,0.46 -0.17,0 -5.97,-1.11 -6.91,-1.33 l -0.8,6.45 c -0.07,0.49 -0.13,0.91 -0.56,0.91 -0.34,0 -0.48,-0.31 -0.56,-0.88 l -0.76,-6.48 -6.41,1.26 c -0.42,0.07 -0.49,0.07 -0.52,0.07 -0.17,0 -0.5,-0.14 -0.5,-0.46 0,-0.14 0.08,-0.23 0.19,-0.37 0.14,-0.11 5.64,-2.66 6.41,-3 l -3.17,-5.78 c -0.25,-0.42 -0.25,-0.5 -0.25,-0.56 0,-0.25 0.21,-0.49 0.45,-0.49 0.31,0 1.05,0.83 2.4,2.36 0.88,0.98 1.82,1.92 2.72,2.86 1.71,-1.73 4.19,-4.48 4.61,-4.88 0.27,-0.28 0.32,-0.34 0.52,-0.34 0.25,0 0.45,0.24 0.45,0.49 0,0.14 -0.42,0.9 -0.65,1.35 l -2.77,4.96 z"
           inkscape:connector-curvature="0"
           style="fill:#000000;stroke-width:0" /><path
           id="path5228"
           d="m 600.28,441.87 0,0.15 0,0.15 -0.01,0.15 0,0.08 0,0.07 -0.01,0.07 -0.01,0.08 -0.01,0.07 -0.01,0.07 -0.01,0.06 -0.02,0.07 -0.02,0.06 -0.02,0.06 -0.03,0.06 -0.02,0.06 -0.03,0.05 -0.04,0.06 -0.04,0.04 -0.04,0.05 -0.04,0.04 -0.05,0.04 -0.03,0.01 -0.03,0.02 -0.03,0.02 -0.03,0.01 -0.03,0.02 -0.03,0.01 -0.03,0.01 -0.04,0.01 -0.03,0.01 -0.04,0.01 -0.04,0 -0.04,0.01 -0.04,0 -0.04,0.01 -0.05,0 -0.04,0 c -1,0 -1,-1.1 -1,-1.85 l 0,-46.12 c 0,-0.8 0,-1.84 1,-1.84 0.98,0 0.98,0.89 0.98,1.68 z"
           inkscape:connector-curvature="0"
           style="fill:#000000;stroke-width:0" /><path
           id="path5230"
           d="m 610,441.71 0,0.16 0,0.15 -0.01,0.16 -0.01,0.16 0,0.08 -0.01,0.08 -0.01,0.07 -0.01,0.08 -0.02,0.07 -0.01,0.08 -0.02,0.07 -0.02,0.07 -0.03,0.06 -0.03,0.07 -0.03,0.06 -0.03,0.06 -0.04,0.05 -0.04,0.05 -0.05,0.05 -0.05,0.04 -0.03,0.02 -0.03,0.02 -0.03,0.02 -0.03,0.02 -0.03,0.01 -0.03,0.02 -0.03,0.01 -0.04,0.01 -0.04,0.01 -0.03,0.01 -0.04,0.01 -0.04,0.01 -0.05,0 -0.04,0.01 -0.04,0 -0.05,0 c -0.98,0 -0.98,-0.89 -0.98,-1.69 l 0,-46.44 c 0,-0.79 0,-1.68 0.98,-1.68 1,0 1,1.09 1,1.84 z"
           inkscape:connector-curvature="0"
           style="fill:#000000;stroke-width:0" /><path
           id="path5232"
           d="m 618.91,400.12 -0.04,-0.15 -0.03,-0.15 -0.03,-0.14 -0.04,-0.13 -0.03,-0.13 -0.03,-0.11 -0.04,-0.12 -0.03,-0.1 -0.04,-0.1 -0.04,-0.09 -0.04,-0.09 -0.05,-0.08 -0.05,-0.07 -0.05,-0.07 -0.06,-0.07 -0.06,-0.06 -0.07,-0.05 -0.08,-0.05 -0.08,-0.04 -0.08,-0.04 -0.1,-0.04 -0.1,-0.03 -0.11,-0.03 -0.11,-0.02 -0.13,-0.02 -0.07,-0.01 -0.06,-0.01 -0.08,-0.01 -0.07,-0.01 -0.08,0 -0.08,-0.01 -0.08,0 -0.08,-0.01 -0.09,0 -0.09,0 -0.09,0 -0.1,0 -0.1,-0.01 -0.1,0 c -0.59,0 -1.14,0 -1.14,-0.93 0,-0.41 0.25,-0.61 0.64,-0.61 1.36,0 2.8,0.15 4.19,0.15 1.64,0 3.34,-0.15 4.94,-0.15 0.25,0 0.89,0 0.89,1 0,0.54 -0.5,0.54 -1.19,0.54 -2.5,0 -2.5,0.36 -2.5,0.8 0,0.61 2.1,8.72 2.45,9.97 0.65,-1.44 2.03,-3.19 4.58,-3.19 l -0.05,1.1 c -3.29,0 -3.93,4.14 -3.93,4.43 0,0.1 0,0.21 0.14,0.8 l 2.45,9.77 c 0.34,1.34 1.69,2.73 2.58,3.48 1.75,1.55 3.2,1.89 4.05,1.89 1.98,0 3.18,-1.73 3.18,-4.69 0,-2.93 -1.64,-8.65 -2.54,-10.56 -1.69,-3.48 -4.08,-5.12 -5.93,-5.12 l 0.05,-1.1 c 5.78,0 12,7.27 12,14.6 0,4.68 -2.83,7.96 -6.62,7.96 -2.49,0 -4.88,-1.78 -6.52,-3.73 -0.5,2.69 -2.64,3.73 -4.48,3.73 -2.3,0 -3.25,-1.93 -3.69,-2.82 -0.91,-1.71 -1.55,-4.69 -1.55,-4.85 0,-0.5 0.5,-0.5 0.6,-0.5 0.5,0 0.54,0.07 0.84,1.16 0.86,3.53 1.84,5.92 3.64,5.92 0.85,0 1.55,-0.39 1.55,-2.28 0,-1.16 -0.16,-1.7 -0.35,-2.55 z"
           inkscape:connector-curvature="0"
           style="fill:#000000;stroke-width:0" /><path
           id="path5234"
           d="m 656.15,418.65 -0.01,0.37 0,0.39 -0.01,0.39 -0.01,0.41 -0.04,0.84 -0.06,0.88 -0.09,0.92 -0.1,0.95 -0.14,0.97 -0.16,1.01 -0.2,1.02 -0.23,1.03 -0.26,1.05 -0.31,1.06 -0.35,1.07 -0.39,1.07 -0.21,0.53 -0.23,0.53 -0.24,0.53 -0.25,0.53 c -2.98,6.12 -7.26,9.36 -7.76,9.36 -0.3,0 -0.5,-0.19 -0.5,-0.49 0,-0.15 0,-0.25 0.93,-1.15 4.9,-4.92 7.74,-12.85 7.74,-23.27 0,-8.51 -1.84,-17.28 -8.03,-23.56 -0.64,-0.59 -0.64,-0.7 -0.64,-0.84 0,-0.3 0.2,-0.5 0.5,-0.5 0.5,0 4.97,3.39 7.92,9.71 2.53,5.47 3.13,11 3.13,15.19 z"
           inkscape:connector-curvature="0"
           style="fill:#000000;stroke-width:0" /></g>    </g>
    <path
       sodipodi:type="arc"
       style="fill:#000000;fill-rule:evenodd;stroke:#000000;stroke-width:1.5;stroke-linecap:butt;stroke-miterlimit:4;stroke-dasharray:none"
       id="path3008-2"
       sodipodi:cx="551.42859"
       sodipodi:cy="157.36218"
       sodipodi:rx="5.7142859"
       sodipodi:ry="5"
       d="m 557.14287,157.36218 a 5.7142859,5 0 0 1 -5.71428,5 5.7142859,5 0 0 1 -5.71429,-5 5.7142859,5 0 0 1 5.71429,-5 5.7142859,5 0 0 1 5.71428,5 z"
       transform="translate(-167.66282,59.725884)" />
    <path
       inkscape:connection-start="#path3008"
       inkscape:connection-start-point="d4"
       inkscape:connection-end="#path3008-2"
       inkscape:connection-end-point="d4"
       inkscape:connector-curvature="0"
       inkscape:connector-type="polyline"
       id="path5514"
       d="M 479.04382,126.45324 387.6342,213.40816"
       style="display:inline;fill:none;stroke:#000000;stroke-width:2;stroke-linecap:butt;stroke-linejoin:miter;stroke-miterlimit:4;stroke-dasharray:6, 6;stroke-dashoffset:0;stroke-opacity:1;marker-start:none" />
    <path
       inkscape:connector-curvature="0"
       id="path6254"
       d="M 326.86396,158.369 439.70748,275.49825"
       style="fill:none;stroke:#000000;stroke-width:1.01360703px;stroke-linecap:butt;stroke-linejoin:miter;stroke-opacity:1" />
    <g
       id="g3405"
       transform="translate(312.14286,20.714286)">
      <g
         word-spacing="normal"
         letter-spacing="normal"
         font-size-adjust="none"
         font-stretch="normal"
         font-weight="normal"
         font-variant="normal"
         font-style="normal"
         stroke-miterlimit="10.433"
         xml:space="preserve"
         transform="matrix(0.63166491,0,0,-0.63166491,-110.54136,342.97225)"
         id="g3407"
         style="font-style:normal;font-variant:normal;font-weight:normal;font-stretch:normal;letter-spacing:normal;word-spacing:normal;text-anchor:start;fill:none;fill-opacity:1;fill-rule:evenodd;stroke:#000000;stroke-linecap:butt;stroke-linejoin:miter;stroke-miterlimit:10.43299961;stroke-dasharray:none;stroke-dashoffset:0;stroke-opacity:1"><path
           id="path3409"
           d="m 458.24,399.92 -0.03,-0.15 -0.04,-0.15 -0.03,-0.14 -0.04,-0.13 -0.03,-0.13 -0.04,-0.11 -0.03,-0.12 -0.04,-0.1 -0.04,-0.1 -0.04,-0.09 -0.04,-0.09 -0.05,-0.08 -0.05,-0.07 -0.05,-0.07 -0.06,-0.07 -0.06,-0.05 -0.07,-0.06 -0.07,-0.05 -0.08,-0.04 -0.09,-0.04 -0.09,-0.04 -0.1,-0.03 -0.11,-0.03 -0.12,-0.02 -0.13,-0.02 -0.13,-0.02 -0.07,0 -0.08,-0.01 -0.07,-0.01 -0.08,0 -0.08,-0.01 -0.09,0 -0.08,0 -0.09,-0.01 -0.09,0 -0.1,0 -0.1,0 -0.1,0 c -0.6,0 -1.14,0 -1.14,-0.95 0,-0.39 0.25,-0.59 0.64,-0.59 l 9.12,0 c 0.25,0 0.9,0 0.9,0.99 0,0.55 -0.5,0.55 -1.2,0.55 -2.49,0 -2.49,0.35 -2.49,0.8 0,0.59 2.09,8.71 2.44,9.96 0.65,-1.44 2.04,-3.19 4.58,-3.19 l -0.04,1.1 c -3.29,0 -3.94,4.13 -3.94,4.43 0,0.1 0,0.2 0.15,0.8 l 2.44,9.76 c 0.35,1.35 1.69,2.74 2.59,3.49 1.74,1.54 3.19,1.89 4.03,1.89 1.99,0 3.19,-1.74 3.19,-4.68 0,-2.94 -1.64,-8.67 -2.54,-10.56 -1.69,-3.49 -4.08,-5.13 -5.92,-5.13 l 0.04,-1.1 c 5.78,0 12.01,7.28 12.01,14.6 0,4.68 -2.84,7.97 -6.62,7.97 -2.5,0 -4.89,-1.8 -6.53,-3.74 -0.5,2.69 -2.64,3.74 -4.49,3.74 -2.29,0 -3.23,-1.95 -3.68,-2.84 -0.9,-1.7 -1.55,-4.68 -1.55,-4.83 0,-0.5 0.5,-0.5 0.6,-0.5 0.5,0 0.55,0.05 0.85,1.14 0.85,3.54 1.84,5.93 3.63,5.93 0.85,0 1.55,-0.4 1.55,-2.29 0,-1.15 -0.15,-1.69 -0.35,-2.54 z"
           inkscape:connector-curvature="0"
           style="fill:#000000;stroke-width:0" /><path
           id="path3411"
           d="m 497.49,394.04 0,0.03 0,0.03 -0.01,0.01 0,0.02 0,0.01 -0.01,0.02 0,0.02 -0.01,0.01 -0.01,0.02 -0.01,0.02 -0.01,0.03 -0.01,0.02 -0.02,0.02 -0.02,0.03 -0.02,0.03 -0.02,0.03 -0.03,0.03 -0.03,0.04 -0.01,0.02 -0.02,0.02 -0.02,0.02 -0.02,0.02 -0.02,0.02 -0.02,0.03 -0.02,0.02 -0.02,0.02 -0.02,0.03 -0.03,0.02 -0.02,0.03 -0.03,0.03 -0.02,0.03 -0.03,0.03 -0.03,0.03 -0.03,0.03 -0.03,0.03 -0.03,0.03 -0.04,0.04 -0.03,0.03 -0.04,0.04 -0.03,0.03 -0.04,0.04 -0.04,0.04 c -6.23,6.28 -7.82,15.69 -7.82,23.31 0,8.67 1.89,17.34 8.02,23.57 0.65,0.59 0.65,0.69 0.65,0.84 0,0.35 -0.2,0.5 -0.5,0.5 -0.5,0 -4.98,-3.39 -7.92,-9.72 -2.54,-5.47 -3.14,-11 -3.14,-15.19 0,-3.88 0.55,-9.91 3.29,-15.54 2.99,-6.12 7.27,-9.36 7.77,-9.36 0.3,0 0.5,0.15 0.5,0.49 z"
           inkscape:connector-curvature="0"
           style="fill:#000000;stroke-width:0" /><path
           id="path3413"
           d="m 506.62,410.13 0.25,0.27 0.25,0.26 0.23,0.24 0.23,0.24 0.22,0.23 0.22,0.23 0.21,0.21 0.2,0.21 0.2,0.2 0.2,0.2 0.19,0.19 0.19,0.18 0.18,0.18 0.18,0.18 0.36,0.33 0.34,0.32 0.33,0.3 0.33,0.29 0.32,0.29 0.64,0.56 0.33,0.29 0.33,0.28 c 0,0.05 3.09,2.69 4.88,4.49 4.74,4.63 5.83,7.02 5.83,7.22 0,0.5 -0.45,0.5 -0.54,0.5 -0.35,0 -0.5,-0.1 -0.75,-0.55 -1.5,-2.39 -2.54,-3.19 -3.74,-3.19 -1.2,0 -1.79,0.75 -2.54,1.6 -0.94,1.14 -1.79,2.14 -3.44,2.14 -3.73,0 -6.02,-4.64 -6.02,-5.68 0,-0.25 0.15,-0.55 0.59,-0.55 0.45,0 0.55,0.25 0.65,0.55 0.95,2.29 3.84,2.34 4.24,2.34 1.04,0 1.99,-0.35 3.13,-0.75 2,-0.75 2.55,-0.75 3.84,-0.75 -1.79,-2.14 -5.98,-5.72 -6.92,-6.52 l -4.49,-4.18 c -3.38,-3.34 -5.13,-6.18 -5.13,-6.53 0,-0.5 0.5,-0.5 0.6,-0.5 0.4,0 0.5,0.1 0.8,0.65 1.14,1.74 2.64,3.09 4.23,3.09 1.15,0 1.64,-0.45 2.89,-1.89 0.85,-1.05 1.74,-1.85 3.19,-1.85 4.93,0 7.82,6.33 7.82,7.67 0,0.25 -0.2,0.5 -0.6,0.5 -0.45,0 -0.55,-0.3 -0.69,-0.65 -1.15,-3.24 -4.34,-4.18 -5.98,-4.18 -1,0 -1.9,0.3 -2.94,0.65 -1.7,0.65 -2.44,0.85 -3.49,0.85 -0.1,0 -0.9,0 -1.35,-0.16 z"
           inkscape:connector-curvature="0"
           style="fill:#000000;stroke-width:0" /><path
           id="path3415"
           d="m 532.92,441.57 0,0.16 0,0.17 0,0.17 -0.01,0.08 0,0.08 -0.01,0.07 -0.01,0.08 -0.01,0.08 -0.01,0.07 -0.01,0.07 -0.02,0.07 -0.02,0.07 -0.02,0.06 -0.03,0.06 -0.03,0.06 -0.03,0.06 -0.03,0.05 -0.04,0.05 -0.04,0.04 -0.05,0.05 -0.05,0.04 -0.05,0.03 -0.03,0.02 -0.03,0.01 -0.03,0.01 -0.04,0.02 -0.03,0.01 -0.04,0.01 -0.03,0.01 -0.04,0.01 -0.04,0 -0.04,0.01 -0.04,0 -0.04,0.01 -0.05,0 -0.04,0 c -1,0 -1,-0.9 -1,-1.79 l 0,-46.23 c 0,-0.89 0,-1.79 1,-1.79 0.99,0 0.99,0.9 0.99,1.79 z"
           inkscape:connector-curvature="0"
           style="fill:#000000;stroke-width:0" /><path
           id="path3417"
           d="m 555.64,421.04 0.03,0.13 0.03,0.15 0.05,0.17 0.04,0.18 0.06,0.19 0.06,0.21 0.06,0.21 0.07,0.23 0.08,0.23 0.09,0.24 0.1,0.25 0.1,0.24 0.11,0.25 0.12,0.25 0.13,0.25 0.14,0.25 0.15,0.24 0.15,0.24 0.17,0.23 0.18,0.22 0.18,0.22 0.2,0.2 0.21,0.19 0.22,0.18 0.23,0.16 0.25,0.14 0.12,0.07 0.13,0.06 0.13,0.05 0.14,0.05 0.14,0.05 0.14,0.04 0.14,0.03 0.15,0.03 0.15,0.02 0.16,0.02 0.16,0.01 0.16,0 c 0.25,0 1.45,0 2.49,-0.65 -1.4,-0.25 -2.39,-1.49 -2.39,-2.68 0,-0.8 0.55,-1.75 1.89,-1.75 1.1,0 2.69,0.9 2.69,2.89 0,2.59 -2.94,3.29 -4.63,3.29 -2.89,0 -4.64,-2.64 -5.23,-3.79 -1.24,3.29 -3.94,3.79 -5.38,3.79 -5.18,0 -8.02,-6.43 -8.02,-7.67 0,-0.5 0.5,-0.5 0.6,-0.5 0.39,0 0.54,0.1 0.64,0.54 1.7,5.29 4.99,6.53 6.68,6.53 0.94,0 2.69,-0.45 2.69,-3.33 0,-1.55 -0.85,-4.89 -2.69,-11.86 -0.8,-3.09 -2.54,-5.18 -4.73,-5.18 -0.3,0 -1.45,0 -2.49,0.65 1.24,0.25 2.34,1.29 2.34,2.69 0,1.34 -1.1,1.74 -1.85,1.74 -1.49,0 -2.73,-1.3 -2.73,-2.89 0,-2.29 2.48,-3.29 4.68,-3.29 3.28,0 5.08,3.49 5.22,3.79 0.61,-1.85 2.4,-3.79 5.39,-3.79 5.13,0 7.97,6.43 7.97,7.67 0,0.5 -0.45,0.5 -0.6,0.5 -0.45,0 -0.55,-0.2 -0.65,-0.55 -1.64,-5.33 -5.03,-6.52 -6.62,-6.52 -1.94,0 -2.74,1.59 -2.74,3.29 0,1.09 0.3,2.19 0.85,4.38 z"
           inkscape:connector-curvature="0"
           style="fill:#000000;stroke-width:0" /><path
           id="path3419"
           d="m 581.4,418.45 -0.01,0.37 0,0.39 -0.01,0.39 -0.01,0.41 -0.04,0.84 -0.06,0.88 -0.09,0.92 -0.1,0.94 -0.14,0.98 -0.16,1 -0.2,1.02 -0.23,1.04 -0.27,1.05 -0.3,1.06 -0.35,1.06 -0.39,1.07 -0.22,0.53 -0.22,0.54 -0.24,0.53 -0.25,0.53 c -2.99,6.12 -7.27,9.36 -7.77,9.36 -0.3,0 -0.5,-0.2 -0.5,-0.5 0,-0.15 0,-0.25 0.94,-1.15 4.89,-4.92 7.73,-12.85 7.73,-23.26 0,-8.52 -1.85,-17.28 -8.02,-23.56 -0.65,-0.6 -0.65,-0.69 -0.65,-0.85 0,-0.29 0.2,-0.49 0.5,-0.49 0.5,0 4.98,3.38 7.92,9.71 2.54,5.48 3.14,11.01 3.14,15.19 z"
           inkscape:connector-curvature="0"
           style="fill:#000000;stroke-width:0" /></g>    </g>
  </g>
</svg>
