<svg xmlns="http://www.w3.org/2000/svg" viewBox="0 0 1513.5 880.5"><defs><style>.cls-1{fill:none;}.cls-1,.cls-13,.cls-14,.cls-3,.cls-4,.cls-6,.cls-8{stroke:#000;stroke-miterlimit:10;}.cls-2{font-size:25px;}.cls-10,.cls-2{font-family:Helvetica-Bold, Helvetica;font-weight:700;}.cls-3{fill:#bebcde;}.cls-4{fill:#e2edc1;}.cls-5{font-size:18.56px;}.cls-12,.cls-15,.cls-19,.cls-5,.cls-9{font-family:Helvetica;}.cls-6{fill:#c8eaf5;}.cls-7{letter-spacing:-0.07em;}.cls-18,.cls-8{fill:#ffead0;}.cls-9{font-size:20px;}.cls-10,.cls-12{font-size:24.75px;}.cls-11{letter-spacing:-0.05em;}.cls-13{fill:#fff;opacity:0.75;}.cls-15{font-size:20.63px;}.cls-16{letter-spacing:-0.05em;}.cls-17{letter-spacing:0em;}.cls-19{font-size:16.39px;}</style></defs><g id="legend"><rect class="cls-1" x="1217" y="517" width="296" height="363"/><text class="cls-2" transform="translate(1235.72 551.32)">Legend</text><rect class="cls-3" x="1260.13" y="712.08" width="186.87" height="66.01"/><rect class="cls-4" x="1261.1" y="809.06" width="127.9" height="41.25" rx="10"/><text class="cls-5" transform="translate(1276.09 835.84)">Data Object</text><rect class="cls-6" x="1260.22" y="647.91" width="170.78" height="41.25"/><text class="cls-5" transform="translate(1272.21 674.69)">Instance <tspan class="cls-7" x="75.34" y="0">V</tspan><tspan x="86.35" y="0">ariable</tspan></text><rect class="cls-8" x="1259.94" y="582" width="160.06" height="45.83"/><text class="cls-9" transform="translate(1273.57 610.94)">Class Instance</text><text class="cls-9" transform="translate(1274.51 751.17)">Instance Function</text></g><g id="anndatamanagerout"><rect class="cls-8" x="858.01" y="668.81" width="266.09" height="140.26"/><text class="cls-10" transform="translate(877.53 714.49)">AnnDataManager</text><rect class="cls-4" x="911.64" y="745.13" width="150.58" height="41.25" rx="10"/><text class="cls-5" transform="translate(926.63 771.91)">Other<tspan class="cls-11" x="46.43" y="0"> </tspan><tspan x="50.57" y="0">AnnData</tspan></text></g><g id="anndatamanager"><rect class="cls-8" x="0.5" y="0.5" width="713.69" height="808.57"/><text class="cls-10" transform="translate(22.19 41.19)">AnnDataManager</text><rect class="cls-6" x="27.31" y="64.44" width="664.19" height="340.34"/><text class="cls-12" transform="translate(34.79 97.2)">self.fields</text><rect class="cls-13" x="47.37" y="122.35" width="625.57" height="45.23"/><rect class="cls-13" x="48.12" y="189.47" width="625.57" height="45.23"/><rect class="cls-13" x="48.12" y="337.98" width="625.57" height="45.23"/><circle class="cls-14" cx="360.44" cy="257.3" r="3.09"/><circle class="cls-14" cx="360.44" cy="286.18" r="3.09"/><circle class="cls-14" cx="360.44" cy="315.06" r="3.09"/><text class="cls-12" transform="translate(203.97 153.72)">LayerField(”X”, “raw_counts”)</text><text class="cls-12" transform="translate(156.54 221.61)">CategoricalObsField(”batch”, “batch”)</text><text class="cls-12" transform="translate(140.71 370.33)">CategoricalObsField(”labels”, “cell_types”)</text><line class="cls-1" x1="260.11" y1="452.05" x2="260.11" y2="404.79"/><polygon points="263.1 451.17 260.11 456.35 257.11 451.17 263.1 451.17"/><rect class="cls-3" x="166.77" y="456.73" width="182.55" height="69.1"/><text class="cls-5" transform="translate(204.42 497.19)">register_fields</text><rect class="cls-4" x="25.25" y="470.79" width="103.13" height="41.25" rx="10"/><text class="cls-5" transform="translate(40.24 497.57)">AnnData</text><line class="cls-1" x1="163.27" y1="491.42" x2="128.39" y2="491.42"/><polygon points="162.4 488.43 167.58 491.42 162.4 494.42 162.4 488.43"/><line class="cls-1" x1="260.4" y1="526.49" x2="260.4" y2="578.05"/><line class="cls-1" x1="104.67" y1="578.05" x2="416.13" y2="578.05"/><line class="cls-1" x1="105.7" y1="626.35" x2="105.7" y2="579.08"/><polygon points="108.69 625.47 105.7 630.65 102.7 625.47 108.69 625.47"/><line class="cls-1" x1="260.4" y1="626.35" x2="260.4" y2="579.08"/><polygon points="263.39 625.47 260.4 630.65 257.41 625.47 263.39 625.47"/><line class="cls-1" x1="417.16" y1="624.28" x2="417.16" y2="577.02"/><polygon points="420.15 623.41 417.16 628.59 414.17 623.41 420.15 623.41"/><rect class="cls-6" x="19.06" y="637.87" width="480.61" height="127.89"/><rect class="cls-13" x="188.2" y="685.31" width="134.07" height="39.19"/><text class="cls-5" transform="translate(200.48 708.69)">state_registry</text><rect class="cls-13" x="33.5" y="687.37" width="134.07" height="39.19"/><text class="cls-5" transform="translate(47.84 710.75)">data_registry</text><rect class="cls-13" x="338.78" y="685.31" width="148.51" height="39.19"/><text class="cls-5" transform="translate(351.05 708.69)">summary_stats</text><text class="cls-15" transform="translate(34.58 666.47)">self.registry</text><rect class="cls-3" x="536.8" y="667.58" width="144.39" height="69.1"/><text class="cls-5" transform="translate(548.99 708.04)">transfer_setup</text><rect class="cls-4" x="532.67" y="569.8" width="150.58" height="41.25" rx="10"/><text class="cls-5" transform="translate(547.66 596.58)">Other<tspan class="cls-16" x="46.43" y="0"> </tspan><tspan class="cls-17" x="50.57" y="0">AnnData</tspan></text><line class="cls-1" x1="608.99" y1="662.44" x2="608.99" y2="612.09"/><polygon points="611.99 661.57 608.99 666.75 606 661.57 611.99 661.57"/><line class="cls-1" x1="532.49" y1="705.94" x2="499.67" y2="705.94"/><polygon points="531.62 702.95 536.8 705.94 531.62 708.93 531.62 702.95"/><line class="cls-1" x1="853.69" y1="705.94" x2="682.22" y2="705.94"/><polygon points="852.82 702.95 858 705.94 852.82 708.93 852.82 702.95"/><line class="cls-1" x1="386.67" y1="491.59" x2="351.78" y2="491.59"/><polygon points="385.79 488.6 390.97 491.59 385.79 494.58 385.79 488.6"/><rect class="cls-18" x="391.81" y="470.96" width="103.13" height="41.25"/><rect class="cls-6" x="391.81" y="470.96" width="103.13" height="41.25"/><rect class="cls-1" x="391.81" y="470.96" width="103.13" height="41.25"/><text class="cls-5" transform="translate(405.33 497.55)">self.adata</text></g><g id="baseanndatafield"><line class="cls-1" x1="674" y1="145" x2="845.63" y2="144.89"/><line class="cls-1" x1="674" y1="213" x2="845.63" y2="212.96"/><line class="cls-1" x1="674" y1="364" x2="845.63" y2="363.53"/><rect class="cls-8" x="858.01" y="54.13" width="569.3" height="400.16"/><text class="cls-10" transform="translate(875.14 89.21)">BaseAnnDataField</text><text x="-210.5" y="-123.5"/><rect class="cls-3" x="902.36" y="187.17" width="182.55" height="69.1"/><rect class="cls-4" x="926.08" y="283.09" width="134.07" height="39.19" rx="5.4"/><rect class="cls-3" x="1177.73" y="268.65" width="198.02" height="66.01"/><rect class="cls-4" x="942.58" y="118.07" width="103.13" height="41.25" rx="10"/><text class="cls-5" transform="translate(957.57 144.85)">AnnData</text><rect class="cls-4" x="1202.48" y="192.33" width="150.58" height="41.25" rx="10"/><text class="cls-5" transform="translate(1217.47 219.11)">Other<tspan class="cls-11" x="46.43" y="0"> </tspan><tspan x="50.57" y="0">AnnData</tspan></text><text class="cls-5" transform="translate(942.08 227.63)">register_field</text><text class="cls-5" transform="translate(1218.15 306.34)">transfer_setup</text><text class="cls-5" transform="translate(938.35 306.46)">state_registry</text><line class="cls-1" x1="992.09" y1="182.87" x2="992.09" y2="162.42"/><polygon points="995.08 181.99 992.09 187.17 989.09 181.99 995.08 181.99"/><line class="cls-1" x1="994.15" y1="277.75" x2="994.15" y2="257.3"/><polygon points="997.14 276.88 994.15 282.06 991.16 276.88 997.14 276.88"/><line class="cls-1" x1="1276.74" y1="262.28" x2="1276.74" y2="234.62"/><polygon points="1279.73 261.41 1276.74 266.59 1273.74 261.41 1279.73 261.41"/><line class="cls-1" x1="1277.23" y1="365.46" x2="1277.23" y2="337.8"/><polygon points="1280.22 364.59 1277.23 369.77 1274.23 364.59 1280.22 364.59"/><line class="cls-1" x1="1169.3" y1="302.73" x2="1064.77" y2="302.73"/><polygon points="1168.42 299.74 1173.6 302.73 1168.42 305.72 1168.42 299.74"/><rect class="cls-4" x="1210.73" y="373.85" width="134.07" height="39.19" rx="5.4"/><text class="cls-5" transform="translate(1223 397.22)">state_registry</text><line class="cls-1" x1="897.02" y1="219.14" x2="845.63" y2="219.14"/><polygon points="896.15 216.15 901.33 219.15 896.15 222.14 896.15 216.15"/><line class="cls-1" x1="845.63" y1="143.86" x2="845.63" y2="364.56"/><text class="cls-19" transform="translate(739.75 206.57)">implements</text><text class="cls-9" transform="translate(745.67 695.81)">initializes</text></g></svg>