<svg xmlns="http://www.w3.org/2000/svg" viewBox="0 0 1921 1081"><defs><style>.cls-1,.cls-14{fill:#fff;}.cls-1,.cls-14,.cls-15,.cls-2,.cls-4,.cls-5,.cls-7,.cls-9{stroke:#000;stroke-miterlimit:10;}.cls-2{fill:none;}.cls-3{font-size:25px;}.cls-11,.cls-3{font-family:Helvetica-Bold, Helvetica;font-weight:700;}.cls-4{fill:#bebcde;}.cls-5{fill:#e2edc1;}.cls-6{font-size:18.56px;}.cls-10,.cls-13,.cls-16,.cls-20,.cls-6{font-family:Helvetica;}.cls-7{fill:#c8eaf5;}.cls-8{letter-spacing:-0.07em;}.cls-19,.cls-9{fill:#ffead0;}.cls-10{font-size:20px;}.cls-11,.cls-13{font-size:24.75px;}.cls-12{letter-spacing:-0.05em;}.cls-14{opacity:0.75;}.cls-16{font-size:20.63px;}.cls-17{letter-spacing:-0.05em;}.cls-18{letter-spacing:0em;}.cls-20{font-size:16.39px;}</style></defs><g id="bg"><rect class="cls-1" x="0.5" y="0.5" width="1920" height="1080"/></g><g id="legend"><rect class="cls-2" x="1428.5" y="640.5" width="296" height="363"/><text class="cls-3" transform="translate(1447.22 674.82)">Legend</text><rect class="cls-4" x="1471.63" y="835.58" width="186.87" height="66.01"/><rect class="cls-5" x="1472.6" y="932.56" width="127.9" height="41.25" rx="10"/><text class="cls-6" transform="translate(1487.59 959.34)">Data Object</text><rect class="cls-7" x="1471.72" y="771.41" width="170.78" height="41.25"/><text class="cls-6" transform="translate(1483.71 798.19)">Instance <tspan class="cls-8" x="75.34" y="0">V</tspan><tspan x="86.35" y="0">ariable</tspan></text><rect class="cls-9" x="1471.44" y="705.5" width="160.06" height="45.83"/><text class="cls-10" transform="translate(1485.07 734.44)">Class Instance</text><text class="cls-10" transform="translate(1486.01 874.67)">Instance Function</text></g><g id="anndatamanagerout"><rect class="cls-9" x="1069.51" y="792.31" width="266.09" height="140.26"/><text class="cls-11" transform="translate(1089.03 837.99)">AnnDataManager</text><rect class="cls-5" x="1123.14" y="868.63" width="150.58" height="41.25" rx="10"/><text class="cls-6" transform="translate(1138.13 895.41)">Other<tspan class="cls-12" x="46.43" y="0"> </tspan><tspan x="50.57" y="0">AnnData</tspan></text></g><g id="anndatamanager"><rect class="cls-9" x="212" y="124" width="713.69" height="808.57"/><text class="cls-11" transform="translate(233.69 164.69)">AnnDataManager</text><rect class="cls-7" x="238.81" y="187.94" width="664.19" height="340.34"/><text class="cls-13" transform="translate(246.29 220.7)">self.fields</text><rect class="cls-14" x="258.87" y="245.85" width="625.57" height="45.23"/><rect class="cls-14" x="259.62" y="312.97" width="625.57" height="45.23"/><rect class="cls-14" x="259.62" y="461.48" width="625.57" height="45.23"/><circle class="cls-15" cx="571.94" cy="380.8" r="3.09"/><circle class="cls-15" cx="571.94" cy="409.68" r="3.09"/><circle class="cls-15" cx="571.94" cy="438.56" r="3.09"/><text class="cls-13" transform="translate(415.47 277.22)">LayerField(”X”, “raw_counts”)</text><text class="cls-13" transform="translate(368.04 345.11)">CategoricalObsField(”batch”, “batch”)</text><text class="cls-13" transform="translate(352.21 493.83)">CategoricalObsField(”labels”, “cell_types”)</text><line class="cls-2" x1="471.61" y1="575.55" x2="471.61" y2="528.29"/><polygon points="474.6 574.67 471.61 579.85 468.61 574.67 474.6 574.67"/><rect class="cls-4" x="378.27" y="580.23" width="182.55" height="69.1"/><text class="cls-6" transform="translate(415.92 620.69)">register_fields</text><rect class="cls-5" x="236.75" y="594.29" width="103.13" height="41.25" rx="10"/><text class="cls-6" transform="translate(251.74 621.07)">AnnData</text><line class="cls-2" x1="374.77" y1="614.92" x2="339.89" y2="614.92"/><polygon points="373.9 611.93 379.08 614.92 373.9 617.91 373.9 611.93"/><line class="cls-2" x1="471.9" y1="649.99" x2="471.9" y2="701.55"/><line class="cls-2" x1="316.17" y1="701.55" x2="627.63" y2="701.55"/><line class="cls-2" x1="317.2" y1="749.85" x2="317.2" y2="702.58"/><polygon points="320.19 748.97 317.2 754.15 314.2 748.97 320.19 748.97"/><line class="cls-2" x1="471.9" y1="749.85" x2="471.9" y2="702.58"/><polygon points="474.89 748.97 471.9 754.15 468.91 748.97 474.89 748.97"/><line class="cls-2" x1="628.66" y1="747.78" x2="628.66" y2="700.52"/><polygon points="631.65 746.91 628.66 752.09 625.67 746.91 631.65 746.91"/><rect class="cls-7" x="230.56" y="761.37" width="480.61" height="127.89"/><rect class="cls-14" x="399.7" y="808.81" width="134.07" height="39.19"/><text class="cls-6" transform="translate(411.98 834.19)">state_registry</text><rect class="cls-14" x="245" y="810.87" width="134.07" height="39.19"/><text class="cls-6" transform="translate(259.34 836.25)">data_registry</text><rect class="cls-14" x="550.28" y="808.81" width="148.51" height="39.19"/><text class="cls-6" transform="translate(562.55 834.19)">summary_stats</text><text class="cls-16" transform="translate(246.08 789.97)">self.registry</text><rect class="cls-4" x="748.3" y="791.08" width="144.39" height="69.1"/><text class="cls-6" transform="translate(762.49 831.54)">transfer_fields</text><rect class="cls-5" x="744.17" y="693.3" width="150.58" height="41.25" rx="10"/><text class="cls-6" transform="translate(759.16 720.08)">Other<tspan class="cls-17" x="46.43" y="0"> </tspan><tspan class="cls-18" x="50.57" y="0">AnnData</tspan></text><line class="cls-2" x1="820.49" y1="785.94" x2="820.49" y2="735.59"/><polygon points="823.49 785.07 820.49 790.25 817.5 785.07 823.49 785.07"/><line class="cls-2" x1="743.99" y1="829.44" x2="711.17" y2="829.44"/><polygon points="743.12 826.45 748.3 829.44 743.12 832.43 743.12 826.45"/><line class="cls-2" x1="1065.19" y1="829.44" x2="893.72" y2="829.44"/><polygon points="1064.32 826.45 1069.5 829.44 1064.32 832.43 1064.32 826.45"/><line class="cls-2" x1="598.17" y1="615.09" x2="563.28" y2="615.09"/><polygon points="597.29 612.1 602.47 615.09 597.29 618.08 597.29 612.1"/><rect class="cls-19" x="603.31" y="594.46" width="103.13" height="41.25"/><rect class="cls-7" x="603.31" y="594.46" width="103.13" height="41.25"/><rect class="cls-2" x="603.31" y="594.46" width="103.13" height="41.25"/><text class="cls-6" transform="translate(616.83 621.05)">self.adata</text></g><g id="baseanndatafield"><line class="cls-2" x1="885.5" y1="268.5" x2="1057.13" y2="268.39"/><line class="cls-2" x1="885.5" y1="336.5" x2="1057.13" y2="336.46"/><line class="cls-2" x1="885.5" y1="487.5" x2="1057.13" y2="487.03"/><rect class="cls-9" x="1069.51" y="177.63" width="569.3" height="400.16"/><text class="cls-11" transform="translate(1086.64 212.71)">BaseAnnDataField</text><text x="1"/><rect class="cls-4" x="1113.86" y="310.67" width="182.55" height="69.1"/><rect class="cls-5" x="1137.58" y="406.59" width="134.07" height="39.19" rx="5.4"/><rect class="cls-4" x="1389.23" y="392.15" width="198.02" height="66.01"/><rect class="cls-5" x="1154.08" y="241.57" width="103.13" height="41.25" rx="10"/><text class="cls-6" transform="translate(1169.07 268.35)">AnnData</text><rect class="cls-5" x="1413.98" y="315.83" width="150.58" height="41.25" rx="10"/><text class="cls-6" transform="translate(1428.97 342.61)">Other<tspan class="cls-12" x="46.43" y="0"> </tspan><tspan x="50.57" y="0">AnnData</tspan></text><text class="cls-6" transform="translate(1153.58 351.13)">register_field</text><text class="cls-6" transform="translate(1432.65 429.84)">transfer_fields</text><text class="cls-6" transform="translate(1149.85 429.96)">state_registry</text><line class="cls-2" x1="1203.59" y1="306.37" x2="1203.59" y2="285.92"/><polygon points="1206.58 305.49 1203.59 310.67 1200.59 305.49 1206.58 305.49"/><line class="cls-2" x1="1205.65" y1="401.25" x2="1205.65" y2="380.8"/><polygon points="1208.64 400.38 1205.65 405.56 1202.66 400.38 1208.64 400.38"/><line class="cls-2" x1="1488.24" y1="385.78" x2="1488.24" y2="358.12"/><polygon points="1491.23 384.91 1488.24 390.09 1485.24 384.91 1491.23 384.91"/><line class="cls-2" x1="1488.73" y1="488.96" x2="1488.73" y2="461.3"/><polygon points="1491.72 488.09 1488.73 493.27 1485.73 488.09 1491.72 488.09"/><line class="cls-2" x1="1380.8" y1="426.23" x2="1276.27" y2="426.23"/><polygon points="1379.92 423.24 1385.1 426.23 1379.92 429.22 1379.92 423.24"/><rect class="cls-5" x="1422.23" y="497.35" width="134.07" height="39.19" rx="5.4"/><text class="cls-6" transform="translate(1434.5 520.72)">state_registry</text><line class="cls-2" x1="1108.52" y1="342.64" x2="1057.13" y2="342.64"/><polygon points="1107.65 339.65 1112.83 342.64 1107.65 345.64 1107.65 339.65"/><line class="cls-2" x1="1057.13" y1="267.36" x2="1057.13" y2="488.06"/><text class="cls-20" transform="translate(951.25 330.07)">implements</text><text class="cls-10" transform="translate(957.17 819.31)">initializes</text></g></svg>
