<svg id="Layer_1" data-name="Layer 1" xmlns="http://www.w3.org/2000/svg" xmlns:xlink="http://www.w3.org/1999/xlink" viewBox="0 0 147.14 77.33"><defs><style>.cls-1,.cls-11,.cls-12,.cls-13,.cls-5{fill:none;}.cls-2{clip-path:url(#clip-path);}.cls-3{clip-path:url(#clip-path-2);}.cls-4{fill:#fff;}.cls-5{stroke:#000;}.cls-11,.cls-12,.cls-13,.cls-5{stroke-miterlimit:10;stroke-width:0.59px;}.cls-6{font-size:7.1px;}.cls-10,.cls-14,.cls-6,.cls-7,.cls-9{font-family:MyriadPro-Regular, Myriad Pro;}.cls-10,.cls-7,.cls-9{font-size:4.73px;}.cls-7{letter-spacing:0.01em;}.cls-8{letter-spacing:0em;}.cls-9{letter-spacing:-0.01em;}.cls-11,.cls-12,.cls-13{stroke:#6dc8bf;}.cls-12{stroke-dasharray:4.85 4.85;}.cls-13{stroke-dasharray:4.5 4.5;}.cls-14{font-size:6.21px;}.cls-15{letter-spacing:-0.06em;}.cls-16{letter-spacing:0em;}.cls-17{letter-spacing:0em;}.cls-18{letter-spacing:0em;}.cls-19{letter-spacing:0em;}.cls-20{letter-spacing:-0.01em;}.cls-21{opacity:0;}.cls-22{clip-path:url(#clip-path-5);}.cls-23{clip-path:url(#clip-path-6);}.cls-24{clip-path:url(#clip-path-7);}</style><clipPath id="clip-path"><rect class="cls-1" y="9.6" width="153.03" height="67.73"/></clipPath><clipPath id="clip-path-2"><rect class="cls-1" x="-132.34" y="-60.83" width="285.37" height="209.87"/></clipPath><clipPath id="clip-path-5"><rect class="cls-1" x="35.94" y="41.33" width="4.14" height="5.32"/></clipPath><clipPath id="clip-path-6"><rect class="cls-1" x="82.01" y="40.54" width="5.32" height="5.32"/></clipPath><clipPath id="clip-path-7"><rect class="cls-1" x="108.14" y="40.3" width="10.65" height="5.8"/></clipPath></defs><g class="cls-2"><g class="cls-3"><g class="cls-3"><rect class="cls-4" x="17.07" y="22.45" width="41.9" height="41.9"/><rect class="cls-5" x="17.07" y="22.45" width="41.9" height="41.9"/><rect class="cls-4" x="78.99" y="22.25" width="10.97" height="41.9"/><rect class="cls-5" x="78.99" y="22.25" width="10.97" height="41.9"/><text class="cls-6" transform="translate(66.13 44.69)">=</text><rect class="cls-4" x="93.65" y="37.72" width="41.9" height="10.98"/><rect class="cls-5" x="93.65" y="37.72" width="41.9" height="10.98"/><text class="cls-7" transform="translate(93.65 36.36)">G<tspan class="cls-8" x="3.08" y="0">enes</tspan></text><text class="cls-9" transform="translate(15.63 31.62) rotate(-90)">C<tspan class="cls-8" x="2.7" y="0">ells</tspan></text><text class="cls-7" transform="translate(17.07 20.78)">G<tspan class="cls-8" x="3.08" y="0">enes</tspan></text><text class="cls-10" transform="translate(78.99 20.78)">Dim</text><polyline class="cls-11" points="140.19 71.06 140.19 73.43 137.82 73.43"/><line class="cls-12" x1="132.97" y1="73.43" x2="9.29" y2="73.43"/><polyline class="cls-11" points="6.87 73.43 4.5 73.43 4.5 71.06"/><line class="cls-13" x1="4.5" y1="66.56" x2="4.5" y2="14.81"/><polyline class="cls-11" points="4.5 12.56 4.5 10.19 6.87 10.19"/><line class="cls-12" x1="11.72" y1="10.19" x2="135.4" y2="10.19"/><polyline class="cls-11" points="137.82 10.19 140.19 10.19 140.19 12.56"/><line class="cls-13" x1="140.19" y1="17.06" x2="140.19" y2="68.81"/><text class="cls-14" transform="translate(3.71 8.24)">LD<tspan class="cls-15" x="7.06" y="0">V</tspan><tspan x="10.17" y="0">AE (i</tspan><tspan class="cls-16" x="21.56" y="0">n</tspan><tspan class="cls-17" x="24.98" y="0">t</tspan><tspan class="cls-18" x="27" y="0">e</tspan><tspan class="cls-19" x="30.11" y="0">r</tspan><tspan x="32.16" y="0">p</tspan><tspan class="cls-20" x="35.7" y="0">r</tspan><tspan x="37.67" y="0">etable)</tspan></text><g class="cls-22"><path d="M37.39,42.52c0-.15.11-.42.11-.45a.18.18,0,0,0-.2-.19.3.3,0,0,0-.29.25l-1,4.08a.48.48,0,0,0,0,.12.18.18,0,0,0,.19.19.31.31,0,0,0,.25-.15c0-.07.12-.43.39-1.52a1.1,1.1,0,0,0,.68.22,1.22,1.22,0,0,0,.94-.51.64.64,0,0,0,.64.51.59.59,0,0,0,.52-.39,3.41,3.41,0,0,0,.21-.7c0-.07-.06-.07-.09-.07s-.07,0-.09.13c-.12.46-.25.88-.54.88s-.21-.19-.21-.33a4.55,4.55,0,0,1,.14-.73l.2-.76c0-.11.09-.38.12-.48s.1-.43.1-.48a.19.19,0,0,0-.2-.19.29.29,0,0,0-.28.25l-.33,1.32c-.08.35-.16.65-.18.72s-.35.68-.92.68c-.35,0-.52-.24-.52-.62a2.51,2.51,0,0,1,.1-.6l.29-1.18"/></g><g class="cls-23"><path d="M87,41s0-.06,0-.1,0-.07-.18-.07h-3c-.16,0-.17,0-.21.14l-.39,1.27a.24.24,0,0,0,0,.1.07.07,0,0,0,.08.08.1.1,0,0,0,.09-.07A1.57,1.57,0,0,1,85.12,41h1.15l-4,4.41s0,.1,0,.12,0,.07.17.07h3.07c.17,0,.18,0,.22-.14l.5-1.56a.45.45,0,0,0,0-.11.08.08,0,0,0-.09-.07c-.07,0-.07,0-.12.17-.31,1-.65,1.47-1.85,1.47H83L87,41"/></g><g class="cls-24"><path d="M114.37,41.87c.18-.31.34-.57.79-.6.06,0,.13,0,.13-.14a.09.09,0,0,0-.08-.08l-.55,0-.73,0s-.13,0-.13.13.06.09.1.09.42.06.42.27a.55.55,0,0,1-.09.24l-1.91,3.32-.26-3.5c0-.14,0-.33.5-.33.12,0,.19,0,.19-.14s-.08-.08-.11-.08l-.86,0-.74,0s-.13,0-.13.14.07.08.17.08c.31,0,.35,0,.37.17l0,.55-1.78,3.11-.27-3.58c0-.08,0-.25.54-.25.06,0,.14,0,.14-.14s-.08-.08-.1-.08l-.86,0-.74,0s-.13,0-.13.13.06.09.18.09c.35,0,.36.06.37.26l.32,4.31c0,.12,0,.18.11.18s.11,0,.17-.15l2.07-3.59.26,3.56c0,.15,0,.18.12.18s.13-.07.17-.13l2.31-4"/><path d="M117.44,41.31h.67c.07,0,.31,0,.31-.24s-.25-.25-.31-.25h-1.82c-.07,0-.31,0-.31.25s.24.24.31.24H117v2.41c0,.07,0,.31.25.31s.24-.25.24-.31V41.31"/></g><text class="cls-9" transform="translate(77.6 31.43) rotate(-90)">C<tspan class="cls-8" x="2.7" y="0">ells</tspan></text></g></g></g></svg>
