<svg id="Layer_1" data-name="Layer 1" xmlns="http://www.w3.org/2000/svg" viewBox="0 0 186.06 193.45"><defs><style>.cls-1,.cls-10,.cls-3,.cls-8{fill:#859439;}.cls-2,.cls-4,.cls-7{fill:none;}.cls-2,.cls-6{stroke:#231f20;}.cls-2,.cls-4,.cls-5,.cls-6,.cls-7{stroke-miterlimit:10;}.cls-3{font-size:11.03px;}.cls-3,.cls-8{font-family:MyriadPro-Regular, Myriad Pro;}.cls-4{stroke:#859439;}.cls-5{fill:#d1d3d4;stroke:#58595b;stroke-width:0.5px;opacity:0.77;}.cls-6{fill:#939598;opacity:0.75;}.cls-6,.cls-7{stroke-width:0.75px;}.cls-7{stroke:#3c7ea1;}.cls-8{font-size:11.03px;}.cls-10,.cls-9{font-size:12.59px;font-family:TradeGothicNextLTPro-Rg, Trade Gothic Next LT Pro;}.cls-9{fill:#3d7ea1;}</style></defs><polygon class="cls-1" points="139.46 163 142.18 171.03 136.56 177.48 128.22 175.9 125.51 167.87 131.13 161.41 139.46 163"/><line class="cls-2" x1="124.35" y1="190.71" x2="105.45" y2="182.42"/><line class="cls-2" x1="126.44" y1="169.73" x2="105.45" y2="182.42"/><path class="cls-2" d="M105.44,182.42l-20.54.92-8.6.38"/><text class="cls-3" transform="matrix(0.81, 0.56, 0.57, -0.82, 16.33, 164.84)">AAAAA</text><path class="cls-4" d="M40.5,187.32c5,5.41,7.54,6.05,8.89,5.44,2.54-1.15,1.81-7.17,3.89-7.6,1.81-.37,3.13,4.1,5.56,4.12,2.69,0,3.16-7.53,5.72-7.7,1.68-.11,2.22,3,4.3,3,2.55.07,3.7-4.51,6-4.43.87,0,2.13.75,3.55,4.24"/><polygon class="cls-1" points="47.33 91.18 40.01 86.91 40.01 78.35 47.33 74.08 54.66 78.35 54.66 86.91 47.33 91.18"/><path class="cls-5" d="M181.8,112.78c-5.51,8.74-12.27,5.56-22.45,14.65-16.38,14.62-9.66,32.5-21.22,38-10.77,5.1-17.88-9.86-46.51-15.68-20.79-4.22-28.69,1.3-36.73-6.6-8.31-8.17-7.8-21.84-7.34-33.84.32-8.75.74-19.74,8.16-28.06,4.88-5.48,9.44-6,18.77-9.91,28.83-12,29.85-25.21,42.64-23.93,13.61,1.36,13.43,16.44,33.26,22.28,13.07,3.86,17.94-1.29,25.3,4.13C186.07,81.44,189.11,101.16,181.8,112.78Z"/><ellipse class="cls-6" cx="116.57" cy="106.86" rx="22.66" ry="22.92"/><path class="cls-7" d="M58.37,99.55c11.15,4.43,15.24,3.65,16.77,1.82,2.9-3.45-2.37-11.77.35-13.83,2.39-1.8,7.43,3.83,11,2.18,3.94-1.83-.67-13.22,2.94-15.24,2.37-1.33,5.32,2.79,8.39,1.44,3.77-1.65,2.24-9.17,5.65-10.64,1.3-.56,3.64-.37,8.15,3.75"/><path class="cls-7" d="M62.3,122.27c2.51,11.85,5.42,14.86,7.77,15.14,4.44.54,8.38-8.5,11.59-7.34,2.8,1,1,8.37,4.28,10.46,3.68,2.32,10.53-7.86,14.18-5.93,2.41,1.26.64,6,3.45,7.86,3.45,2.27,8.8-3.17,11.89-1.11,1.18.78,2.32,2.86,1.42,8.94"/><path class="cls-7" d="M148.48,99.32c5.44-9.26,5.4-12,4.08-12.68-2.47-1.21-10.31,4.77-11.64,3.32-1.17-1.27,4.36-6.39,3.5-8.56-.95-2.39-11.28,3.9-12.45,1.79-.76-1.38,3.17-4.59,2.5-6.47-.83-2.32-7.43.73-8.15-1.37-.28-.8.23-2.55,4.41-6.9"/><path class="cls-7" d="M153.3,114c10.2,2.28,12.52,1.61,12.48.39-.07-2.3-8.57-7.29-7.93-8.71.55-1.24,7.31,2.07,8.76.88s-8.26-8.29-7-9.72c.83-.94,5.27,1.52,6.56.54,1.59-1.21-3.9-5.87-2.44-7,.55-.41,2.25-.4,7.76,2"/><line class="cls-2" x1="40.53" y1="60.36" x2="60.23" y2="54.2"/><line class="cls-2" x1="52.73" y1="77.55" x2="60.23" y2="54.2"/><path class="cls-2" d="M60.23,54.2,75.12,40l6.24-5.94"/><text class="cls-8" transform="matrix(-0.98, 0.11, 0.11, 0.99, 138.92, 9.18)">AAAAA</text><path class="cls-4" d="M106,7.87c-7.36-.77-9.66.38-10.28,1.72-1.16,2.54,3.34,6.61,2.06,8.29-1.13,1.47-5-1-6.9.54-2,1.75,2.56,7.76.74,9.56-1.19,1.19-3.62-.77-5.22.55-2,1.62.16,5.83-1.62,7.28-.69.55-2.11.83-5.47-.87"/><text class="cls-9" transform="translate(120.32 146.22)">RNA</text><text class="cls-10" transform="translate(0 102.82)">Protein</text></svg>
