<?xml version="1.0" encoding="utf-8"?>
<!-- Generator: Adobe Illustrator 24.1.0, SVG Export Plug-In . SVG Version: 6.00 Build 0)  -->
<svg version="1.1" id="Layer_1" xmlns="http://www.w3.org/2000/svg" xmlns:xlink="http://www.w3.org/1999/xlink" x="0px" y="0px"
	 viewBox="0 0 21.7 22.8" style="enable-background:new 0 0 21.7 22.8;" xml:space="preserve">
<style type="text/css">
	.st0{opacity:0.77;fill:#FBB516;stroke:#C3832B;stroke-width:0.5;stroke-miterlimit:10;enable-background:new    ;}
	.st1{opacity:0.75;fill:#C3832B;stroke:#A6572A;stroke-width:0.75;stroke-miterlimit:10;enable-background:new    ;}
</style>
<path class="st0" d="M21.4,5.1c0.1,1.8-1.2,2.1-1.7,4.4c-0.8,3.8,2,5.6,0.9,7.6s-3.5,0.4-8.2,2.6c-3.4,1.5-3.9,3.1-5.9,2.8
	s-3.4-2.3-4.5-4c-0.8-1.3-1.9-2.9-1.7-4.8c0.1-1.3,0.7-1.8,1.6-3.3c2.9-4.7,1.6-6.7,3.6-7.8s3.6,0.9,7-0.3c2.2-0.8,2.4-2,4-2
	C18.8,0.2,21.2,2.7,21.4,5.1z"/>
<ellipse transform="matrix(0.8091 -0.5876 0.5876 0.8091 -4.262 8.8821)" class="st1" cx="11.5" cy="11" rx="4" ry="4"/>
</svg>
