<?xml version="1.0" encoding="utf-8"?>
<!-- Generator: Adobe Illustrator 25.4.1, SVG Export Plug-In . SVG Version: 6.00 Build 0)  -->
<svg version="1.1" id="Layer_1" xmlns="http://www.w3.org/2000/svg" xmlns:xlink="http://www.w3.org/1999/xlink" x="0px" y="0px"
	 viewBox="0 0 448.7 157.4" style="enable-background:new 0 0 448.7 157.4;" xml:space="preserve">
<style type="text/css">
	.st0{fill:#E6E7E8;}
	.st1{font-family:'Helvetica-Bold';}
	.st2{font-size:10px;}
	.st3{font-size:9px;}
	.st4{fill:#939598;stroke:#000000;stroke-width:0.5;stroke-miterlimit:10;}
	.st5{fill:none;stroke:#000000;stroke-width:0.5;stroke-miterlimit:10;}
	.st6{fill:url(#SVGID_1_);stroke:#58595B;stroke-width:0.75;stroke-miterlimit:10;}
	.st7{fill:none;stroke:#A7A9AC;stroke-width:0.15;stroke-miterlimit:10;}
	.st8{opacity:0.7;fill:#58595B;enable-background:new    ;}

		.st9{fill:url(#SVGID_00000031172756471183325790000007976471080042955158_);stroke:#58595B;stroke-width:0.75;stroke-miterlimit:10;}
	.st10{fill:none;stroke:#A7A9AC;stroke-width:0.15;stroke-miterlimit:10.0004;}
	.st11{fill:#58595B;}
	.st12{opacity:0.6;fill:#A7A9AC;enable-background:new    ;}
	.st13{fill:#A7A9AC;}
	.st14{font-family:'Helvetica';}
	.st15{font-size:3.8089px;}
	.st16{font-size:6.5048px;}
	.st17{fill:#E6E7E8;stroke:#000000;stroke-width:0.5;stroke-miterlimit:10;}
	.st18{fill:#7257A5;}
	.st19{fill:#2B6BB4;}
	.st20{fill:none;stroke:#000000;stroke-width:0.75;stroke-miterlimit:10;}
	.st21{fill:none;stroke:#000000;stroke-width:0.75;stroke-miterlimit:10;stroke-dasharray:1.9749,1.9749;}
	.st22{font-family:'TradeGothicNextLTPro-It';}
	.st23{font-size:7px;}
	.st24{fill:#7257A5;stroke:#414042;stroke-width:5.000000e-02;stroke-miterlimit:10;}
	.st25{opacity:0.8;fill:#7257A5;stroke:#414042;stroke-width:5.000000e-02;stroke-miterlimit:10;enable-background:new    ;}
	.st26{opacity:0.55;fill:#7257A5;stroke:#414042;stroke-width:5.000000e-02;stroke-miterlimit:10;enable-background:new    ;}
	.st27{opacity:0.3;fill:#7257A5;stroke:#414042;stroke-width:5.000000e-02;stroke-miterlimit:10;enable-background:new    ;}
	.st28{opacity:0.78;fill:#7257A5;stroke:#414042;stroke-width:5.000000e-02;stroke-miterlimit:10;enable-background:new    ;}
	.st29{opacity:0.35;fill:#7257A5;stroke:#414042;stroke-width:5.000000e-02;stroke-miterlimit:10;enable-background:new    ;}
	.st30{opacity:0.9;fill:#7257A5;stroke:#414042;stroke-width:5.000000e-02;stroke-miterlimit:10;enable-background:new    ;}
	.st31{opacity:0.7;fill:#7257A5;stroke:#414042;stroke-width:5.000000e-02;stroke-miterlimit:10;enable-background:new    ;}
	.st32{fill:#EF4136;stroke:#414042;stroke-width:5.000000e-02;stroke-miterlimit:10;}
	.st33{opacity:0.8;fill:#00A651;stroke:#414042;stroke-width:5.000000e-02;stroke-miterlimit:10;enable-background:new    ;}
	.st34{opacity:0.55;fill:#00AEEF;stroke:#414042;stroke-width:5.000000e-02;stroke-miterlimit:10;enable-background:new    ;}
	.st35{opacity:0.3;fill:#00A651;stroke:#414042;stroke-width:5.000000e-02;stroke-miterlimit:10;enable-background:new    ;}
	.st36{fill:#F9ED32;stroke:#414042;stroke-width:5.000000e-02;stroke-miterlimit:10;}
	.st37{fill:#00A651;stroke:#414042;stroke-width:5.000000e-02;stroke-miterlimit:10;}
	.st38{opacity:0.78;fill:#EF4136;stroke:#414042;stroke-width:5.000000e-02;stroke-miterlimit:10;enable-background:new    ;}
	.st39{opacity:0.35;fill:#F9ED32;stroke:#414042;stroke-width:5.000000e-02;stroke-miterlimit:10;enable-background:new    ;}
	.st40{opacity:0.9;fill:#00AEEF;stroke:#414042;stroke-width:5.000000e-02;stroke-miterlimit:10;enable-background:new    ;}
	.st41{opacity:0.7;fill:#ED1C24;stroke:#414042;stroke-width:5.000000e-02;stroke-miterlimit:10;enable-background:new    ;}
	.st42{opacity:0.55;fill:#F9ED32;stroke:#414042;stroke-width:5.000000e-02;stroke-miterlimit:10;enable-background:new    ;}
	.st43{opacity:0.8;fill:#F9ED32;stroke:#414042;stroke-width:5.000000e-02;stroke-miterlimit:10;enable-background:new    ;}
	.st44{opacity:0.8;fill:#00AEEF;stroke:#414042;stroke-width:5.000000e-02;stroke-miterlimit:10;enable-background:new    ;}
	.st45{fill:none;stroke:#000000;stroke-width:0.5616;stroke-miterlimit:10;}

		.st46{fill:url(#SVGID_00000055688914491094301480000012746671746209304722_);stroke:#58595B;stroke-width:0.75;stroke-miterlimit:10;}
	.st47{fill:#F9ED32;}
	.st48{opacity:0.7;fill:#00AEEF;enable-background:new    ;}
	.st49{opacity:0.7;fill:#ED1C24;enable-background:new    ;}
	.st50{opacity:0.7;fill:#00A651;enable-background:new    ;}

		.st51{fill:url(#SVGID_00000156571427191889865260000004796817134446127288_);stroke:#58595B;stroke-width:0.75;stroke-miterlimit:10;}

		.st52{fill:url(#SVGID_00000151519685054803662470000016714642096328725175_);stroke:#58595B;stroke-width:0.75;stroke-miterlimit:10;}
	.st53{fill:none;stroke:#000000;stroke-width:0.288;stroke-miterlimit:10;}
	.st54{fill:#ED1C24;stroke:#414042;stroke-width:5.000000e-02;stroke-miterlimit:10;}
	.st55{fill:#00AEEF;stroke:#414042;stroke-width:5.000000e-02;stroke-miterlimit:10;}
	.st56{opacity:0.8;fill:#939598;stroke:#414042;stroke-width:5.000000e-02;stroke-miterlimit:10;enable-background:new    ;}
	.st57{font-size:6px;}

		.st58{fill:url(#SVGID_00000161598219465070729730000002824251076966592682_);stroke:#58595B;stroke-width:0.75;stroke-miterlimit:10;}

		.st59{fill:url(#SVGID_00000114057231667441004270000008456209645762059176_);stroke:#58595B;stroke-width:0.75;stroke-miterlimit:10;}
	.st60{opacity:0.8;}
	.st61{fill:none;stroke:#58595B;stroke-width:0.75;stroke-miterlimit:10;}

		.st62{fill:url(#SVGID_00000176034071735909976610000004115470002816678564_);stroke:#58595B;stroke-width:0.75;stroke-miterlimit:10;}

		.st63{fill:url(#SVGID_00000167360003669981640250000013058193497241252245_);stroke:#58595B;stroke-width:0.75;stroke-miterlimit:10;}
	.st64{fill:none;stroke:#58595B;stroke-miterlimit:10;}
	.st65{font-size:8.4251px;}
	.st66{fill:none;stroke:#000000;stroke-miterlimit:10;}
	.st67{fill:#DE3E4F;}
	.st68{font-family:'ArialMT';}
	.st69{font-size:1.9867px;}
	.st70{fill:none;stroke:#DE3E4F;stroke-miterlimit:10;}
	.st71{font-size:8.4239px;}
	.st72{font-size:1.987px;}
	.st73{fill:#808285;}
	.st74{fill:#E47925;}
	.st75{fill:none;stroke:#000000;stroke-width:0.1;stroke-miterlimit:10;}
</style>
<rect class="st0" width="58.3" height="157.4"/>
<text transform="matrix(1 0 0 1 75.951 8.756)" class="st1 st2">Dimensionality reduction</text>
<text transform="matrix(1 0 0 1 213.2867 8.5988)" class="st1 st2">Differential comparison</text>
<text transform="matrix(1 0 0 1 61.7808 79.6787)" class="st1 st2">Removal of unwanted variation</text>
<text transform="matrix(1 0 0 1 91.8808 93.6787)" class="st1 st3">(Dataset integration)</text>
<text transform="matrix(1 0 0 1 342.5613 8.756)" class="st1 st2">Automated annotation</text>
<text transform="matrix(1 0 0 1 354.7683 79.6786)" class="st1 st2">Transfer learning</text>
<text transform="matrix(1 0 0 1 234.4097 79.6786)" class="st1 st2">Deconvolution</text>
<g>
	<circle class="st4" cx="156.9" cy="39.7" r="4"/>
	<circle class="st4" cx="141.9" cy="19.1" r="4"/>
	<circle class="st4" cx="141.9" cy="46.9" r="4"/>
	<line class="st5" x1="145.4" y1="21.1" x2="152.9" y2="27"/>
	<line class="st5" x1="145.4" y1="21.1" x2="152.6" y2="39.2"/>
	<line class="st5" x1="145.8" y1="33.7" x2="152.8" y2="39.5"/>
	<line class="st5" x1="145.8" y1="33.7" x2="152.9" y2="27"/>
	<line class="st5" x1="145.9" y1="47.4" x2="153.3" y2="28.9"/>
	<line class="st5" x1="145.9" y1="46.9" x2="152.6" y2="39.7"/>
	<circle class="st4" cx="156.9" cy="27" r="4"/>
	<circle class="st4" cx="141.9" cy="33" r="4"/>
</g>
<g>

		<linearGradient id="SVGID_1_" gradientUnits="userSpaceOnUse" x1="898.78" y1="-676.43" x2="935.2464" y2="-676.43" gradientTransform="matrix(0 -1 1 0 789.98 949.98)">
		<stop  offset="0" style="stop-color:#FFFFFF"/>
		<stop  offset="1" style="stop-color:#E6E7E8"/>
	</linearGradient>
	<polygon class="st6" points="97.9,14.8 97.9,51.2 129.2,51.2 129.2,14.8 	"/>
	<g>
		<rect x="97.9" y="14.8" class="st7" width="31.2" height="36.5"/>
		<line class="st7" x1="100.8" y1="51.3" x2="100.8" y2="14.8"/>
		<line class="st7" x1="103.6" y1="51.3" x2="103.6" y2="14.8"/>
		<line class="st7" x1="106.5" y1="51.3" x2="106.5" y2="14.8"/>
		<line class="st7" x1="109.3" y1="51.3" x2="109.3" y2="14.8"/>
		<line class="st7" x1="112.1" y1="51.3" x2="112.1" y2="14.8"/>
		<line class="st7" x1="115" y1="51.3" x2="115" y2="14.8"/>
		<line class="st7" x1="117.8" y1="51.3" x2="117.8" y2="14.8"/>
		<line class="st7" x1="120.7" y1="51.3" x2="120.7" y2="14.8"/>
		<line class="st7" x1="123.5" y1="51.3" x2="123.5" y2="14.8"/>
		<line class="st7" x1="126.3" y1="51.3" x2="126.3" y2="14.8"/>
		<line class="st7" x1="129.2" y1="18.2" x2="97.9" y2="18.2"/>
		<line class="st7" x1="129.2" y1="21.5" x2="97.9" y2="21.5"/>
		<line class="st7" x1="129.2" y1="24.8" x2="97.9" y2="24.8"/>
		<line class="st7" x1="129.2" y1="28.1" x2="97.9" y2="28.1"/>
		<line class="st7" x1="129.2" y1="31.4" x2="97.9" y2="31.4"/>
		<line class="st7" x1="129.2" y1="34.7" x2="97.9" y2="34.7"/>
		<line class="st7" x1="129.2" y1="38" x2="97.9" y2="38"/>
		<line class="st7" x1="129.2" y1="41.4" x2="97.9" y2="41.4"/>
		<line class="st7" x1="129.2" y1="44.7" x2="97.9" y2="44.7"/>
		<line class="st7" x1="129.2" y1="48" x2="97.9" y2="48"/>
	</g>
	<rect x="97.8" y="55.9" class="st8" width="31.5" height="1.1"/>
	<rect x="97.8" y="54.1" class="st8" width="31.5" height="1.1"/>
	<rect x="97.8" y="52.2" class="st8" width="31.5" height="1.1"/>
	<rect x="90.6" y="14.8" class="st8" width="1.4" height="36.5"/>
	<rect x="92.9" y="14.8" class="st8" width="1.4" height="36.5"/>
	<rect x="95.3" y="14.8" class="st8" width="1.4" height="36.5"/>
</g>
<g>

		<linearGradient id="SVGID_00000031901756529582177170000011088867360540924858_" gradientUnits="userSpaceOnUse" x1="863.3392" y1="-608.9929" x2="899.8391" y2="-608.9929" gradientTransform="matrix(8.744590e-03 -1 1 8.744590e-03 777.7344 919.8845)">
		<stop  offset="0" style="stop-color:#FFFFFF"/>
		<stop  offset="1" style="stop-color:#E6E7E8"/>
	</linearGradient>

		<polygon style="fill:url(#SVGID_00000031901756529582177170000011088867360540924858_);stroke:#58595B;stroke-width:0.75;stroke-miterlimit:10;" points="
		171.8,14.8 171.5,51.2 181.1,51.3 181.4,14.8 	"/>
	<g>

			<rect x="158.2" y="28.3" transform="matrix(8.744256e-03 -1 1 8.744256e-03 141.7894 209.269)" class="st10" width="36.5" height="9.6"/>
		<path class="st7" d="M172.7,14.8"/>
		<path class="st7" d="M172.4,51.3"/>
		<line class="st7" x1="173.7" y1="51.3" x2="174" y2="14.9"/>
		<path class="st7" d="M174.4,14.9"/>
		<path class="st7" d="M174.1,51.3"/>
		<line class="st7" x1="175.4" y1="51.3" x2="175.7" y2="14.9"/>
		<path class="st7" d="M176.2,14.9"/>
		<path class="st7" d="M175.9,51.3"/>
		<line class="st7" x1="177.2" y1="51.4" x2="177.5" y2="14.9"/>
		<path class="st7" d="M177.9,14.9"/>
		<path class="st7" d="M177.6,51.4"/>
		<line class="st7" x1="178.9" y1="51.4" x2="179.2" y2="14.9"/>
		<path class="st7" d="M179.7,14.9"/>
		<path class="st7" d="M179.4,51.4"/>
		<path class="st7" d="M180.6,14.9"/>
		<path class="st7" d="M180.2,51.4"/>
		<line class="st7" x1="181.4" y1="18.2" x2="171.8" y2="18.2"/>
		<line class="st7" x1="181.4" y1="21.6" x2="171.8" y2="21.5"/>
		<line class="st7" x1="181.3" y1="24.9" x2="171.7" y2="24.8"/>
		<line class="st7" x1="181.3" y1="28.2" x2="171.7" y2="28.1"/>
		<line class="st7" x1="181.3" y1="31.5" x2="171.7" y2="31.4"/>
		<line class="st7" x1="181.3" y1="34.8" x2="171.6" y2="34.7"/>
		<line class="st7" x1="181.2" y1="38.1" x2="171.6" y2="38"/>
		<line class="st7" x1="181.2" y1="41.4" x2="171.6" y2="41.4"/>
		<line class="st7" x1="181.2" y1="44.8" x2="171.5" y2="44.7"/>
		<line class="st7" x1="181.1" y1="48.1" x2="171.5" y2="48"/>
	</g>
</g>
<g>
	<path class="st11" d="M234.3,55.1c16.6,0.1,22.2-31.3,29.3-31.3c7.2,0,7.7,31.3,20.2,31.3"/>
	<path class="st12" d="M298.6,55.1c-10.9,0-11.9-24-16.6-24s-7.8,24-16,24"/>
	<line class="st5" x1="234.2" y1="10.8" x2="234.4" y2="55.1"/>
	<line class="st5" x1="234.1" y1="55.1" x2="307.6" y2="55.1"/>
	<rect x="237.5" y="12.4" class="st11" width="9.8" height="3.2"/>
	<rect x="237.5" y="17.5" class="st13" width="9.8" height="3.2"/>
	<text transform="matrix(1 0 0 1 248.6904 15.2182)" class="st14 st15">Group A</text>
	<text transform="matrix(1 0 0 1 248.6933 20.5356)" class="st14 st15">Group B</text>
	<text transform="matrix(1 0 0 1 252.6742 62.5646)" class="st14 st16">Expression</text>
</g>
<g>
	<g>
		<polygon class="st17" points="150.1,156.6 94.6,156.6 125.4,126 181,126 		"/>
	</g>
	<ellipse class="st18" cx="115.8" cy="150.2" rx="2.6" ry="2.8"/>
	<ellipse class="st19" cx="160.7" cy="130" rx="2.6" ry="2.8"/>
	<ellipse class="st19" cx="159.5" cy="136.9" rx="2.6" ry="2.8"/>
	<g>
		<g>
			<line class="st20" x1="94.6" y1="156.5" x2="94.6" y2="155.5"/>
			<line class="st21" x1="94.6" y1="153.5" x2="94.6" y2="103.2"/>
			<line class="st20" x1="94.6" y1="102.2" x2="94.6" y2="101.2"/>
			<g>
				<polygon points="97.2,102 94.6,97.4 92,102 				"/>
			</g>
		</g>
	</g>
	<text transform="matrix(0.8705 0 0 1 99.2393 105.0171)" class="st22 st23">Observed nuisance factors</text>
	<ellipse class="st18" cx="126.1" cy="142.5" rx="2.6" ry="2.8"/>
	<ellipse class="st18" cx="115.8" cy="143.3" rx="2.6" ry="2.8"/>
	<ellipse class="st18" cx="125.6" cy="151.2" rx="2.6" ry="2.8"/>
	<ellipse class="st18" cx="133.1" cy="146.7" rx="2.6" ry="2.8"/>
	<ellipse class="st18" cx="141.3" cy="152.2" rx="2.6" ry="2.8"/>
	<ellipse class="st19" cx="153.5" cy="137.8" rx="2.6" ry="2.8"/>
	<ellipse class="st19" cx="147.7" cy="136.1" rx="2.6" ry="2.8"/>
	<ellipse class="st19" cx="151.4" cy="130.5" rx="2.6" ry="2.8"/>
</g>
<g>
	<circle class="st24" cx="285.9" cy="91.3" r="3.1"/>
	<circle class="st25" cx="285.9" cy="98.4" r="3.1"/>
	<circle class="st26" cx="285.9" cy="105.5" r="3.1"/>
	<circle class="st27" cx="285.9" cy="112.6" r="3.1"/>
	<circle class="st24" cx="294.1" cy="91.4" r="3.1"/>
	<circle class="st24" cx="294.1" cy="98.5" r="3.1"/>
	<circle class="st28" cx="294.1" cy="105.6" r="3.1"/>
	<circle class="st29" cx="294.1" cy="112.6" r="3.1"/>
	<circle class="st24" cx="302.1" cy="91.4" r="3.1"/>
	<circle class="st30" cx="302.1" cy="98.5" r="3.1"/>
	<circle class="st31" cx="302.1" cy="105.6" r="3.1"/>
	<circle class="st26" cx="302.1" cy="112.6" r="3.1"/>
	<circle class="st25" cx="309.7" cy="91.6" r="3.1"/>
	<circle class="st25" cx="309.7" cy="98.7" r="3.1"/>
	<circle class="st26" cx="309.7" cy="105.7" r="3.1"/>
	<circle class="st26" cx="309.7" cy="112.8" r="3.1"/>
</g>
<g>
	<circle class="st32" cx="285.5" cy="130.4" r="3.1"/>
	<circle class="st33" cx="285.5" cy="137.5" r="3.1"/>
	<circle class="st34" cx="285.5" cy="144.5" r="3.1"/>
	<circle class="st35" cx="285.5" cy="151.6" r="3.1"/>
	<circle class="st36" cx="293.6" cy="130.5" r="3.1"/>
	<circle class="st37" cx="293.6" cy="137.5" r="3.1"/>
	<circle class="st38" cx="293.6" cy="144.6" r="3.1"/>
	<circle class="st39" cx="293.6" cy="151.7" r="3.1"/>
	<circle class="st36" cx="301.6" cy="130.5" r="3.1"/>
	<circle class="st40" cx="301.6" cy="137.5" r="3.1"/>
	<circle class="st41" cx="301.6" cy="144.6" r="3.1"/>
	<circle class="st42" cx="301.6" cy="151.7" r="3.1"/>
	<circle class="st43" cx="309.3" cy="130.6" r="3.1"/>
	<circle class="st44" cx="309.3" cy="137.7" r="3.1"/>
	<circle class="st34" cx="309.3" cy="144.8" r="3.1"/>
	<circle class="st34" cx="309.3" cy="151.8" r="3.1"/>
</g>
<g>
	<g>
		<path class="st45" d="M279.2,100.7c-1.4,0.6-8.4,3.8-11.7,11.9c-0.6,1.5-3.2,8.1-0.4,15.9c2.2,6.2,6.6,9.8,9.5,11.6"/>
		<g>
			<polygon points="279.1,141.5 274.6,140.9 276.3,139.9 276.3,137.9 			"/>
		</g>
	</g>
</g>
<g>
	<g>

			<linearGradient id="SVGID_00000080199543902225204450000012016063200575037312_" gradientUnits="userSpaceOnUse" x1="810.58" y1="-548.68" x2="847.68" y2="-548.68" gradientTransform="matrix(0 -1 1 0 789.98 949.98)">
			<stop  offset="0" style="stop-color:#FFFFFF"/>
			<stop  offset="1" style="stop-color:#E6E7E8"/>
		</linearGradient>

			<polygon style="fill:url(#SVGID_00000080199543902225204450000012016063200575037312_);stroke:#58595B;stroke-width:0.75;stroke-miterlimit:10;" points="
			226.7,102.3 226.7,139.4 255.9,139.4 255.9,102.3 		"/>
		<g>
			<rect x="226.7" y="102.4" class="st7" width="29.1" height="37.1"/>
			<line class="st7" x1="229.4" y1="139.5" x2="229.4" y2="102.4"/>
			<line class="st7" x1="232" y1="139.5" x2="232" y2="102.4"/>
			<line class="st7" x1="234.7" y1="139.5" x2="234.7" y2="102.4"/>
			<line class="st7" x1="237.3" y1="139.5" x2="237.3" y2="102.4"/>
			<line class="st7" x1="240" y1="139.5" x2="240" y2="102.4"/>
			<line class="st7" x1="242.6" y1="139.5" x2="242.6" y2="102.4"/>
			<line class="st7" x1="245.3" y1="139.5" x2="245.3" y2="102.4"/>
			<line class="st7" x1="247.9" y1="139.5" x2="247.9" y2="102.4"/>
			<line class="st7" x1="250.6" y1="139.5" x2="250.6" y2="102.4"/>
			<line class="st7" x1="253.2" y1="139.5" x2="253.2" y2="102.4"/>
			<line class="st7" x1="255.9" y1="105.7" x2="226.7" y2="105.7"/>
			<line class="st7" x1="255.9" y1="109.1" x2="226.7" y2="109.1"/>
			<line class="st7" x1="255.9" y1="112.5" x2="226.7" y2="112.5"/>
			<line class="st7" x1="255.9" y1="115.9" x2="226.7" y2="115.9"/>
			<line class="st7" x1="255.9" y1="119.2" x2="226.7" y2="119.2"/>
			<line class="st7" x1="255.9" y1="122.6" x2="226.7" y2="122.6"/>
			<line class="st7" x1="255.9" y1="126" x2="226.7" y2="126"/>
			<line class="st7" x1="255.9" y1="129.3" x2="226.7" y2="129.3"/>
			<line class="st7" x1="255.9" y1="132.7" x2="226.7" y2="132.7"/>
			<line class="st7" x1="255.9" y1="136.1" x2="226.7" y2="136.1"/>
		</g>
		<rect x="224" y="102.3" class="st47" width="1.5" height="37.1"/>
	</g>
	<rect x="224" y="105.7" class="st48" width="1.5" height="9.4"/>
	<rect x="224" y="115.1" class="st49" width="1.5" height="9.1"/>
	<rect x="224" y="124.2" class="st50" width="1.5" height="15.2"/>
</g>
<g>
	<g>
		<circle class="st4" cx="418.4" cy="109.3" r="3.4"/>
		<circle class="st4" cx="405.6" cy="91.8" r="3.4"/>
		<circle class="st4" cx="405.6" cy="115.5" r="3.4"/>
		<line class="st5" x1="408.6" y1="93.5" x2="415" y2="98.6"/>
		<line class="st5" x1="408.6" y1="93.5" x2="414.8" y2="108.9"/>
		<line class="st5" x1="409" y1="104.2" x2="414.9" y2="109.2"/>
		<line class="st5" x1="409" y1="104.2" x2="415" y2="98.6"/>
		<line class="st5" x1="409" y1="115.9" x2="415.3" y2="100.1"/>
		<line class="st5" x1="409" y1="115.5" x2="414.7" y2="109.3"/>
		<circle class="st4" cx="418.4" cy="98.6" r="3.4"/>
		<circle class="st4" cx="405.6" cy="103.6" r="3.4"/>
	</g>
	<g>
		<circle class="st4" cx="418.4" cy="109.3" r="3.4"/>
		<circle class="st4" cx="431.1" cy="91.8" r="3.4"/>
		<circle class="st4" cx="431.1" cy="115.5" r="3.4"/>
		<line class="st5" x1="428.2" y1="93.5" x2="421.7" y2="98.6"/>
		<line class="st5" x1="428.2" y1="93.5" x2="422" y2="108.9"/>
		<line class="st5" x1="427.8" y1="104.2" x2="421.8" y2="109.2"/>
		<line class="st5" x1="427.8" y1="104.2" x2="421.7" y2="98.6"/>
		<line class="st5" x1="427.7" y1="115.9" x2="421.4" y2="100.1"/>
		<line class="st5" x1="427.7" y1="115.5" x2="422" y2="109.3"/>
		<circle class="st4" cx="418.4" cy="98.6" r="3.4"/>
		<circle class="st4" cx="431.1" cy="103.6" r="3.4"/>
	</g>
</g>
<g>
	<g>
		<circle class="st4" cx="418.6" cy="147.6" r="3.4"/>
		<circle class="st4" cx="405.8" cy="130" r="3.4"/>
		<circle class="st4" cx="405.8" cy="153.7" r="3.4"/>
		<line class="st5" x1="408.8" y1="131.7" x2="415.2" y2="136.8"/>
		<line class="st5" x1="408.8" y1="131.7" x2="415" y2="147.2"/>
		<line class="st5" x1="409.2" y1="142.5" x2="415.1" y2="147.4"/>
		<line class="st5" x1="409.2" y1="142.5" x2="415.2" y2="136.8"/>
		<line class="st5" x1="409.2" y1="154.1" x2="415.6" y2="138.4"/>
		<line class="st5" x1="409.2" y1="153.7" x2="414.9" y2="147.6"/>
		<circle class="st4" cx="418.6" cy="136.8" r="3.4"/>
		<circle class="st4" cx="405.8" cy="141.9" r="3.4"/>
	</g>
	<g>
		<circle class="st4" cx="418.6" cy="147.6" r="3.4"/>
		<circle class="st4" cx="431.3" cy="130" r="3.4"/>
		<circle class="st4" cx="431.3" cy="153.7" r="3.4"/>
		<line class="st5" x1="428.4" y1="131.7" x2="422" y2="136.8"/>
		<line class="st5" x1="428.4" y1="131.7" x2="422.2" y2="147.2"/>
		<line class="st5" x1="428" y1="142.5" x2="422" y2="147.4"/>
		<line class="st5" x1="428" y1="142.5" x2="422" y2="136.8"/>
		<line class="st5" x1="427.9" y1="154.1" x2="421.6" y2="138.4"/>
		<line class="st5" x1="427.9" y1="153.7" x2="422.2" y2="147.6"/>
		<circle class="st4" cx="418.6" cy="136.8" r="3.4"/>
		<circle class="st4" cx="431.3" cy="141.9" r="3.4"/>
	</g>
</g>
<g>
	<g>

			<linearGradient id="SVGID_00000100357889931846453500000016425195649266639527_" gradientUnits="userSpaceOnUse" x1="892.0294" y1="-425.33" x2="928.1454" y2="-425.33" gradientTransform="matrix(0 -1 1 0 789.98 949.98)">
			<stop  offset="0" style="stop-color:#FFFFFF"/>
			<stop  offset="1" style="stop-color:#E6E7E8"/>
		</linearGradient>

			<polygon style="fill:url(#SVGID_00000100357889931846453500000016425195649266639527_);stroke:#58595B;stroke-width:0.75;stroke-miterlimit:10;" points="
			350.5,21.8 350.5,58 378.8,58 378.8,21.8 		"/>
		<g>
			<rect x="350.5" y="21.9" class="st7" width="28.3" height="36.1"/>
			<line class="st7" x1="353.1" y1="58" x2="353.1" y2="21.9"/>
			<line class="st7" x1="355.6" y1="58" x2="355.6" y2="21.9"/>
			<line class="st7" x1="358.2" y1="58" x2="358.2" y2="21.9"/>
			<line class="st7" x1="360.8" y1="58" x2="360.8" y2="21.9"/>
			<line class="st7" x1="363.4" y1="58" x2="363.4" y2="21.9"/>
			<line class="st7" x1="365.9" y1="58" x2="365.9" y2="21.9"/>
			<line class="st7" x1="368.5" y1="58" x2="368.5" y2="21.9"/>
			<line class="st7" x1="371.1" y1="58" x2="371.1" y2="21.9"/>
			<line class="st7" x1="373.7" y1="58" x2="373.7" y2="21.9"/>
			<line class="st7" x1="376.2" y1="58" x2="376.2" y2="21.9"/>
			<line class="st7" x1="378.8" y1="25.2" x2="350.5" y2="25.2"/>
			<line class="st7" x1="378.8" y1="28.5" x2="350.5" y2="28.5"/>
			<line class="st7" x1="378.8" y1="31.8" x2="350.5" y2="31.8"/>
			<line class="st7" x1="378.8" y1="35" x2="350.5" y2="35"/>
			<line class="st7" x1="378.8" y1="38.3" x2="350.5" y2="38.3"/>
			<line class="st7" x1="378.8" y1="41.6" x2="350.5" y2="41.6"/>
			<line class="st7" x1="378.8" y1="44.9" x2="350.5" y2="44.9"/>
			<line class="st7" x1="378.8" y1="48.2" x2="350.5" y2="48.2"/>
			<line class="st7" x1="378.8" y1="51.5" x2="350.5" y2="51.5"/>
			<line class="st7" x1="378.8" y1="54.7" x2="350.5" y2="54.7"/>
		</g>
		<rect x="347.8" y="21.8" class="st47" width="1.5" height="36.1"/>
	</g>
	<rect x="347.8" y="25.2" class="st48" width="1.5" height="9.2"/>
	<rect x="347.8" y="34.4" class="st49" width="1.5" height="8.8"/>
	<rect x="347.8" y="43.2" class="st50" width="1.5" height="14.8"/>
</g>
<g>
	<g>

			<linearGradient id="SVGID_00000136378694354224790730000000394225619673333635_" gradientUnits="userSpaceOnUse" x1="893.68" y1="-422.28" x2="929.78" y2="-422.28" gradientTransform="matrix(0 -1 1 0 789.98 949.98)">
			<stop  offset="0" style="stop-color:#FFFFFF"/>
			<stop  offset="1" style="stop-color:#E6E7E8"/>
		</linearGradient>

			<polygon style="fill:url(#SVGID_00000136378694354224790730000000394225619673333635_);stroke:#58595B;stroke-width:0.75;stroke-miterlimit:10;" points="
			353.5,20.2 353.5,56.3 381.9,56.3 381.9,20.2 		"/>
		<g>
			<rect x="353.6" y="20.3" class="st7" width="28.3" height="36.1"/>
			<line class="st7" x1="356.1" y1="56.4" x2="356.1" y2="20.3"/>
			<line class="st7" x1="358.7" y1="56.4" x2="358.7" y2="20.3"/>
			<line class="st7" x1="361.3" y1="56.4" x2="361.3" y2="20.3"/>
			<line class="st7" x1="363.9" y1="56.4" x2="363.9" y2="20.3"/>
			<line class="st7" x1="366.4" y1="56.4" x2="366.4" y2="20.3"/>
			<line class="st7" x1="369" y1="56.4" x2="369" y2="20.3"/>
			<line class="st7" x1="371.6" y1="56.4" x2="371.6" y2="20.3"/>
			<line class="st7" x1="374.2" y1="56.4" x2="374.2" y2="20.3"/>
			<line class="st7" x1="376.7" y1="56.4" x2="376.7" y2="20.3"/>
			<line class="st7" x1="379.3" y1="56.4" x2="379.3" y2="20.3"/>
			<line class="st7" x1="381.9" y1="23.6" x2="353.6" y2="23.6"/>
			<line class="st7" x1="381.9" y1="26.8" x2="353.6" y2="26.8"/>
			<line class="st7" x1="381.9" y1="30.1" x2="353.6" y2="30.1"/>
			<line class="st7" x1="381.9" y1="33.4" x2="353.6" y2="33.4"/>
			<line class="st7" x1="381.9" y1="36.7" x2="353.6" y2="36.7"/>
			<line class="st7" x1="381.9" y1="40" x2="353.6" y2="40"/>
			<line class="st7" x1="381.9" y1="43.3" x2="353.6" y2="43.3"/>
			<line class="st7" x1="381.9" y1="46.5" x2="353.6" y2="46.5"/>
			<line class="st7" x1="381.9" y1="49.8" x2="353.6" y2="49.8"/>
			<line class="st7" x1="381.9" y1="53.1" x2="353.6" y2="53.1"/>
		</g>
	</g>
</g>
<g>
	<polygon class="st53" points="418.2,47.1 418.2,25.1 399.1,58.1 	"/>
	<polygon class="st53" points="418.2,47 399.1,58 437.2,58 	"/>
	<polygon class="st53" points="418.2,47.1 418.2,25.1 437.3,58.1 	"/>
	<circle class="st36" cx="399.9" cy="57.7" r="2.4"/>
	<circle class="st54" cx="418.2" cy="25.1" r="2.4"/>
	<circle class="st55" cx="437.2" cy="58.1" r="2.4"/>
	<circle class="st37" cx="418.2" cy="47.1" r="2.4"/>
	<circle class="st56" cx="406.4" cy="55.3" r="1"/>
	<circle class="st56" cx="411.3" cy="55.1" r="1"/>
	<circle class="st56" cx="403.8" cy="53.1" r="1"/>
	<circle class="st56" cx="428.4" cy="54.9" r="1"/>
	<circle class="st56" cx="431.6" cy="56.4" r="1"/>
	<circle class="st56" cx="432.4" cy="53.5" r="1"/>
	<circle class="st56" cx="419.9" cy="30.8" r="1"/>
	<circle class="st56" cx="416.8" cy="31.7" r="1"/>
	<circle class="st56" cx="419.9" cy="33.5" r="1"/>
	<circle class="st56" cx="416.6" cy="34.5" r="1"/>
	<circle class="st56" cx="413.9" cy="44.6" r="1"/>
	<circle class="st56" cx="422.5" cy="47.1" r="1"/>
	<circle class="st56" cx="406.8" cy="50.6" r="1"/>
	<circle class="st56" cx="418.2" cy="51.8" r="1"/>
	<circle class="st56" cx="421.8" cy="35.1" r="1"/>
</g>
<text transform="matrix(1 0 0 1 387.4496 19.7737)" class="st14 st57">Assignment probability</text>
<g>
	<g>

			<linearGradient id="SVGID_00000112615878170253945330000009274528448655209119_" gradientUnits="userSpaceOnUse" x1="830.3359" y1="-431.13" x2="861.7914" y2="-431.13" gradientTransform="matrix(0 -1 1 0 789.98 949.98)">
			<stop  offset="0" style="stop-color:#FFFFFF"/>
			<stop  offset="1" style="stop-color:#E6E7E8"/>
		</linearGradient>

			<polygon style="fill:url(#SVGID_00000112615878170253945330000009274528448655209119_);stroke:#58595B;stroke-width:0.75;stroke-miterlimit:10;" points="
			346.5,88.2 346.5,119.6 371.2,119.6 371.2,88.2 		"/>
		<g>
			<rect x="346.5" y="88.3" class="st7" width="24.7" height="31.5"/>
			<line class="st7" x1="348.7" y1="119.7" x2="348.7" y2="88.3"/>
			<line class="st7" x1="351" y1="119.7" x2="351" y2="88.3"/>
			<line class="st7" x1="353.2" y1="119.7" x2="353.2" y2="88.3"/>
			<line class="st7" x1="355.5" y1="119.7" x2="355.5" y2="88.3"/>
			<line class="st7" x1="357.7" y1="119.7" x2="357.7" y2="88.3"/>
			<line class="st7" x1="359.9" y1="119.7" x2="359.9" y2="88.3"/>
			<line class="st7" x1="362.2" y1="119.7" x2="362.2" y2="88.3"/>
			<line class="st7" x1="364.4" y1="119.7" x2="364.4" y2="88.3"/>
			<line class="st7" x1="366.7" y1="119.7" x2="366.7" y2="88.3"/>
			<line class="st7" x1="368.9" y1="119.7" x2="368.9" y2="88.3"/>
			<line class="st7" x1="371.2" y1="91.1" x2="346.5" y2="91.1"/>
			<line class="st7" x1="371.2" y1="94" x2="346.5" y2="94"/>
			<line class="st7" x1="371.2" y1="96.8" x2="346.5" y2="96.8"/>
			<line class="st7" x1="371.2" y1="99.7" x2="346.5" y2="99.7"/>
			<line class="st7" x1="371.2" y1="102.6" x2="346.5" y2="102.6"/>
			<line class="st7" x1="371.2" y1="105.4" x2="346.5" y2="105.4"/>
			<line class="st7" x1="371.2" y1="108.3" x2="346.5" y2="108.3"/>
			<line class="st7" x1="371.2" y1="111.1" x2="346.5" y2="111.1"/>
			<line class="st7" x1="371.2" y1="114" x2="346.5" y2="114"/>
			<line class="st7" x1="371.2" y1="116.9" x2="346.5" y2="116.9"/>
		</g>
	</g>
</g>
<g>
	<g>

			<linearGradient id="SVGID_00000054953920180776619220000013102615499437649596_" gradientUnits="userSpaceOnUse" x1="831.78" y1="-428.48" x2="863.2354" y2="-428.48" gradientTransform="matrix(0 -1 1 0 789.98 949.98)">
			<stop  offset="0" style="stop-color:#FFFFFF"/>
			<stop  offset="1" style="stop-color:#E6E7E8"/>
		</linearGradient>

			<polygon style="fill:url(#SVGID_00000054953920180776619220000013102615499437649596_);stroke:#58595B;stroke-width:0.75;stroke-miterlimit:10;" points="
			349.2,86.8 349.2,118.2 373.8,118.2 373.8,86.8 		"/>
		<g>
			<rect x="349.2" y="86.8" class="st7" width="24.7" height="31.5"/>
			<line class="st7" x1="351.4" y1="118.3" x2="351.4" y2="86.8"/>
			<line class="st7" x1="353.7" y1="118.3" x2="353.7" y2="86.8"/>
			<line class="st7" x1="355.9" y1="118.3" x2="355.9" y2="86.8"/>
			<line class="st7" x1="358.1" y1="118.3" x2="358.1" y2="86.8"/>
			<line class="st7" x1="360.4" y1="118.3" x2="360.4" y2="86.8"/>
			<line class="st7" x1="362.6" y1="118.3" x2="362.6" y2="86.8"/>
			<line class="st7" x1="364.9" y1="118.3" x2="364.9" y2="86.8"/>
			<line class="st7" x1="367.1" y1="118.3" x2="367.1" y2="86.8"/>
			<line class="st7" x1="369.4" y1="118.3" x2="369.4" y2="86.8"/>
			<line class="st7" x1="371.6" y1="118.3" x2="371.6" y2="86.8"/>
			<line class="st7" x1="373.9" y1="89.7" x2="349.2" y2="89.7"/>
			<line class="st7" x1="373.9" y1="92.5" x2="349.2" y2="92.5"/>
			<line class="st7" x1="373.9" y1="95.4" x2="349.2" y2="95.4"/>
			<line class="st7" x1="373.9" y1="98.3" x2="349.2" y2="98.3"/>
			<line class="st7" x1="373.9" y1="101.1" x2="349.2" y2="101.1"/>
			<line class="st7" x1="373.9" y1="104" x2="349.2" y2="104"/>
			<line class="st7" x1="373.9" y1="106.8" x2="349.2" y2="106.8"/>
			<line class="st7" x1="373.9" y1="109.7" x2="349.2" y2="109.7"/>
			<line class="st7" x1="373.9" y1="112.6" x2="349.2" y2="112.6"/>
			<line class="st7" x1="373.9" y1="115.4" x2="349.2" y2="115.4"/>
		</g>
	</g>
</g>
<g class="st60">
	<g>
		<line class="st61" x1="379.6" y1="103.6" x2="396.7" y2="103.6"/>
		<g>
			<polygon class="st11" points="399.3,103.6 395.6,105.2 396.5,103.6 395.6,102.1 			"/>
		</g>
	</g>
</g>
<text transform="matrix(1 0 0 1 380.6144 101.201)" class="st14 st57">Train</text>
<g>
	<g>
		<path class="st45" d="M437,105c1.8,1.4,6.1,4.8,8.3,10.7c0.8,2.1,2.4,7.4,0.3,13.8c-1.5,4.5-4.1,7.6-6.3,9.6"/>
		<g>
			<polygon points="437.1,141 439.2,137 439.5,138.9 441.4,139.6 			"/>
		</g>
	</g>
</g>
<g>
	<g>

			<linearGradient id="SVGID_00000031891691341535921270000000740253586905478552_" gradientUnits="userSpaceOnUse" x1="833.4401" y1="-426.23" x2="864.8955" y2="-426.23" gradientTransform="matrix(0 -1 1 0 789.98 949.98)">
			<stop  offset="0" style="stop-color:#FFFFFF"/>
			<stop  offset="1" style="stop-color:#E6E7E8"/>
		</linearGradient>

			<polygon style="fill:url(#SVGID_00000031891691341535921270000000740253586905478552_);stroke:#58595B;stroke-width:0.75;stroke-miterlimit:10;" points="
			351.4,85.1 351.4,116.5 376.1,116.5 376.1,85.1 		"/>
		<g>
			<rect x="351.4" y="85.2" class="st7" width="24.7" height="31.5"/>
			<line class="st7" x1="353.7" y1="116.6" x2="353.7" y2="85.2"/>
			<line class="st7" x1="355.9" y1="116.6" x2="355.9" y2="85.2"/>
			<line class="st7" x1="358.2" y1="116.6" x2="358.2" y2="85.2"/>
			<line class="st7" x1="360.4" y1="116.6" x2="360.4" y2="85.2"/>
			<line class="st7" x1="362.6" y1="116.6" x2="362.6" y2="85.2"/>
			<line class="st7" x1="364.9" y1="116.6" x2="364.9" y2="85.2"/>
			<line class="st7" x1="367.1" y1="116.6" x2="367.1" y2="85.2"/>
			<line class="st7" x1="369.4" y1="116.6" x2="369.4" y2="85.2"/>
			<line class="st7" x1="371.6" y1="116.6" x2="371.6" y2="85.2"/>
			<line class="st7" x1="373.9" y1="116.6" x2="373.9" y2="85.2"/>
			<line class="st7" x1="376.1" y1="88" x2="351.4" y2="88"/>
			<line class="st7" x1="376.1" y1="90.9" x2="351.4" y2="90.9"/>
			<line class="st7" x1="376.1" y1="93.7" x2="351.4" y2="93.7"/>
			<line class="st7" x1="376.1" y1="96.6" x2="351.4" y2="96.6"/>
			<line class="st7" x1="376.1" y1="99.5" x2="351.4" y2="99.5"/>
			<line class="st7" x1="376.1" y1="102.3" x2="351.4" y2="102.3"/>
			<line class="st7" x1="376.1" y1="105.2" x2="351.4" y2="105.2"/>
			<line class="st7" x1="376.1" y1="108" x2="351.4" y2="108"/>
			<line class="st7" x1="376.1" y1="110.9" x2="351.4" y2="110.9"/>
			<line class="st7" x1="376.1" y1="113.7" x2="351.4" y2="113.7"/>
		</g>
	</g>
</g>
<g>
	<g>

			<linearGradient id="SVGID_00000079479129817952562490000000082287166211580060_" gradientUnits="userSpaceOnUse" x1="793.38" y1="-426.23" x2="824.8354" y2="-426.23" gradientTransform="matrix(0 -1 1 0 789.98 949.98)">
			<stop  offset="0" style="stop-color:#FFFFFF"/>
			<stop  offset="1" style="stop-color:#E6E7E8"/>
		</linearGradient>

			<polygon style="fill:url(#SVGID_00000079479129817952562490000000082287166211580060_);stroke:#58595B;stroke-width:0.75;stroke-miterlimit:10;" points="
			351.4,125.1 351.4,156.6 376.1,156.6 376.1,125.1 		"/>
		<g>
			<rect x="351.4" y="125.2" class="st7" width="24.7" height="31.5"/>
			<line class="st7" x1="353.7" y1="156.7" x2="353.7" y2="125.2"/>
			<line class="st7" x1="355.9" y1="156.7" x2="355.9" y2="125.2"/>
			<line class="st7" x1="358.2" y1="156.7" x2="358.2" y2="125.2"/>
			<line class="st7" x1="360.4" y1="156.7" x2="360.4" y2="125.2"/>
			<line class="st7" x1="362.6" y1="156.7" x2="362.6" y2="125.2"/>
			<line class="st7" x1="364.9" y1="156.7" x2="364.9" y2="125.2"/>
			<line class="st7" x1="367.1" y1="156.7" x2="367.1" y2="125.2"/>
			<line class="st7" x1="369.4" y1="156.7" x2="369.4" y2="125.2"/>
			<line class="st7" x1="371.6" y1="156.7" x2="371.6" y2="125.2"/>
			<line class="st7" x1="373.9" y1="156.7" x2="373.9" y2="125.2"/>
			<line class="st7" x1="376.1" y1="128.1" x2="351.4" y2="128.1"/>
			<line class="st7" x1="376.1" y1="130.9" x2="351.4" y2="130.9"/>
			<line class="st7" x1="376.1" y1="133.8" x2="351.4" y2="133.8"/>
			<line class="st7" x1="376.1" y1="136.7" x2="351.4" y2="136.7"/>
			<line class="st7" x1="376.1" y1="139.5" x2="351.4" y2="139.5"/>
			<line class="st7" x1="376.1" y1="142.4" x2="351.4" y2="142.4"/>
			<line class="st7" x1="376.1" y1="145.2" x2="351.4" y2="145.2"/>
			<line class="st7" x1="376.1" y1="148.1" x2="351.4" y2="148.1"/>
			<line class="st7" x1="376.1" y1="150.9" x2="351.4" y2="150.9"/>
			<line class="st7" x1="376.1" y1="153.8" x2="351.4" y2="153.8"/>
		</g>
	</g>
</g>
<g class="st60">
	<g>
		<line class="st61" x1="380.2" y1="142.1" x2="397.3" y2="142.1"/>
		<g>
			<polygon class="st11" points="399.9,142.1 396.2,143.6 397.1,142.1 396.2,140.6 			"/>
		</g>
	</g>
</g>
<text transform="matrix(1 0 0 1 379.8146 139.5435)" class="st14 st57">Update</text>
<g>
	<path class="st64" d="M12.6,31.6c0.4-0.3,0.9-0.7,1.5-0.6c0.8,0.1,1.2,0.9,1.8,1.6c0.3,0.3,2,2.5,3.6,2.6c2.2,0.2,3.1-3.7,5.3-3.5
		c1.9,0.2,2.3,3.2,4.2,3.2c1.8,0,2.7-2.7,4.1-2.4c1.1,0.2,0.9,1.8,2.2,2.3s2.8-0.5,3.7-1.1c1.4-0.9,1.7-1.8,2.6-1.9
		c0.9-0.1,1.7,0.5,2.2,1"/>
	<path class="st64" d="M12.6,35.9c0.4-0.3,0.9-0.7,1.5-0.6c0.8,0.1,1.2,0.9,1.8,1.6c0.3,0.3,2,2.5,3.6,2.6c2.2,0.2,3.1-3.7,5.3-3.5
		c1.9,0.2,2.3,3.2,4.2,3.2c1.8,0,2.7-2.7,4.1-2.4c1.1,0.2,0.9,1.8,2.2,2.3s2.8-0.5,3.7-1.1c1.4-0.9,1.7-1.8,2.6-1.9
		c0.9-0.1,1.7,0.5,2.2,1"/>
	<path class="st64" d="M12.6,40.8c0.3-0.3,0.9-0.7,1.5-0.7c0.8,0.1,1.2,0.8,1.9,1.5c0.3,0.3,2.1,2.4,3.7,2.4c2.2,0.1,3-3.8,5.1-3.7
		c1.9,0.1,2.4,3.1,4.3,3c1.8-0.1,2.6-2.9,4-2.6c1.1,0.2,1,1.8,2.3,2.2s2.8-0.6,3.7-1.3c1.4-1,1.6-1.9,2.5-2s1.7,0.4,2.2,0.9"/>
	<text transform="matrix(1 0 0 1 11.2118 24.2346)" class="st19 st14 st65">RNA-seq</text>
</g>
<g>
	<g>
		<line class="st66" x1="35.9" y1="150" x2="39.4" y2="148.8"/>
		<line class="st66" x1="38.2" y1="153.1" x2="39.4" y2="148.8"/>
		<path class="st66" d="M39.4,148.8c0.9-0.9,1.7-1.8,2.6-2.6c0.4-0.4,0.7-0.7,1.1-1.1"/>
		<text transform="matrix(-0.973 0.1392 0.1375 0.9905 53.3016 140.1972)" class="st67 st68 st69">AAAAA</text>
		<path class="st70" d="M47.4,140.2c-1.3-0.1-1.7,0.1-1.8,0.4c-0.2,0.5,0.6,1.2,0.4,1.5c-0.2,0.3-0.9-0.2-1.2,0.1
			c-0.4,0.3,0.5,1.4,0.2,1.7c-0.2,0.2-0.7-0.1-0.9,0.1c-0.3,0.3,0.1,1-0.2,1.3c-0.1,0.1-0.4,0.2-1-0.1"/>
	</g>
	<path class="st64" d="M7.6,141.5c0.3-0.3,0.8-0.7,1.4-0.6c0.7,0.1,1.1,0.9,1.7,1.7c0.2,0.3,1.8,2.6,3.3,2.8c2,0.2,2.8-3.9,4.8-3.7
		c1.7,0.2,2.1,3.4,3.8,3.4c1.6,0,2.4-2.9,3.7-2.6c1,0.3,0.8,2,2,2.5c1.1,0.5,2.5-0.5,3.4-1.2c1.3-1,1.5-1.9,2.4-2
		c0.8-0.1,1.5,0.5,2,1"/>
	<path class="st64" d="M7.6,146.1c0.3-0.3,0.8-0.7,1.4-0.6c0.7,0.1,1.1,0.9,1.7,1.7c0.2,0.3,1.8,2.6,3.3,2.8c2,0.2,2.8-3.9,4.8-3.7
		c1.7,0.2,2.1,3.4,3.8,3.4c1.6,0,2.4-2.9,3.7-2.6c1,0.3,0.8,2,2,2.5c1.1,0.5,2.5-0.5,3.4-1.2c1.3-1,1.5-1.9,2.4-2
		c0.8-0.1,1.5,0.5,2,1"/>
	<path class="st64" d="M7.6,151.4c0.3-0.3,0.8-0.8,1.3-0.7c0.7,0.1,1.1,0.9,1.7,1.6c0.3,0.3,1.9,2.5,3.4,2.6c2,0.1,2.7-4.1,4.6-4
		c1.7,0.1,2.2,3.3,3.9,3.2c1.6-0.1,2.3-3.1,3.6-2.8c1,0.2,0.9,1.9,2.1,2.4c1.2,0.4,2.5-0.7,3.3-1.4c1.3-1,1.4-2,2.3-2.1
		c0.8-0.1,1.5,0.4,2,0.9"/>
	<text transform="matrix(1 0 0 1 10.0736 135.5168)" class="st67 st14 st71">CITE-seq</text>
	<g>
		<line class="st66" x1="38.7" y1="154.3" x2="42.2" y2="153.1"/>
		<line class="st66" x1="40.9" y1="157.4" x2="42.2" y2="153.1"/>
		<path class="st66" d="M42.2,153.1c0.9-0.9,1.7-1.8,2.6-2.6c0.4-0.4,0.7-0.7,1.1-1.1"/>
		<text transform="matrix(-0.9792 0.1392 0.1384 0.9904 56.0074 144.4875)" class="st67 st68 st72">AAAAA</text>
		<path class="st70" d="M50.1,144.5c-1.3-0.1-1.7,0.1-1.8,0.4c-0.2,0.5,0.6,1.2,0.4,1.5c-0.2,0.3-0.9-0.2-1.2,0.1
			c-0.4,0.3,0.5,1.4,0.2,1.7c-0.2,0.2-0.7-0.1-0.9,0.1c-0.3,0.3,0.1,1-0.3,1.3c-0.1,0.1-0.4,0.2-1-0.1"/>
	</g>
</g>
<g>
	<text transform="matrix(1 0 0 1 15.37 97.8456)" class="st18 st14 st71">Spatial</text>
	<circle class="st24" cx="20.6" cy="104.5" r="2"/>
	<circle class="st25" cx="20.6" cy="109.1" r="2"/>
	<circle class="st26" cx="20.6" cy="113.6" r="2"/>
	<circle class="st27" cx="20.6" cy="118.2" r="2"/>
	<circle class="st24" cx="25.8" cy="104.6" r="2"/>
	<circle class="st24" cx="25.8" cy="109.2" r="2"/>
	<circle class="st28" cx="25.8" cy="113.7" r="2"/>
	<circle class="st29" cx="25.8" cy="118.3" r="2"/>
	<circle class="st24" cx="31" cy="104.6" r="2"/>
	<circle class="st30" cx="31" cy="109.2" r="2"/>
	<circle class="st31" cx="31" cy="113.7" r="2"/>
	<circle class="st26" cx="31" cy="118.3" r="2"/>
	<circle class="st25" cx="35.9" cy="104.7" r="2"/>
	<circle class="st25" cx="35.9" cy="109.3" r="2"/>
	<circle class="st26" cx="35.9" cy="113.8" r="2"/>
	<circle class="st26" cx="35.9" cy="118.4" r="2"/>
</g>
<g>
	<g>
		<circle class="st73" cx="19.9" cy="70.9" r="3.2"/>
		<text transform="matrix(1 0 0 1 9.9535 62.0933)" class="st74 st14 st65">ATAC-seq</text>
		<circle class="st73" cx="35.1" cy="77.8" r="3.2"/>
		<path class="st64" d="M37.7,80c0.5,0.4,2.2,1.7,4.8,1.7c1.8,0,3.2-0.7,3.8-1.1"/>
		<path class="st64" d="M10.3,69.4c0.4-0.3,0.9-0.7,1.5-0.6c0.8,0.1,1.2,0.9,1.8,1.6c0.1,0.1,0.1,0.1,0.1,0.1c3.2,4,6.3,3.5,6.3,3.5
			c0.3,0,1.7-0.2,2.5-1.5c0.6-0.9,0.7-2.1,0.2-3.1c-0.4-0.9-1.2-1.3-1.4-1.5c-0.2-0.1-1-0.5-2-0.3c-0.2,0-0.5,0.1-0.9,0.3
			c-0.2,0.1-0.9,0.5-1.4,1.3c0,0-0.3,0.6-0.4,1.4c-0.1,0.7,1,5.4,3.9,5.9c2,0.4,3-1.5,4.7-0.8c1.5,0.6,1.2,2.4,2.7,2.9
			c1.3,0.4,3.1-0.3,3.8-1.5c0.3-0.5,0.2-0.9,0.7-1.5c0.6-0.7,1.4-1,1.6-1c1.3-0.4,2.4,0.2,2.5,0.3c0.2,0.1,1.3,0.8,1.5,2.3
			c0,0.1,0.2,1.6-0.9,2.8c-0.8,0.8-1.8,0.9-2,0.9s-1.2,0.1-2.2-0.6c-0.6-0.5-0.9-1-1-1.3c-0.4-0.8-0.3-1.6-0.2-1.9"/>
	</g>
	<g>
		<g>
			<line class="st75" x1="21.6" y1="68.7" x2="17.9" y2="73.2"/>
		</g>
		<g>
			<line class="st75" x1="17.8" y1="69.2" x2="22" y2="72.7"/>
		</g>
	</g>
	<g>
		<g>
			<line class="st75" x1="36.7" y1="75.7" x2="33.2" y2="79.9"/>
		</g>
		<g>
			<line class="st75" x1="32.9" y1="76.2" x2="37.1" y2="79.7"/>
		</g>
	</g>
</g>
<text transform="matrix(1 0 0 1 4.85 8.7559)" class="st1 st2">Modalities</text>
</svg>
