<?xml version="1.0" encoding="utf-8"?>
<!-- Generator: Adobe Illustrator 25.4.1, SVG Export Plug-In . SVG Version: 6.00 Build 0)  -->
<svg version="1.1" id="Layer_1" xmlns="http://www.w3.org/2000/svg" xmlns:xlink="http://www.w3.org/1999/xlink" x="0px" y="0px"
	 viewBox="0 0 386.9 157.4" style="enable-background:new 0 0 386.9 157.4;" xml:space="preserve">
<style type="text/css">
	.st0{font-family:'Helvetica-Bold';}
	.st1{font-size:10px;}
	.st2{font-size:9px;}
	.st3{fill:#939598;stroke:#000000;stroke-width:0.5;stroke-miterlimit:10;}
	.st4{fill:none;stroke:#000000;stroke-width:0.5;stroke-miterlimit:10;}
	.st5{fill:url(#SVGID_1_);stroke:#58595B;stroke-width:0.75;stroke-miterlimit:10;}
	.st6{fill:none;stroke:#A7A9AC;stroke-width:0.15;stroke-miterlimit:10;}
	.st7{opacity:0.7;fill:#58595B;}
	
		.st8{fill:url(#SVGID_00000087389237860779129070000016182642169502462898_);stroke:#58595B;stroke-width:0.75;stroke-miterlimit:10;}
	.st9{fill:#58595B;}
	.st10{opacity:0.6;fill:#A7A9AC;}
	.st11{fill:#A7A9AC;}
	.st12{font-family:'Helvetica';}
	.st13{font-size:3.8089px;}
	.st14{font-size:6.5048px;}
	.st15{fill:#E6E7E8;stroke:#000000;stroke-width:0.5;stroke-miterlimit:10;}
	.st16{fill:#7257A5;}
	.st17{fill:#2B6BB4;}
	.st18{fill:none;stroke:#000000;stroke-width:0.75;stroke-miterlimit:10;}
	.st19{fill:none;stroke:#000000;stroke-width:0.75;stroke-miterlimit:10;stroke-dasharray:1.9749,1.9749;}
	.st20{font-family:'TradeGothicNextLTPro-It';}
	.st21{font-size:7px;}
	.st22{fill:#7257A5;stroke:#414042;stroke-width:5.000000e-02;stroke-miterlimit:10;}
	.st23{opacity:0.8;fill:#7257A5;stroke:#414042;stroke-width:5.000000e-02;stroke-miterlimit:10;}
	.st24{opacity:0.55;fill:#7257A5;stroke:#414042;stroke-width:5.000000e-02;stroke-miterlimit:10;}
	.st25{opacity:0.3;fill:#7257A5;stroke:#414042;stroke-width:5.000000e-02;stroke-miterlimit:10;}
	.st26{opacity:0.78;fill:#7257A5;stroke:#414042;stroke-width:5.000000e-02;stroke-miterlimit:10;}
	.st27{opacity:0.35;fill:#7257A5;stroke:#414042;stroke-width:5.000000e-02;stroke-miterlimit:10;}
	.st28{opacity:0.9;fill:#7257A5;stroke:#414042;stroke-width:5.000000e-02;stroke-miterlimit:10;}
	.st29{opacity:0.7;fill:#7257A5;stroke:#414042;stroke-width:5.000000e-02;stroke-miterlimit:10;}
	.st30{fill:#EF4136;stroke:#414042;stroke-width:5.000000e-02;stroke-miterlimit:10;}
	.st31{opacity:0.8;fill:#00A651;stroke:#414042;stroke-width:5.000000e-02;stroke-miterlimit:10;}
	.st32{opacity:0.55;fill:#00AEEF;stroke:#414042;stroke-width:5.000000e-02;stroke-miterlimit:10;}
	.st33{opacity:0.3;fill:#00A651;stroke:#414042;stroke-width:5.000000e-02;stroke-miterlimit:10;}
	.st34{fill:#F9ED32;stroke:#414042;stroke-width:5.000000e-02;stroke-miterlimit:10;}
	.st35{fill:#00A651;stroke:#414042;stroke-width:5.000000e-02;stroke-miterlimit:10;}
	.st36{opacity:0.78;fill:#EF4136;stroke:#414042;stroke-width:5.000000e-02;stroke-miterlimit:10;}
	.st37{opacity:0.35;fill:#F9ED32;stroke:#414042;stroke-width:5.000000e-02;stroke-miterlimit:10;}
	.st38{opacity:0.9;fill:#00AEEF;stroke:#414042;stroke-width:5.000000e-02;stroke-miterlimit:10;}
	.st39{opacity:0.7;fill:#ED1C24;stroke:#414042;stroke-width:5.000000e-02;stroke-miterlimit:10;}
	.st40{opacity:0.55;fill:#F9ED32;stroke:#414042;stroke-width:5.000000e-02;stroke-miterlimit:10;}
	.st41{opacity:0.8;fill:#F9ED32;stroke:#414042;stroke-width:5.000000e-02;stroke-miterlimit:10;}
	.st42{opacity:0.8;fill:#00AEEF;stroke:#414042;stroke-width:5.000000e-02;stroke-miterlimit:10;}
	.st43{fill:none;stroke:#000000;stroke-width:0.5616;stroke-miterlimit:10;}
	
		.st44{fill:url(#SVGID_00000022528228381666870650000014128598638935340474_);stroke:#58595B;stroke-width:0.75;stroke-miterlimit:10;}
	.st45{fill:#F9ED32;}
	.st46{opacity:0.7;fill:#00AEEF;}
	.st47{opacity:0.7;fill:#ED1C24;}
	.st48{opacity:0.7;fill:#00A651;}
	
		.st49{fill:url(#SVGID_00000129891307256203174120000003483947023427422122_);stroke:#58595B;stroke-width:0.75;stroke-miterlimit:10;}
	
		.st50{fill:url(#SVGID_00000114775495069753763810000016855793334485534617_);stroke:#58595B;stroke-width:0.75;stroke-miterlimit:10;}
	.st51{fill:none;stroke:#000000;stroke-width:0.288;stroke-miterlimit:10;}
	.st52{fill:#ED1C24;stroke:#414042;stroke-width:5.000000e-02;stroke-miterlimit:10;}
	.st53{fill:#00AEEF;stroke:#414042;stroke-width:5.000000e-02;stroke-miterlimit:10;}
	.st54{opacity:0.8;fill:#939598;stroke:#414042;stroke-width:5.000000e-02;stroke-miterlimit:10;}
	.st55{font-size:6px;}
	
		.st56{fill:url(#SVGID_00000084488254709669300130000002208882369866565311_);stroke:#58595B;stroke-width:0.75;stroke-miterlimit:10;}
	
		.st57{fill:url(#SVGID_00000054963657993188692070000014198766581990062526_);stroke:#58595B;stroke-width:0.75;stroke-miterlimit:10;}
	.st58{opacity:0.8;}
	.st59{fill:none;stroke:#58595B;stroke-width:0.75;stroke-miterlimit:10;}
	
		.st60{fill:url(#SVGID_00000121960766919106187020000006670012869695462070_);stroke:#58595B;stroke-width:0.75;stroke-miterlimit:10;}
	
		.st61{fill:url(#SVGID_00000142891035114555897080000015408603325208250007_);stroke:#58595B;stroke-width:0.75;stroke-miterlimit:10;}
</style>
<text transform="matrix(1 0 0 1 14.1703 8.756)" class="st0 st1">Dimensionality reduction</text>
<text transform="matrix(1 0 0 1 151.506 8.5988)" class="st0 st1">Differential comparison</text>
<text transform="matrix(1 0 0 1 1.220703e-04 79.6787)"><tspan x="0" y="0" class="st0 st1">Removal of unwanted variation</tspan><tspan x="30.1" y="11.5" class="st0 st2">(Dataset integration)</tspan></text>
<text transform="matrix(1 0 0 1 280.7806 8.756)" class="st0 st1">Automated annotation</text>
<text transform="matrix(1 0 0 1 292.9877 79.6786)" class="st0 st1">Transfer learning</text>
<text transform="matrix(1 0 0 1 172.629 79.6786)" class="st0 st1">Deconvolution</text>
<g>
	<circle class="st3" cx="95.1" cy="39.7" r="4"/>
	<circle class="st3" cx="80.1" cy="19.1" r="4"/>
	<circle class="st3" cx="80.1" cy="46.9" r="4"/>
	<line class="st4" x1="83.6" y1="21.1" x2="91.1" y2="27"/>
	<line class="st4" x1="83.6" y1="21.1" x2="90.9" y2="39.2"/>
	<line class="st4" x1="84" y1="33.7" x2="91.1" y2="39.5"/>
	<line class="st4" x1="84" y1="33.7" x2="91.1" y2="27"/>
	<line class="st4" x1="84.1" y1="47.4" x2="91.5" y2="28.9"/>
	<line class="st4" x1="84.1" y1="46.9" x2="90.8" y2="39.7"/>
	<circle class="st3" cx="95.1" cy="27" r="4"/>
	<circle class="st3" cx="80.1" cy="33" r="4"/>
</g>
<g>
	
		<linearGradient id="SVGID_1_" gradientUnits="userSpaceOnUse" x1="1233.9702" y1="1233.4343" x2="1270.4366" y2="1233.4343" gradientTransform="matrix(0 -1 -1 0 1285.1993 1285.1993)">
		<stop  offset="0" style="stop-color:#FFFFFF"/>
		<stop  offset="1" style="stop-color:#E6E7E8"/>
	</linearGradient>
	<polygon class="st5" points="36.2,14.8 36.2,51.2 67.4,51.2 67.4,14.8 	"/>
	<g>
		<rect x="36.2" y="14.8" class="st6" width="31.2" height="36.5"/>
		<line class="st6" x1="39" y1="51.3" x2="39" y2="14.8"/>
		<line class="st6" x1="41.8" y1="51.3" x2="41.8" y2="14.8"/>
		<line class="st6" x1="44.7" y1="51.3" x2="44.7" y2="14.8"/>
		<line class="st6" x1="47.5" y1="51.3" x2="47.5" y2="14.8"/>
		<line class="st6" x1="50.4" y1="51.3" x2="50.4" y2="14.8"/>
		<line class="st6" x1="53.2" y1="51.3" x2="53.2" y2="14.8"/>
		<line class="st6" x1="56" y1="51.3" x2="56" y2="14.8"/>
		<line class="st6" x1="58.9" y1="51.3" x2="58.9" y2="14.8"/>
		<line class="st6" x1="61.7" y1="51.3" x2="61.7" y2="14.8"/>
		<line class="st6" x1="64.6" y1="51.3" x2="64.6" y2="14.8"/>
		<line class="st6" x1="67.4" y1="18.2" x2="36.2" y2="18.2"/>
		<line class="st6" x1="67.4" y1="21.5" x2="36.2" y2="21.5"/>
		<line class="st6" x1="67.4" y1="24.8" x2="36.2" y2="24.8"/>
		<line class="st6" x1="67.4" y1="28.1" x2="36.2" y2="28.1"/>
		<line class="st6" x1="67.4" y1="31.4" x2="36.2" y2="31.4"/>
		<line class="st6" x1="67.4" y1="34.7" x2="36.2" y2="34.7"/>
		<line class="st6" x1="67.4" y1="38" x2="36.2" y2="38"/>
		<line class="st6" x1="67.4" y1="41.4" x2="36.2" y2="41.4"/>
		<line class="st6" x1="67.4" y1="44.7" x2="36.2" y2="44.7"/>
		<line class="st6" x1="67.4" y1="48" x2="36.2" y2="48"/>
	</g>
	
		<rect x="51.2" y="40.7" transform="matrix(6.123234e-17 -1 1 6.123234e-17 -4.6872 108.2172)" class="st7" width="1.1" height="31.5"/>
	
		<rect x="51.2" y="38.8" transform="matrix(6.123234e-17 -1 1 6.123234e-17 -2.817 106.3708)" class="st7" width="1.1" height="31.5"/>
	
		<rect x="51.2" y="37" transform="matrix(6.123234e-17 -1 1 6.123234e-17 -0.9586 104.5124)" class="st7" width="1.1" height="31.5"/>
	<rect x="28.8" y="14.8" class="st7" width="1.4" height="36.5"/>
	<rect x="31.1" y="14.8" class="st7" width="1.4" height="36.5"/>
	<rect x="33.5" y="14.8" class="st7" width="1.4" height="36.5"/>
</g>
<g>
	
		<linearGradient id="SVGID_00000155112351821751786460000013535145651158242961_" gradientUnits="userSpaceOnUse" x1="1197.8262" y1="1168.7875" x2="1234.2926" y2="1168.7875" gradientTransform="matrix(8.744590e-03 -1 -1 -8.744590e-03 1272.7856 1259.2686)">
		<stop  offset="0" style="stop-color:#FFFFFF"/>
		<stop  offset="1" style="stop-color:#E6E7E8"/>
	</linearGradient>
	
		<polygon style="fill:url(#SVGID_00000155112351821751786460000013535145651158242961_);stroke:#58595B;stroke-width:0.75;stroke-miterlimit:10;" points="
		110,14.8 109.7,51.2 119.3,51.3 119.6,14.8 	"/>
	<g>
		
			<rect x="96.4" y="28.3" transform="matrix(8.744590e-03 -1 1 8.744590e-03 80.5648 147.4994)" class="st6" width="36.5" height="9.6"/>
		<path class="st6" d="M110.9,14.8"/>
		<path class="st6" d="M110.6,51.3"/>
		<line class="st6" x1="111.9" y1="51.3" x2="112.2" y2="14.9"/>
		<path class="st6" d="M112.7,14.9"/>
		<path class="st6" d="M112.3,51.3"/>
		<line class="st6" x1="113.6" y1="51.3" x2="114" y2="14.9"/>
		<path class="st6" d="M114.4,14.9"/>
		<path class="st6" d="M114.1,51.3"/>
		<line class="st6" x1="115.4" y1="51.4" x2="115.7" y2="14.9"/>
		<path class="st6" d="M116.2,14.9"/>
		<path class="st6" d="M115.8,51.4"/>
		<line class="st6" x1="117.1" y1="51.4" x2="117.5" y2="14.9"/>
		<path class="st6" d="M117.9,14.9"/>
		<path class="st6" d="M117.6,51.4"/>
		<path class="st6" d="M118.8,14.9"/>
		<path class="st6" d="M118.5,51.4"/>
		<line class="st6" x1="119.6" y1="18.2" x2="110" y2="18.2"/>
		<line class="st6" x1="119.6" y1="21.6" x2="110" y2="21.5"/>
		<line class="st6" x1="119.6" y1="24.9" x2="109.9" y2="24.8"/>
		<line class="st6" x1="119.5" y1="28.2" x2="109.9" y2="28.1"/>
		<line class="st6" x1="119.5" y1="31.5" x2="109.9" y2="31.4"/>
		<line class="st6" x1="119.5" y1="34.8" x2="109.9" y2="34.7"/>
		<line class="st6" x1="119.4" y1="38.1" x2="109.8" y2="38"/>
		<line class="st6" x1="119.4" y1="41.4" x2="109.8" y2="41.4"/>
		<line class="st6" x1="119.4" y1="44.8" x2="109.8" y2="44.7"/>
		<line class="st6" x1="119.4" y1="48.1" x2="109.7" y2="48"/>
	</g>
</g>
<g>
	<path class="st9" d="M172.6,55.1c16.6,0.1,22.2-31.3,29.3-31.3c7.2,0,7.7,31.3,20.2,31.3"/>
	<path class="st10" d="M236.8,55.1c-10.9,0-11.9-24-16.6-24c-4.7,0-7.8,24-16,24"/>
	<line class="st4" x1="172.4" y1="10.8" x2="172.6" y2="55.1"/>
	<line class="st4" x1="172.4" y1="55.1" x2="245.8" y2="55.1"/>
	<rect x="175.8" y="12.4" class="st9" width="9.8" height="3.2"/>
	<rect x="175.8" y="17.5" class="st11" width="9.8" height="3.2"/>
	<text transform="matrix(1 0 0 1 186.9097 15.2182)" class="st12 st13">Group A</text>
	<text transform="matrix(1 0 0 1 186.9126 20.5356)" class="st12 st13">Group B</text>
	<text transform="matrix(1 0 0 1 190.8936 62.5646)" class="st12 st14">Expression</text>
</g>
<g>
	<g>
		<polygon class="st15" points="88.3,156.6 32.8,156.6 63.7,126 119.2,126 		"/>
	</g>
	<ellipse class="st16" cx="54" cy="150.2" rx="2.6" ry="2.8"/>
	<ellipse class="st17" cx="98.9" cy="130" rx="2.6" ry="2.8"/>
	<ellipse class="st17" cx="97.7" cy="136.9" rx="2.6" ry="2.8"/>
	<g>
		<g>
			<line class="st18" x1="32.8" y1="156.5" x2="32.8" y2="155.5"/>
			<line class="st19" x1="32.8" y1="153.5" x2="32.8" y2="103.2"/>
			<line class="st18" x1="32.8" y1="102.2" x2="32.8" y2="101.2"/>
			<g>
				<polygon points="35.4,102 32.8,97.4 30.2,102 				"/>
			</g>
		</g>
	</g>
	<text transform="matrix(0.8705 0 0 1 37.4589 105.0172)" class="st20 st21">Observed nuisance factors</text>
	<ellipse class="st16" cx="64.3" cy="142.5" rx="2.6" ry="2.8"/>
	<ellipse class="st16" cx="54" cy="143.3" rx="2.6" ry="2.8"/>
	<ellipse class="st16" cx="63.8" cy="151.2" rx="2.6" ry="2.8"/>
	<ellipse class="st16" cx="71.3" cy="146.7" rx="2.6" ry="2.8"/>
	<ellipse class="st16" cx="79.5" cy="152.2" rx="2.6" ry="2.8"/>
	<ellipse class="st17" cx="91.7" cy="137.8" rx="2.6" ry="2.8"/>
	<ellipse class="st17" cx="86" cy="136.1" rx="2.6" ry="2.8"/>
	<ellipse class="st17" cx="89.6" cy="130.5" rx="2.6" ry="2.8"/>
</g>
<g>
	<circle class="st22" cx="224.1" cy="91.3" r="3.1"/>
	<circle class="st23" cx="224.1" cy="98.4" r="3.1"/>
	<circle class="st24" cx="224.1" cy="105.5" r="3.1"/>
	<circle class="st25" cx="224.1" cy="112.6" r="3.1"/>
	<circle class="st22" cx="232.3" cy="91.4" r="3.1"/>
	<circle class="st22" cx="232.3" cy="98.5" r="3.1"/>
	<circle class="st26" cx="232.3" cy="105.6" r="3.1"/>
	<circle class="st27" cx="232.3" cy="112.6" r="3.1"/>
	<circle class="st22" cx="240.3" cy="91.4" r="3.1"/>
	<circle class="st28" cx="240.3" cy="98.5" r="3.1"/>
	<circle class="st29" cx="240.3" cy="105.6" r="3.1"/>
	<circle class="st24" cx="240.3" cy="112.6" r="3.1"/>
	<circle class="st23" cx="247.9" cy="91.6" r="3.1"/>
	<circle class="st23" cx="247.9" cy="98.7" r="3.1"/>
	<circle class="st24" cx="247.9" cy="105.7" r="3.1"/>
	<circle class="st24" cx="247.9" cy="112.8" r="3.1"/>
</g>
<g>
	<circle class="st30" cx="223.7" cy="130.4" r="3.1"/>
	<circle class="st31" cx="223.7" cy="137.5" r="3.1"/>
	<circle class="st32" cx="223.7" cy="144.5" r="3.1"/>
	<circle class="st33" cx="223.7" cy="151.6" r="3.1"/>
	<circle class="st34" cx="231.8" cy="130.5" r="3.1"/>
	<circle class="st35" cx="231.8" cy="137.5" r="3.1"/>
	<circle class="st36" cx="231.8" cy="144.6" r="3.1"/>
	<circle class="st37" cx="231.8" cy="151.7" r="3.1"/>
	<circle class="st34" cx="239.9" cy="130.5" r="3.1"/>
	<circle class="st38" cx="239.9" cy="137.5" r="3.1"/>
	<circle class="st39" cx="239.9" cy="144.6" r="3.1"/>
	<circle class="st40" cx="239.9" cy="151.7" r="3.1"/>
	<circle class="st41" cx="247.5" cy="130.6" r="3.1"/>
	<circle class="st42" cx="247.5" cy="137.7" r="3.1"/>
	<circle class="st32" cx="247.5" cy="144.8" r="3.1"/>
	<circle class="st32" cx="247.5" cy="151.8" r="3.1"/>
</g>
<g>
	<g>
		<path class="st43" d="M217.4,100.7c-1.4,0.6-8.4,3.8-11.7,11.9c-0.6,1.5-3.2,8.1-0.4,15.9c2.2,6.2,6.6,9.8,9.5,11.6"/>
		<g>
			<polygon points="217.3,141.5 212.8,140.9 214.5,139.9 214.5,137.9 			"/>
		</g>
	</g>
</g>
<g>
	<g>
		
			<linearGradient id="SVGID_00000116934187391848184630000014210081760645577615_" gradientUnits="userSpaceOnUse" x1="1145.8069" y1="1105.6925" x2="1182.9268" y2="1105.6925" gradientTransform="matrix(0 -1 -1 0 1285.1993 1285.1993)">
			<stop  offset="0" style="stop-color:#FFFFFF"/>
			<stop  offset="1" style="stop-color:#E6E7E8"/>
		</linearGradient>
		
			<polygon style="fill:url(#SVGID_00000116934187391848184630000014210081760645577615_);stroke:#58595B;stroke-width:0.75;stroke-miterlimit:10;" points="
			164.9,102.3 164.9,139.4 194.1,139.4 194.1,102.3 		"/>
		<g>
			<rect x="165" y="102.4" class="st6" width="29.1" height="37.1"/>
			<line class="st6" x1="167.6" y1="139.5" x2="167.6" y2="102.4"/>
			<line class="st6" x1="170.3" y1="139.5" x2="170.3" y2="102.4"/>
			<line class="st6" x1="172.9" y1="139.5" x2="172.9" y2="102.4"/>
			<line class="st6" x1="175.5" y1="139.5" x2="175.5" y2="102.4"/>
			<line class="st6" x1="178.2" y1="139.5" x2="178.2" y2="102.4"/>
			<line class="st6" x1="180.8" y1="139.5" x2="180.8" y2="102.4"/>
			<line class="st6" x1="183.5" y1="139.5" x2="183.5" y2="102.4"/>
			<line class="st6" x1="186.1" y1="139.5" x2="186.1" y2="102.4"/>
			<line class="st6" x1="188.8" y1="139.5" x2="188.8" y2="102.4"/>
			<line class="st6" x1="191.4" y1="139.5" x2="191.4" y2="102.4"/>
			<line class="st6" x1="194.1" y1="105.7" x2="165" y2="105.7"/>
			<line class="st6" x1="194.1" y1="109.1" x2="165" y2="109.1"/>
			<line class="st6" x1="194.1" y1="112.5" x2="165" y2="112.5"/>
			<line class="st6" x1="194.1" y1="115.9" x2="165" y2="115.9"/>
			<line class="st6" x1="194.1" y1="119.2" x2="165" y2="119.2"/>
			<line class="st6" x1="194.1" y1="122.6" x2="165" y2="122.6"/>
			<line class="st6" x1="194.1" y1="126" x2="165" y2="126"/>
			<line class="st6" x1="194.1" y1="129.3" x2="165" y2="129.3"/>
			<line class="st6" x1="194.1" y1="132.7" x2="165" y2="132.7"/>
			<line class="st6" x1="194.1" y1="136.1" x2="165" y2="136.1"/>
		</g>
		<rect x="162.2" y="102.3" class="st45" width="1.5" height="37.1"/>
	</g>
	<rect x="162.2" y="105.7" class="st46" width="1.5" height="9.4"/>
	<rect x="162.2" y="115.1" class="st47" width="1.5" height="9.1"/>
	<rect x="162.2" y="124.2" class="st48" width="1.5" height="15.2"/>
</g>
<g>
	<g>
		<circle class="st3" cx="356.6" cy="109.3" r="3.4"/>
		<circle class="st3" cx="343.8" cy="91.8" r="3.4"/>
		<circle class="st3" cx="343.8" cy="115.5" r="3.4"/>
		<line class="st4" x1="346.8" y1="93.5" x2="353.2" y2="98.6"/>
		<line class="st4" x1="346.8" y1="93.5" x2="353" y2="108.9"/>
		<line class="st4" x1="347.2" y1="104.2" x2="353.2" y2="109.2"/>
		<line class="st4" x1="347.2" y1="104.2" x2="353.2" y2="98.6"/>
		<line class="st4" x1="347.2" y1="115.9" x2="353.6" y2="100.1"/>
		<line class="st4" x1="347.2" y1="115.5" x2="352.9" y2="109.3"/>
		<circle class="st3" cx="356.6" cy="98.6" r="3.4"/>
		<circle class="st3" cx="343.8" cy="103.6" r="3.4"/>
	</g>
	<g>
		<circle class="st3" cx="356.6" cy="109.3" r="3.4"/>
		<circle class="st3" cx="369.3" cy="91.8" r="3.4"/>
		<circle class="st3" cx="369.3" cy="115.5" r="3.4"/>
		<line class="st4" x1="366.4" y1="93.5" x2="360" y2="98.6"/>
		<line class="st4" x1="366.4" y1="93.5" x2="360.2" y2="108.9"/>
		<line class="st4" x1="366" y1="104.2" x2="360" y2="109.2"/>
		<line class="st4" x1="366" y1="104.2" x2="360" y2="98.6"/>
		<line class="st4" x1="365.9" y1="115.9" x2="359.6" y2="100.1"/>
		<line class="st4" x1="365.9" y1="115.5" x2="360.2" y2="109.3"/>
		<circle class="st3" cx="356.6" cy="98.6" r="3.4"/>
		<circle class="st3" cx="369.3" cy="103.6" r="3.4"/>
	</g>
</g>
<g>
	<g>
		<circle class="st3" cx="356.8" cy="147.6" r="3.4"/>
		<circle class="st3" cx="344" cy="130" r="3.4"/>
		<circle class="st3" cx="344" cy="153.7" r="3.4"/>
		<line class="st4" x1="347" y1="131.7" x2="353.4" y2="136.8"/>
		<line class="st4" x1="347" y1="131.7" x2="353.2" y2="147.2"/>
		<line class="st4" x1="347.4" y1="142.5" x2="353.4" y2="147.4"/>
		<line class="st4" x1="347.4" y1="142.5" x2="353.4" y2="136.8"/>
		<line class="st4" x1="347.4" y1="154.1" x2="353.8" y2="138.4"/>
		<line class="st4" x1="347.4" y1="153.7" x2="353.1" y2="147.6"/>
		<circle class="st3" cx="356.8" cy="136.8" r="3.4"/>
		<circle class="st3" cx="344" cy="141.9" r="3.4"/>
	</g>
	<g>
		<circle class="st3" cx="356.8" cy="147.6" r="3.4"/>
		<circle class="st3" cx="369.5" cy="130" r="3.4"/>
		<circle class="st3" cx="369.5" cy="153.7" r="3.4"/>
		<line class="st4" x1="366.6" y1="131.7" x2="360.2" y2="136.8"/>
		<line class="st4" x1="366.6" y1="131.7" x2="360.4" y2="147.2"/>
		<line class="st4" x1="366.2" y1="142.5" x2="360.2" y2="147.4"/>
		<line class="st4" x1="366.2" y1="142.5" x2="360.2" y2="136.8"/>
		<line class="st4" x1="366.1" y1="154.1" x2="359.8" y2="138.4"/>
		<line class="st4" x1="366.1" y1="153.7" x2="360.4" y2="147.6"/>
		<circle class="st3" cx="356.8" cy="136.8" r="3.4"/>
		<circle class="st3" cx="369.5" cy="141.9" r="3.4"/>
	</g>
</g>
<g>
	<g>
		
			<linearGradient id="SVGID_00000018236544948122262430000001657821805368122806_" gradientUnits="userSpaceOnUse" x1="1227.2488" y1="982.3471" x2="1263.3647" y2="982.3471" gradientTransform="matrix(0 -1 -1 0 1285.1993 1285.1993)">
			<stop  offset="0" style="stop-color:#FFFFFF"/>
			<stop  offset="1" style="stop-color:#E6E7E8"/>
		</linearGradient>
		
			<polygon style="fill:url(#SVGID_00000018236544948122262430000001657821805368122806_);stroke:#58595B;stroke-width:0.75;stroke-miterlimit:10;" points="
			288.7,21.8 288.7,58 317,58 317,21.8 		"/>
		<g>
			<rect x="288.7" y="21.9" class="st6" width="28.3" height="36.1"/>
			<line class="st6" x1="291.3" y1="58" x2="291.3" y2="21.9"/>
			<line class="st6" x1="293.8" y1="58" x2="293.8" y2="21.9"/>
			<line class="st6" x1="296.4" y1="58" x2="296.4" y2="21.9"/>
			<line class="st6" x1="299" y1="58" x2="299" y2="21.9"/>
			<line class="st6" x1="301.6" y1="58" x2="301.6" y2="21.9"/>
			<line class="st6" x1="304.2" y1="58" x2="304.2" y2="21.9"/>
			<line class="st6" x1="306.7" y1="58" x2="306.7" y2="21.9"/>
			<line class="st6" x1="309.3" y1="58" x2="309.3" y2="21.9"/>
			<line class="st6" x1="311.9" y1="58" x2="311.9" y2="21.9"/>
			<line class="st6" x1="314.5" y1="58" x2="314.5" y2="21.9"/>
			<line class="st6" x1="317" y1="25.2" x2="288.7" y2="25.2"/>
			<line class="st6" x1="317" y1="28.5" x2="288.7" y2="28.5"/>
			<line class="st6" x1="317" y1="31.8" x2="288.7" y2="31.8"/>
			<line class="st6" x1="317" y1="35" x2="288.7" y2="35"/>
			<line class="st6" x1="317" y1="38.3" x2="288.7" y2="38.3"/>
			<line class="st6" x1="317" y1="41.6" x2="288.7" y2="41.6"/>
			<line class="st6" x1="317" y1="44.9" x2="288.7" y2="44.9"/>
			<line class="st6" x1="317" y1="48.2" x2="288.7" y2="48.2"/>
			<line class="st6" x1="317" y1="51.5" x2="288.7" y2="51.5"/>
			<line class="st6" x1="317" y1="54.7" x2="288.7" y2="54.7"/>
		</g>
		<rect x="286.1" y="21.8" class="st45" width="1.5" height="36.1"/>
	</g>
	<rect x="286.1" y="25.2" class="st46" width="1.5" height="9.2"/>
	<rect x="286.1" y="34.4" class="st47" width="1.5" height="8.8"/>
	<rect x="286.1" y="43.2" class="st48" width="1.5" height="14.8"/>
</g>
<g>
	<g>
		
			<linearGradient id="SVGID_00000147915769575470665030000014749170173511446701_" gradientUnits="userSpaceOnUse" x1="1228.8904" y1="979.2609" x2="1265.0063" y2="979.2609" gradientTransform="matrix(0 -1 -1 0 1285.1993 1285.1993)">
			<stop  offset="0" style="stop-color:#FFFFFF"/>
			<stop  offset="1" style="stop-color:#E6E7E8"/>
		</linearGradient>
		
			<polygon style="fill:url(#SVGID_00000147915769575470665030000014749170173511446701_);stroke:#58595B;stroke-width:0.75;stroke-miterlimit:10;" points="
			291.8,20.2 291.8,56.3 320.1,56.3 320.1,20.2 		"/>
		<g>
			<rect x="291.8" y="20.3" class="st6" width="28.3" height="36.1"/>
			<line class="st6" x1="294.4" y1="56.4" x2="294.4" y2="20.3"/>
			<line class="st6" x1="296.9" y1="56.4" x2="296.9" y2="20.3"/>
			<line class="st6" x1="299.5" y1="56.4" x2="299.5" y2="20.3"/>
			<line class="st6" x1="302.1" y1="56.4" x2="302.1" y2="20.3"/>
			<line class="st6" x1="304.7" y1="56.4" x2="304.7" y2="20.3"/>
			<line class="st6" x1="307.2" y1="56.4" x2="307.2" y2="20.3"/>
			<line class="st6" x1="309.8" y1="56.4" x2="309.8" y2="20.3"/>
			<line class="st6" x1="312.4" y1="56.4" x2="312.4" y2="20.3"/>
			<line class="st6" x1="315" y1="56.4" x2="315" y2="20.3"/>
			<line class="st6" x1="317.5" y1="56.4" x2="317.5" y2="20.3"/>
			<line class="st6" x1="320.1" y1="23.6" x2="291.8" y2="23.6"/>
			<line class="st6" x1="320.1" y1="26.8" x2="291.8" y2="26.8"/>
			<line class="st6" x1="320.1" y1="30.1" x2="291.8" y2="30.1"/>
			<line class="st6" x1="320.1" y1="33.4" x2="291.8" y2="33.4"/>
			<line class="st6" x1="320.1" y1="36.7" x2="291.8" y2="36.7"/>
			<line class="st6" x1="320.1" y1="40" x2="291.8" y2="40"/>
			<line class="st6" x1="320.1" y1="43.3" x2="291.8" y2="43.3"/>
			<line class="st6" x1="320.1" y1="46.5" x2="291.8" y2="46.5"/>
			<line class="st6" x1="320.1" y1="49.8" x2="291.8" y2="49.8"/>
			<line class="st6" x1="320.1" y1="53.1" x2="291.8" y2="53.1"/>
		</g>
	</g>
</g>
<g>
	<polygon class="st51" points="356.4,47.1 356.4,25.1 337.3,58.1 	"/>
	<polygon class="st51" points="356.4,47 337.3,58 375.4,58 	"/>
	<polygon class="st51" points="356.5,47.1 356.5,25.1 375.5,58.1 	"/>
	<circle class="st34" cx="338.1" cy="57.7" r="2.4"/>
	<circle class="st52" cx="356.4" cy="25.1" r="2.4"/>
	<circle class="st53" cx="375.4" cy="58.1" r="2.4"/>
	<circle class="st35" cx="356.4" cy="47.1" r="2.4"/>
	<circle class="st54" cx="344.7" cy="55.3" r="1"/>
	<circle class="st54" cx="349.5" cy="55.1" r="1"/>
	<circle class="st54" cx="342" cy="53.1" r="1"/>
	<circle class="st54" cx="366.6" cy="54.9" r="1"/>
	<circle class="st54" cx="369.8" cy="56.4" r="1"/>
	<circle class="st54" cx="370.6" cy="53.5" r="1"/>
	<circle class="st54" cx="358.1" cy="30.8" r="1"/>
	<circle class="st54" cx="355" cy="31.7" r="1"/>
	<circle class="st54" cx="358.1" cy="33.5" r="1"/>
	<circle class="st54" cx="354.8" cy="34.5" r="1"/>
	<circle class="st54" cx="352.1" cy="44.6" r="1"/>
	<circle class="st54" cx="360.7" cy="47.1" r="1"/>
	<circle class="st54" cx="345" cy="50.6" r="1"/>
	<circle class="st54" cx="356.4" cy="51.8" r="1"/>
	<circle class="st54" cx="360.1" cy="35.1" r="1"/>
</g>
<text transform="matrix(1 0 0 1 325.6689 19.7737)" class="st12 st55">Assignment probability</text>
<g>
	<g>
		
			<linearGradient id="SVGID_00000072958838543478740150000018031875390559419013_" gradientUnits="userSpaceOnUse" x1="1165.5552" y1="988.1664" x2="1197.0106" y2="988.1664" gradientTransform="matrix(0 -1 -1 0 1285.1993 1285.1993)">
			<stop  offset="0" style="stop-color:#FFFFFF"/>
			<stop  offset="1" style="stop-color:#E6E7E8"/>
		</linearGradient>
		
			<polygon style="fill:url(#SVGID_00000072958838543478740150000018031875390559419013_);stroke:#58595B;stroke-width:0.75;stroke-miterlimit:10;" points="
			284.7,88.2 284.7,119.6 309.4,119.6 309.4,88.2 		"/>
		<g>
			<rect x="284.7" y="88.3" class="st6" width="24.7" height="31.5"/>
			<line class="st6" x1="286.9" y1="119.7" x2="286.9" y2="88.3"/>
			<line class="st6" x1="289.2" y1="119.7" x2="289.2" y2="88.3"/>
			<line class="st6" x1="291.4" y1="119.7" x2="291.4" y2="88.3"/>
			<line class="st6" x1="293.7" y1="119.7" x2="293.7" y2="88.3"/>
			<line class="st6" x1="295.9" y1="119.7" x2="295.9" y2="88.3"/>
			<line class="st6" x1="298.2" y1="119.7" x2="298.2" y2="88.3"/>
			<line class="st6" x1="300.4" y1="119.7" x2="300.4" y2="88.3"/>
			<line class="st6" x1="302.7" y1="119.7" x2="302.7" y2="88.3"/>
			<line class="st6" x1="304.9" y1="119.7" x2="304.9" y2="88.3"/>
			<line class="st6" x1="307.1" y1="119.7" x2="307.1" y2="88.3"/>
			<line class="st6" x1="309.4" y1="91.1" x2="284.7" y2="91.1"/>
			<line class="st6" x1="309.4" y1="94" x2="284.7" y2="94"/>
			<line class="st6" x1="309.4" y1="96.8" x2="284.7" y2="96.8"/>
			<line class="st6" x1="309.4" y1="99.7" x2="284.7" y2="99.7"/>
			<line class="st6" x1="309.4" y1="102.6" x2="284.7" y2="102.6"/>
			<line class="st6" x1="309.4" y1="105.4" x2="284.7" y2="105.4"/>
			<line class="st6" x1="309.4" y1="108.3" x2="284.7" y2="108.3"/>
			<line class="st6" x1="309.4" y1="111.1" x2="284.7" y2="111.1"/>
			<line class="st6" x1="309.4" y1="114" x2="284.7" y2="114"/>
			<line class="st6" x1="309.4" y1="116.9" x2="284.7" y2="116.9"/>
		</g>
	</g>
</g>
<g>
	<g>
		
			<linearGradient id="SVGID_00000144329155703805331870000000327914998160167093_" gradientUnits="userSpaceOnUse" x1="1166.985" y1="985.4785" x2="1198.4404" y2="985.4785" gradientTransform="matrix(0 -1 -1 0 1285.1993 1285.1993)">
			<stop  offset="0" style="stop-color:#FFFFFF"/>
			<stop  offset="1" style="stop-color:#E6E7E8"/>
		</linearGradient>
		
			<polygon style="fill:url(#SVGID_00000144329155703805331870000000327914998160167093_);stroke:#58595B;stroke-width:0.75;stroke-miterlimit:10;" points="
			287.4,86.8 287.4,118.2 312.1,118.2 312.1,86.8 		"/>
		<g>
			<rect x="287.4" y="86.8" class="st6" width="24.7" height="31.5"/>
			<line class="st6" x1="289.6" y1="118.3" x2="289.6" y2="86.8"/>
			<line class="st6" x1="291.9" y1="118.3" x2="291.9" y2="86.8"/>
			<line class="st6" x1="294.1" y1="118.3" x2="294.1" y2="86.8"/>
			<line class="st6" x1="296.4" y1="118.3" x2="296.4" y2="86.8"/>
			<line class="st6" x1="298.6" y1="118.3" x2="298.6" y2="86.8"/>
			<line class="st6" x1="300.9" y1="118.3" x2="300.9" y2="86.8"/>
			<line class="st6" x1="303.1" y1="118.3" x2="303.1" y2="86.8"/>
			<line class="st6" x1="305.3" y1="118.3" x2="305.3" y2="86.8"/>
			<line class="st6" x1="307.6" y1="118.3" x2="307.6" y2="86.8"/>
			<line class="st6" x1="309.8" y1="118.3" x2="309.8" y2="86.8"/>
			<line class="st6" x1="312.1" y1="89.7" x2="287.4" y2="89.7"/>
			<line class="st6" x1="312.1" y1="92.5" x2="287.4" y2="92.5"/>
			<line class="st6" x1="312.1" y1="95.4" x2="287.4" y2="95.4"/>
			<line class="st6" x1="312.1" y1="98.3" x2="287.4" y2="98.3"/>
			<line class="st6" x1="312.1" y1="101.1" x2="287.4" y2="101.1"/>
			<line class="st6" x1="312.1" y1="104" x2="287.4" y2="104"/>
			<line class="st6" x1="312.1" y1="106.8" x2="287.4" y2="106.8"/>
			<line class="st6" x1="312.1" y1="109.7" x2="287.4" y2="109.7"/>
			<line class="st6" x1="312.1" y1="112.6" x2="287.4" y2="112.6"/>
			<line class="st6" x1="312.1" y1="115.4" x2="287.4" y2="115.4"/>
		</g>
	</g>
</g>
<g class="st58">
	<g>
		<line class="st59" x1="317.9" y1="103.6" x2="334.9" y2="103.6"/>
		<g>
			<polygon class="st9" points="337.6,103.6 333.8,105.2 334.7,103.6 333.8,102.1 			"/>
		</g>
	</g>
</g>
<text transform="matrix(1 0 0 1 318.8337 101.201)" class="st12 st55">Train</text>
<g>
	<g>
		<path class="st43" d="M375.3,105c1.8,1.4,6.1,4.8,8.3,10.7c0.8,2.1,2.4,7.4,0.3,13.8c-1.5,4.5-4.1,7.6-6.3,9.6"/>
		<g>
			<polygon points="375.3,141 377.4,137 377.7,138.9 379.6,139.6 			"/>
		</g>
	</g>
</g>
<g>
	<g>
		
			<linearGradient id="SVGID_00000028316599070996033140000007884106655122819517_" gradientUnits="userSpaceOnUse" x1="1168.6594" y1="983.2246" x2="1200.1149" y2="983.2246" gradientTransform="matrix(0 -1 -1 0 1285.1993 1285.1993)">
			<stop  offset="0" style="stop-color:#FFFFFF"/>
			<stop  offset="1" style="stop-color:#E6E7E8"/>
		</linearGradient>
		
			<polygon style="fill:url(#SVGID_00000028316599070996033140000007884106655122819517_);stroke:#58595B;stroke-width:0.75;stroke-miterlimit:10;" points="
			289.6,85.1 289.6,116.5 314.3,116.5 314.3,85.1 		"/>
		<g>
			<rect x="289.6" y="85.2" class="st6" width="24.7" height="31.5"/>
			<line class="st6" x1="291.9" y1="116.6" x2="291.9" y2="85.2"/>
			<line class="st6" x1="294.1" y1="116.6" x2="294.1" y2="85.2"/>
			<line class="st6" x1="296.4" y1="116.6" x2="296.4" y2="85.2"/>
			<line class="st6" x1="298.6" y1="116.6" x2="298.6" y2="85.2"/>
			<line class="st6" x1="300.9" y1="116.6" x2="300.9" y2="85.2"/>
			<line class="st6" x1="303.1" y1="116.6" x2="303.1" y2="85.2"/>
			<line class="st6" x1="305.3" y1="116.6" x2="305.3" y2="85.2"/>
			<line class="st6" x1="307.6" y1="116.6" x2="307.6" y2="85.2"/>
			<line class="st6" x1="309.8" y1="116.6" x2="309.8" y2="85.2"/>
			<line class="st6" x1="312.1" y1="116.6" x2="312.1" y2="85.2"/>
			<line class="st6" x1="314.3" y1="88" x2="289.6" y2="88"/>
			<line class="st6" x1="314.3" y1="90.9" x2="289.6" y2="90.9"/>
			<line class="st6" x1="314.3" y1="93.7" x2="289.6" y2="93.7"/>
			<line class="st6" x1="314.3" y1="96.6" x2="289.6" y2="96.6"/>
			<line class="st6" x1="314.3" y1="99.5" x2="289.6" y2="99.5"/>
			<line class="st6" x1="314.3" y1="102.3" x2="289.6" y2="102.3"/>
			<line class="st6" x1="314.3" y1="105.2" x2="289.6" y2="105.2"/>
			<line class="st6" x1="314.3" y1="108" x2="289.6" y2="108"/>
			<line class="st6" x1="314.3" y1="110.9" x2="289.6" y2="110.9"/>
			<line class="st6" x1="314.3" y1="113.7" x2="289.6" y2="113.7"/>
		</g>
	</g>
</g>
<g>
	<g>
		
			<linearGradient id="SVGID_00000162310430172023691060000002395947500291152304_" gradientUnits="userSpaceOnUse" x1="1128.5996" y1="983.2293" x2="1160.0551" y2="983.2293" gradientTransform="matrix(0 -1 -1 0 1285.1993 1285.1993)">
			<stop  offset="0" style="stop-color:#FFFFFF"/>
			<stop  offset="1" style="stop-color:#E6E7E8"/>
		</linearGradient>
		
			<polygon style="fill:url(#SVGID_00000162310430172023691060000002395947500291152304_);stroke:#58595B;stroke-width:0.75;stroke-miterlimit:10;" points="
			289.6,125.1 289.6,156.6 314.3,156.6 314.3,125.1 		"/>
		<g>
			<rect x="289.6" y="125.2" class="st6" width="24.7" height="31.5"/>
			<line class="st6" x1="291.9" y1="156.7" x2="291.9" y2="125.2"/>
			<line class="st6" x1="294.1" y1="156.7" x2="294.1" y2="125.2"/>
			<line class="st6" x1="296.4" y1="156.7" x2="296.4" y2="125.2"/>
			<line class="st6" x1="298.6" y1="156.7" x2="298.6" y2="125.2"/>
			<line class="st6" x1="300.9" y1="156.7" x2="300.9" y2="125.2"/>
			<line class="st6" x1="303.1" y1="156.7" x2="303.1" y2="125.2"/>
			<line class="st6" x1="305.3" y1="156.7" x2="305.3" y2="125.2"/>
			<line class="st6" x1="307.6" y1="156.7" x2="307.6" y2="125.2"/>
			<line class="st6" x1="309.8" y1="156.7" x2="309.8" y2="125.2"/>
			<line class="st6" x1="312.1" y1="156.7" x2="312.1" y2="125.2"/>
			<line class="st6" x1="314.3" y1="128.1" x2="289.6" y2="128.1"/>
			<line class="st6" x1="314.3" y1="130.9" x2="289.6" y2="130.9"/>
			<line class="st6" x1="314.3" y1="133.8" x2="289.6" y2="133.8"/>
			<line class="st6" x1="314.3" y1="136.7" x2="289.6" y2="136.7"/>
			<line class="st6" x1="314.3" y1="139.5" x2="289.6" y2="139.5"/>
			<line class="st6" x1="314.3" y1="142.4" x2="289.6" y2="142.4"/>
			<line class="st6" x1="314.3" y1="145.2" x2="289.6" y2="145.2"/>
			<line class="st6" x1="314.3" y1="148.1" x2="289.6" y2="148.1"/>
			<line class="st6" x1="314.3" y1="150.9" x2="289.6" y2="150.9"/>
			<line class="st6" x1="314.3" y1="153.8" x2="289.6" y2="153.8"/>
		</g>
	</g>
</g>
<g class="st58">
	<g>
		<line class="st59" x1="318.4" y1="142.1" x2="335.5" y2="142.1"/>
		<g>
			<polygon class="st9" points="338.1,142.1 334.4,143.6 335.3,142.1 334.4,140.6 			"/>
		</g>
	</g>
</g>
<text transform="matrix(1 0 0 1 318.0339 139.5435)" class="st12 st55">Update</text>
</svg>
